<svg version="1.1"  xmlns="http://www.w3.org/2000/svg">
  <symbol id="icon-test" width="79" height="53" viewBox="0 0 79 53">
  </symbol>
  <symbol id="icon-pagination-arrow-2" width="13" height="12" viewBox="0 0 13 12">
  <path d="M12.0713 6.34337L10.6571 7.75758L5.00022 2.10073L6.41444 0.686513L12.0713 6.34337Z" />
  <path d="M10.6572 4.92915L12.0713 6.34337L6.41459 12.0002L5.00037 10.586L10.6572 4.92915Z" />
  <path d="M7.07129 6.34337L5.65708 7.75758L0.000222118 2.10073L1.41444 0.686513L7.07129 6.34337Z" />
  <path d="M5.65723 4.92915L7.07129 6.34337L1.41459 12.0002L0.000372057 10.586L5.65723 4.92915Z" />
  </symbol>
  <symbol id="icon-pagination-arrow-1" width="8" height="12" viewBox="0 0 8 12">
  <path d="M8 6.34314L6.58579 7.75735L0.928933 2.1005L2.34315 0.686285L8 6.34314Z" />
  <path d="M6.58594 4.92892L8 6.34314L2.3433 12L0.929083 10.5858L6.58594 4.92892Z" />
  </symbol>
  <symbol id="icon-footer-arrow" width="11" height="7" viewBox="0 0 11 7">
      <rect x="5.75781" y="0.342773" width="2" height="7.41421" rx="1" transform="rotate(45 5.75781 0.342773)" />
      <rect x="11" y="5.58582" width="2" height="7.41421" rx="1" transform="rotate(135 11 5.58582)"/>
  </symbol>
  <symbol id="icon-404" width="900" height="327" viewBox="0 0 900 327">
    <path d="M167.58 6.48442H167.343L167.193 6.66854L0.612419 211.059L0.5 211.197V211.375V256.028V256.528H1H170.301V320.016V320.516H170.801H221.42H221.92V320.016V256.528H275.259H275.759V256.028V210.455V209.955H275.259H221.92V6.98442V6.48442H221.42H167.58ZM791.321 6.48442H791.084L790.934 6.66854L624.353 211.059L624.241 211.197V211.375V256.028V256.528H624.741H794.042V320.016V320.516H794.542H845.161H845.661V320.016V256.528H899H899.5V256.028V210.455V209.955H899H845.661V6.98442V6.48442H845.161H791.321ZM60.4932 209.955L170.301 75.1393V209.955H60.4932ZM451.233 0.5C402.551 0.5 367.311 18.2797 344.254 47.588C321.212 76.8784 310.382 117.626 310.382 163.5C310.382 209.374 321.212 250.122 344.254 279.412C367.311 308.72 402.551 326.5 451.233 326.5C499.916 326.5 535.156 308.72 558.212 279.412C581.254 250.122 592.084 209.374 592.084 163.5C592.084 117.626 581.254 76.8784 558.212 47.588C535.156 18.2797 499.916 0.5 451.233 0.5ZM451.233 49.3753C481.014 49.3753 502.709 59.7939 516.979 79.2086C531.269 98.6506 538.165 127.183 538.165 163.5C538.165 199.817 531.269 228.349 516.979 247.791C502.709 267.206 481.014 277.625 451.233 277.625C421.222 277.625 399.527 267.205 385.315 247.792C371.082 228.351 364.302 199.819 364.302 163.5C364.302 127.181 371.082 98.6493 385.315 79.2079C399.527 59.7946 421.222 49.3753 451.233 49.3753ZM684.234 209.955L794.042 75.1393V209.955H684.234Z" stroke="#0052C8"/>
  </symbol>
  <symbol id="icon-logo" width="164" height="60" viewBox="0 0 164 60">
    <path d="M6.08479 57.9083C4.7862 59.8722 2.8367 59.9634 0 59.9425C2.70893 58.3929 4.23447 57.4397 4.61833 53.9248C3.96582 55.7254 2.56645 56.6161 1.0377 56.6928C3.8891 52.8532 3.99469 51.0031 4.44885 45.7577C4.71269 49.5492 5.40021 50.7807 6.23342 51.9978C7.82151 54.3213 8.94742 57.0192 9.17918 59.9441C8.37324 58.564 7.10351 58.0123 6.08479 57.9083ZM41.6235 44.8716C39.8742 44.8398 38.5788 45.2634 37.6432 45.7943C38.2861 46.0983 39.0105 47.0306 39.2121 47.7214C35.038 46.5524 32.0925 48.4538 27.1318 49.1384C24.5955 49.5717 18.9055 49.5845 14.8307 46.8756C17.7508 47.739 20.356 47.264 23.0058 45.681C22.9962 46.45 22.7019 47.1555 22.2285 47.5471C24.6867 47.3888 25.958 47.0242 27.5204 44.8956C27.7843 45.4409 27.9537 46.2838 27.6707 46.9347C30.1941 46.4597 31.2625 45.1595 31.8461 43.7299C32.2476 44.1089 32.4459 44.7101 32.4873 45.3947C34.8733 43.9026 38.6202 43.2966 41.6235 44.8716ZM27.3555 25.6765C25.4798 26.7081 24.5683 27.9666 24.0756 29.2636C23.5896 30.5381 23.5399 32.1358 23.6728 33.6119C22.6733 33.3208 22.0799 32.174 22.2782 31.4657C21.5634 31.9776 18.6128 32.0559 16.932 30.332C20.1194 29.9594 21.3843 29.0716 22.9866 27.8674C24.2932 26.884 25.491 26.0173 27.3555 25.6765ZM19.051 37.8146L20.962 38.6571L20.5877 39.5577L19.6011 39.1466L20.0504 40.1926L19.4923 40.4211L19.0846 39.361L18.6671 40.3588L17.7796 39.9798L18.5457 38.0145L18.0723 36.8549L17.3191 37.8448L17.5383 39.9477L16.5818 40.0581L16.4444 38.9867L15.7711 39.8966L15.2944 39.5256L16.0015 38.6414L14.9427 38.7804L14.8194 37.8114L16.8857 37.5058L17.6294 36.5128L16.4107 36.3449L14.7347 37.5938L14.1367 36.8167L14.9972 36.1562L13.8761 36.0217L13.9576 35.4221L15.0707 35.5948L14.4182 34.7375L15.1985 34.138L16.4842 35.7948L17.7045 35.9626L17.2488 34.8065L15.3394 33.9509L15.7152 33.0506L16.697 33.471L16.2493 32.4285L16.809 32.1997L17.2151 33.2601L17.6326 32.262L18.5217 32.641L17.7556 34.5953L18.2306 35.7563L18.9823 34.776L18.7505 32.6731L19.7083 32.5483L19.8459 33.6215L20.519 32.7113L20.9973 33.0824L20.2889 33.9669L21.3587 33.8292L21.4819 34.7969L19.406 35.1022L18.6703 36.0952L19.8906 36.2634L21.5811 35.0174L22.163 35.806L21.3076 36.4537L22.4268 36.5879L22.3469 37.1877L21.229 37.0148L21.8831 37.8833L21.1157 38.4716L19.8171 36.8151L18.5968 36.6469L19.051 37.8146ZM13.7898 15.824L13.793 15.8272L13.8793 15.5393L15.2033 11.3767L16.1052 11.6727L15.6 13.2046L16.9913 12.7456L16.9977 13.6203L15.3169 14.0776L14.6294 16.1023L16.6858 15.6144L17.3126 13.9769L18.1667 14.0696L17.5829 15.4244L19.1213 15.0739L19.3405 16.0528L17.7732 16.3661L18.8606 17.3495L18.1202 17.7943L16.8825 16.5532L14.8037 16.9579L16.2509 18.5204L17.9732 18.2517L18.3121 19.0496L16.8553 19.2127L17.9301 20.3945L17.199 21.063L16.1501 19.8492L15.8478 21.2884L15.0961 20.8743L15.5457 19.1632L14.1608 17.5575L13.5401 19.6046L14.631 20.9879L14.1207 21.677L13.2605 20.492L12.7935 21.997L11.9122 21.7329L13.7898 15.824ZM9.81725 28.6768C19.4875 30.5365 26.5177 26.4539 27.5859 19.0192C27.8353 17.2872 27.7746 15.5313 27.4611 13.8026C27.7185 13.8234 29.0123 14.068 30.3221 13.8761C31.6319 13.6844 32.5114 13.0686 32.5114 13.0686C30.4675 12.6176 27.8401 11.5141 26.9893 10.1902C26.9893 10.1902 28.6701 10.1452 30.0775 9.10754C31.4863 8.07118 32.2123 6.49271 32.2123 6.49271C32.2123 6.49271 29.0331 7.89048 26.8981 6.89902C24.7634 5.90596 24.445 4.95915 24.445 4.95915C24.445 4.95915 25.7388 5.1861 27.0901 4.53226C28.4432 3.87815 28.8062 2.48038 28.8062 2.48038C24.1764 3.94043 21.6337 2.2406 18.9312 0.0943642C18.8927 0.0622864 18.8526 0.0304756 18.8128 3.8147e-06C18.8128 3.8147e-06 19.7211 2.25343 19.0846 4.6889C18.4498 7.12437 15.8144 9.46894 15.8144 9.46894C15.8144 9.46894 17.4728 9.31043 18.7679 8.56517C20.0617 7.82178 21.1077 6.62396 21.1077 6.62396C20.8612 8.98271 19.2766 10.3243 17.0857 11.6326C17.0857 11.6326 19.5147 11.5877 21.0373 10.6857C22.5581 9.78544 23.1291 9.17464 23.1291 9.17464C23.1291 9.17464 23.0379 10.9785 22.1742 12.218C21.3108 13.4588 19.3581 14.2936 19.3581 14.2936C20.3897 14.5126 22.0336 14.3623 23.6503 13.5933C23.6503 13.5933 23.4215 14.9924 21.9695 16.8636C20.5158 18.7329 18.6992 19.7933 18.6992 19.7933C20.6134 20.1977 22.3087 19.6174 23.3785 18.8914C23.3785 18.8914 21.7537 21.2373 18.8911 22.6367C16.897 23.6105 13.5802 23.9959 11.6916 23.8551C11.4981 23.8409 11.3957 23.7735 11.3957 23.7735C12.392 25.136 14.546 25.9676 16.1996 25.6559C16.1996 25.6559 15.5968 26.7944 13.8488 27.618C12.0993 28.44 9.81725 28.6768 9.81725 28.6768ZM16.1678 30.4007C16.1678 30.4007 14.2311 29.9433 12.6879 30.8517C11.1463 31.76 10.6537 33.4392 10.6537 33.4392C9.80923 32.2077 9.68306 30.7859 9.67183 29.139C9.67183 29.139 8.72502 31.293 8.57158 32.9562C8.42911 34.4769 8.79211 36.153 9.81244 37.3091C9.81244 37.3091 9.78384 37.3027 9.73412 37.2882C8.71058 36.999 8.09978 36.4791 7.39301 35.6796C8.18933 38.1487 10.6505 40.4596 14.7013 40.8002C10.0843 36.9846 13.075 31.8351 16.1678 30.4007ZM6.9164 38.0207C8.97602 41.2287 12.8959 42.361 16.6379 42.0859C27.127 41.3166 34.4176 29.988 44.6604 31.2259C50.6206 31.9471 52.5156 34.4673 52.5156 34.4673L48.724 34.3777C48.724 34.3777 48.8598 35.0752 49.1975 35.8635C49.5364 36.6502 50.1697 37.3492 50.1697 37.3492C46.8673 37.4002 44.1568 36.5448 41.4126 34.7375C41.4126 34.7375 41.3439 35.5708 41.6379 36.4024C41.9306 37.2356 42.3145 37.6178 42.3145 37.6178C42.3145 37.6178 40.4179 37.8881 38.8841 37.709C37.3489 37.5283 36.2663 36.8087 36.2663 36.8087C36.2663 36.8087 36.2647 37.3732 36.7397 37.9568C37.2147 38.5422 37.9806 38.7884 37.9806 38.7884C37.7983 38.9402 37.4818 39.1594 37.2513 39.2858C35.3548 40.338 33.5109 40.5954 31.3585 40.6162C30.1941 40.6275 29.0906 40.4291 29.0906 40.4291C29.9318 41.4078 30.653 41.7197 31.6605 41.8493C31.6605 41.8493 30.7634 42.2249 29.6218 42.5657C27.8003 43.1062 25.9708 43.295 24.0997 42.852C23.8086 42.7831 23.6487 42.7288 23.6487 42.7288C24.2627 43.4612 25.3678 43.9202 26.1547 43.9202C26.1547 43.9202 25.9388 44.013 25.5854 44.1472C23.0187 45.126 20.7861 45.5577 17.778 44.9277C16.7195 44.7069 16.0766 44.3936 16.0766 44.3936C16.2875 44.7646 16.5067 44.9836 16.8745 45.2044C17.284 45.4474 18.1635 45.6762 18.1635 45.6762C12.288 46.6053 8.16687 43.6914 6.9164 38.0207ZM6.09762 40.5427C7.35291 43.3717 9.14256 45.5019 11.9025 46.9937C18.8417 50.7471 24.333 50.237 23.7158 59.9089C23.7158 59.9089 22.6829 58.8725 21.3044 58.1737C19.9243 57.475 18.7088 57.3389 18.7088 57.3389C17.9459 58.7894 17.0026 59.4964 15.3089 59.9984C15.3089 59.9984 15.859 58.8965 15.8256 57.6573C15.7903 56.4162 15.3297 55.5512 15.3297 55.5512C14.6532 57.822 12.3808 59.4932 10.0252 59.9538C10.0252 59.9538 11.3572 58.2569 11.9202 56.5218C12.4831 54.785 12.4144 53.1908 12.4144 53.1908C11.6868 54.3357 10.9143 54.9641 9.47509 55.4007C9.47509 55.4007 9.98031 53.6655 9.7277 51.8393C9.47509 50.013 8.53149 48.9975 8.53149 48.9975C7.82151 49.8339 7.42322 50.608 7.08587 51.793C7.08587 51.793 5.24838 48.1405 5.4772 44.8045C5.70735 41.4671 6.09762 40.5427 6.09762 40.5427ZM21.2116 3.8147e-06C21.2116 3.8147e-06 23.2921 1.80381 25.8701 1.75757C28.4464 1.71266 30.3908 1.26171 30.3908 1.26171C30.3908 1.26171 30.5493 2.97463 29.6889 4.0813C28.83 5.18609 27.7233 5.54617 27.7233 5.54617C27.7233 5.54617 28.899 6.08666 30.5269 5.5908C32.1548 5.09494 34.2786 2.93133 34.2786 2.93133C34.5328 3.50551 34.675 5.23421 34.3473 6.44326C34.3473 6.44326 36.8325 5.61486 38.2781 3.49589C39.7253 1.37532 40.0643 3.8147e-06 40.0643 3.8147e-06H21.2116ZM46.194 15.0245C46.194 15.0245 45.2618 19.9211 41.0111 22.5821C37.4288 24.8243 33.0535 25.4223 33.0535 25.4223C35.5962 26.4603 36.5924 28.2898 37.122 30.8787C37.122 30.8787 37.7103 29.9767 37.7328 28.715C37.7552 27.4533 37.3043 26.7305 37.3043 26.7305C38.7723 27.4023 39.3799 28.2737 40.0276 29.796C40.0276 29.796 40.469 29.0077 40.469 27.5429C40.469 26.0764 40.106 25.197 40.106 25.197C41.1086 25.2833 41.8012 26.4635 42.0426 27.5637C42.1209 27.9235 47.5645 23.6888 46.194 15.0245ZM47.5391 19.2512C47.7085 21.7251 46.7986 25.664 42.1145 29.78C42.1145 29.78 44.7708 29.5499 47.4575 30.0952C50.1456 30.6389 51.6073 31.6512 51.6073 31.6512C50.9499 29.9976 48.5928 27.9075 47.6749 27.5637C48.7208 25.3472 48.4169 22.0689 47.5391 19.2512ZM33.7555 23.7784C32.756 20.2186 32.6106 15.7168 33.1366 11.9699C31.9949 11.8245 30.7907 11.4326 29.8519 10.7162C29.8519 10.7162 29.9768 10.6954 30.1286 10.6636C31.8894 10.2957 33.3189 8.8691 33.9939 7.24439C34.0035 8.74614 34.3681 10.489 35.4604 11.6037C36.8533 13.0271 39.7558 13.2701 39.7558 13.2701C39.1768 14.1624 38.4315 14.759 37.5874 15.3698C37.5056 15.4289 37.0626 15.7184 37.0626 15.7184C40.8143 16.6187 42.6502 15.5345 45.5193 13.1343C45.5193 13.1343 45.4856 17.4185 41.9386 20.4121C38.3933 23.4041 33.7555 23.7784 33.7555 23.7784ZM41.2271 3.8147e-06C41.2271 3.8147e-06 42.9814 5.54135 43.6147 7.50501C44.2463 9.46894 44.3869 11.4326 43.3682 12.9408C42.3498 14.4487 39.3655 14.9044 39.3655 14.9044C40.5296 13.8873 41.5419 12.8047 41.7531 11.2214C41.7531 11.2214 40.8047 11.8534 38.558 11.5029C36.3112 11.1527 35.1885 8.36388 35.1885 8.36388C35.1885 8.36388 37.9263 7.22353 39.4358 5.0503C40.9456 2.87546 41.2271 3.8147e-06 41.2271 3.8147e-06ZM45.9702 59.9586C42.292 60.1264 39.9875 59.8113 38.5596 58.5111C38.1901 59.1476 37.7584 59.5218 37.0867 59.8928V50.6767C38.0829 55.6725 39.9188 59.3267 45.9702 59.9586ZM60.753 59.9425C58.9636 59.6081 57.8011 58.1291 57.5354 56.9503C57.0013 58.2745 56.1379 59.2964 54.2523 59.9457C54.796 59.066 55.1096 58.3544 55.0775 56.4755C52.2854 59.8434 51.1069 59.5908 47.1857 59.9457C54.0125 58.1513 55.2855 51.4172 53.344 46.6965C53.117 48.0381 52.4405 48.6553 52.4405 48.6553C52.4148 45.6152 51.2221 43.2182 49.6163 42.1386C50.2881 44.0785 49.8099 45.5674 49.8323 45.8505C48.9224 43.319 47.5471 41.4575 45.4169 40.8897C46.0309 42.5321 45.7574 43.6804 45.4506 44.5214C44.3519 42.0474 42.8133 40.925 40.8464 40.8624C41.3612 41.3775 41.7291 42.257 41.8012 42.9384C39.9702 41.7197 37.9343 41.5949 35.745 42.3963C39.3382 39.5032 43.4529 38.79 46.7473 39.1305C48.1691 39.2778 50.2736 39.7336 51.2189 38.2254C51.9385 37.0789 51.6762 35.5389 51.6762 35.5389C51.6762 35.5389 53.3376 36.6344 53.229 39.0955C53.1809 40.1829 52.9411 40.9648 52.6899 41.4989C57.1005 45.265 58.271 52.8821 60.753 59.9425ZM42.6727 53.1539L41.9787 55.1705L40.9424 55.0938L41.6045 53.4402L39.7494 53.9232L39.4454 52.7524L41.323 52.3079L39.9718 51.1662L40.8464 50.5984L42.3912 52.044L44.8988 51.4715L43.0915 49.6324L41.0255 50.0291L40.581 49.0793L42.3129 48.8328L40.9536 47.4305L41.8234 46.6195L43.1429 48.0221L43.4468 46.2645L44.3661 46.7556L43.901 48.8232L45.6486 50.7201L46.3124 48.2236L44.9355 46.6195L45.5257 45.7481L46.6099 47.1539L47.1119 45.2731L48.2667 45.6088L47.7214 47.4768L49.3798 46.866L49.4244 47.9213L47.4158 48.5449L46.669 51.0157L49.1301 50.341L49.8195 48.3389L50.8542 48.4156L50.2066 50.0724L52.0486 49.5861L52.3525 50.7567L50.4752 51.2012L51.8265 52.3432L50.9515 52.9109L49.4084 51.465L46.9154 52.0408L48.7273 53.8655L50.7933 53.4675L51.2362 54.4156L49.4851 54.6746L50.8302 56.0548L49.9761 56.8928L48.6586 55.4744L48.3562 57.224L47.4303 56.7554L47.9021 54.6698L46.1654 52.7925L45.5016 55.2889L46.8737 56.912L46.2867 57.7629L45.1977 56.3715L44.6828 58.2026L43.5283 57.9019L44.0849 56.05L42.4345 56.645L42.3832 55.6086L44.3982 54.969L45.145 52.495L42.6727 53.1539Z" />
    <path d="M127.461 9.60277V14.1572C127.461 15.702 126.564 16.7079 124.982 16.7079H124.747C124.747 16.6953 125.695 15.6413 125.695 14.154V7.9957H131.988V16.5833H130.149V9.60277H127.461ZM88.228 9.60277V14.1572C88.228 15.702 87.3309 16.7079 85.7492 16.7079H85.5126C85.5126 16.6953 86.4624 15.6413 86.4624 14.154V7.9957H92.7536V16.5833H90.9163V9.60277H88.228ZM96.0543 12.9244L95.637 13.3689V16.5833H93.8444V7.9957H95.637V11.0997L98.8081 7.9957H101.25L97.3914 11.5889L101.324 16.5833H98.9618L96.0543 12.9244ZM112.11 9.60277V16.5833H110.271V7.9957H116.031V9.60277H112.11ZM145.648 12.9099H142.306V16.5833H140.467V7.9957H142.306V11.3507H145.648V7.9957H147.488V16.5833H145.648V12.9099ZM77.4687 13.34L76.3011 16.5833H74.2383L78.6152 4.97001H80.6575L84.873 16.5833H82.7203L81.612 13.34H77.4687ZM80.9085 11.5346L79.5653 7.53673L78.1068 11.5346H80.9085ZM105.352 7.76047C106.152 7.76047 106.916 7.94919 107.575 8.41778C108.184 8.8527 108.635 9.42207 108.931 10.1096C109.222 10.8022 109.366 11.5314 109.366 12.2815C109.366 13.0348 109.224 13.7608 108.931 14.4531C108.635 15.1409 108.184 15.71 107.575 16.1436C106.916 16.6119 106.152 16.8006 105.352 16.8006C104.548 16.8006 103.785 16.6135 103.126 16.1436C102.515 15.71 102.063 15.1423 101.767 14.4531C101.474 13.7608 101.33 13.0348 101.33 12.2815C101.33 11.5314 101.474 10.8022 101.767 10.1096C102.063 9.42047 102.514 8.85109 103.126 8.41778C103.785 7.94758 104.548 7.76047 105.352 7.76047ZM105.352 15.1487C105.821 15.1487 106.267 15.0369 106.612 14.7073C106.938 14.3957 107.159 14.0262 107.284 13.5927C107.407 13.1658 107.477 12.7244 107.477 12.2799C107.477 11.8354 107.405 11.394 107.284 10.9685C107.159 10.5352 106.938 10.1641 106.612 9.85217C106.267 9.52285 105.821 9.41084 105.352 9.41084C104.88 9.41084 104.428 9.52285 104.084 9.85698C103.761 10.1689 103.539 10.54 103.414 10.9717C103.291 11.3954 103.219 11.837 103.219 12.2799C103.219 12.7228 103.291 13.1642 103.414 13.5894C103.539 14.0198 103.761 14.3908 104.084 14.7041C104.428 15.0369 104.88 15.1487 105.352 15.1487ZM120.482 7.76047C121.283 7.76047 122.048 7.94919 122.703 8.41778C123.314 8.8527 123.765 9.42207 124.061 10.1096C124.355 10.8022 124.496 11.5314 124.496 12.2815C124.496 13.0348 124.355 13.7608 124.061 14.4531C123.765 15.1409 123.314 15.71 122.703 16.1436C122.048 16.6119 121.283 16.8006 120.482 16.8006C119.679 16.8006 118.915 16.6135 118.258 16.1436C117.645 15.71 117.194 15.1423 116.897 14.4531C116.604 13.7608 116.462 13.0348 116.462 12.2815C116.462 11.5314 116.606 10.8022 116.897 10.1096C117.192 9.42047 117.643 8.85109 118.256 8.41778C118.915 7.94758 119.679 7.76047 120.482 7.76047ZM120.482 15.1487C120.951 15.1487 121.397 15.0369 121.742 14.7073C122.068 14.3957 122.291 14.0262 122.415 13.5927C122.537 13.1658 122.609 12.7244 122.609 12.2799C122.609 11.8354 122.537 11.394 122.415 10.9685C122.291 10.5352 122.068 10.1641 121.742 9.85217C121.397 9.52285 120.951 9.41084 120.482 9.41084C120.01 9.41084 119.559 9.52285 119.215 9.85698C118.891 10.1689 118.669 10.54 118.544 10.9717C118.422 11.3954 118.349 11.837 118.349 12.2799C118.349 12.7228 118.422 13.1642 118.544 13.5894C118.669 14.0198 118.891 14.3908 119.215 14.7041C119.559 15.0369 120.01 15.1487 120.482 15.1487ZM134.86 11.4098H136.381C138.129 11.4098 139.668 11.984 139.668 13.9573C139.668 14.4275 139.56 14.8736 139.322 15.2783C139.069 15.7164 138.671 16.0236 138.219 16.2377C137.654 16.5018 136.999 16.5833 136.381 16.5833H133.02V7.9957H134.86V11.4098ZM134.86 14.976H136.365C136.703 14.976 137.242 14.9458 137.52 14.7266C137.758 14.5379 137.811 14.2133 137.811 13.9271C137.811 13.6536 137.75 13.3737 137.515 13.2059C137.227 13.0027 136.723 12.9706 136.381 12.9706H134.86V14.976ZM153.918 15.7421C153.633 16.0011 153.32 16.2251 152.981 16.4122C152.423 16.7191 151.757 16.8135 151.127 16.8135C150.63 16.8135 150.145 16.7191 149.699 16.4938C149.28 16.2826 148.943 15.9771 148.698 15.5774C148.45 15.1679 148.34 14.7138 148.34 14.2371C148.34 13.6119 148.537 13.0361 148.876 12.5132C149.333 11.8081 150.235 11.5523 151.023 11.4547L153.285 11.1764C153.699 11.1395 153.787 10.8263 153.787 10.4536C153.787 9.50681 152.883 9.36781 152.108 9.36781C151.729 9.36781 151.159 9.41405 150.897 9.72921C150.657 10.0187 150.531 10.3641 150.478 10.7335L150.448 10.9348H148.74L148.746 10.6918C148.773 9.82036 149.036 8.99678 149.755 8.45628C150.488 7.91257 151.45 7.76047 152.341 7.76047C152.765 7.76047 153.198 7.83237 153.609 7.92673C154.122 8.04676 154.572 8.29455 154.96 8.64633C155.418 9.06548 155.592 9.63645 155.594 10.2441V16.7448L155.346 16.7352C154.956 16.7175 154.502 16.6344 154.228 16.3272C154.079 16.1562 153.98 15.9549 153.918 15.7421ZM153.757 12.5852C153.638 12.6269 153.52 12.6589 153.411 12.6843C152.888 12.8092 152.301 12.8811 151.767 12.9498C151.501 12.9883 151.233 13.0409 150.975 13.1195C150.766 13.185 150.587 13.297 150.433 13.4504C150.278 13.6087 150.229 13.8151 150.229 14.0326C150.229 14.8704 150.649 15.2064 151.469 15.2064C151.861 15.2064 152.236 15.1297 152.594 14.9744C152.927 14.8322 153.221 14.6306 153.451 14.3523C153.643 14.1142 153.757 13.8471 153.757 13.5384V12.5852ZM158.794 13.0794C158.586 13.0219 158.384 12.926 158.201 12.814C157.833 12.59 157.542 12.2831 157.313 11.9201C157.063 11.5202 156.945 11.0757 156.945 10.6022C156.945 9.82357 157.209 9.14701 157.834 8.66398C158.493 8.15074 159.347 7.9957 160.166 7.9957H163.873V16.5833H162.032V13.169H160.913L158.5 16.5833H156.237L158.794 13.0794ZM162.032 9.60277H160.167C159.453 9.60277 158.88 9.7947 158.88 10.6022C158.88 11.413 159.448 11.6097 160.167 11.6097H162.032V9.60277Z" />
    <path d="M82.742 26.2459C82.5998 25.5774 82.2991 24.9377 81.6803 24.5923C81.1093 24.2726 80.495 24.1205 79.8396 24.1205C79.2189 24.1205 78.6321 24.2662 78.1012 24.5907C77.5479 24.9249 77.156 25.4159 76.8794 25.9933C76.5356 26.7081 76.422 27.5205 76.422 28.3072C76.422 29.417 76.6027 30.6245 77.252 31.5552C77.8644 32.4411 78.8543 32.7114 79.8922 32.7114C80.2857 32.7114 80.6696 32.6218 81.0342 32.4764C81.4707 32.3053 81.8273 31.9789 82.1136 31.6159C82.5103 31.1203 82.7244 30.4582 82.8476 29.8442L82.8858 29.6539H84.8161L84.7763 29.9241C84.6177 31.0003 84.2644 32.1198 83.4905 32.9193C82.9324 33.4999 82.2558 34.0148 81.4675 34.2372C80.8837 34.4002 80.2649 34.517 79.6557 34.517C78.9791 34.517 78.3202 34.405 77.6869 34.1666C77.0456 33.9252 76.4827 33.5462 75.9999 33.0615C75.4546 32.5149 75.0804 31.8383 74.8197 31.1187C74.5014 30.2406 74.3926 29.2828 74.3926 28.3537C74.3926 27.5301 74.4998 26.7065 74.7636 25.9246C74.9972 25.216 75.3506 24.5635 75.8446 24.004C76.3244 23.4571 76.9066 23.0427 77.5749 22.7516C78.2932 22.4416 79.0622 22.3135 79.8428 22.3135C80.6966 22.3135 81.5522 22.4576 82.3199 22.8444C82.9834 23.1801 83.5544 23.641 83.9655 24.2646C84.3507 24.8433 84.5907 25.4798 84.6707 26.1692L84.7011 26.433H82.7819L82.742 26.2459ZM87.8658 31.1203L91.0148 25.6351H93.0487V34.2227H91.208V28.7183L87.9843 34.2227H86.0267V25.6351H87.8658V31.1203ZM104.942 31.1203L108.089 25.6351H110.123V34.2227H108.283V28.7183L105.059 34.2227H103.101V25.6351H104.942V31.1203ZM125.527 28.6384C125.37 27.6453 124.863 27.1 123.83 27.1C123.184 27.1 122.662 27.3205 122.328 27.8867C121.959 28.5039 121.825 29.2093 121.825 29.9209C121.825 31.3187 122.14 32.8009 123.814 32.8009C124.235 32.8009 124.59 32.6507 124.892 32.3596C125.252 32.0174 125.439 31.5504 125.53 31.069L125.565 30.8771H127.343L127.316 31.138C127.225 31.9966 126.899 32.7595 126.345 33.4216C125.698 34.1971 124.748 34.4529 123.768 34.4529C123.032 34.4529 122.322 34.293 121.698 33.8964C121.097 33.516 120.655 32.9928 120.35 32.3516C120.024 31.6624 119.891 30.9108 119.891 30.1511C119.891 29.3275 120.019 28.5087 120.334 27.7445C120.63 27.0374 121.089 26.4587 121.722 26.0299C122.41 25.5694 123.214 25.3999 124.032 25.3999C124.662 25.3999 125.289 25.5215 125.826 25.8605C126.294 26.158 126.662 26.5547 126.905 27.0535C127.14 27.5365 127.276 28.0481 127.318 28.5854L127.337 28.8383H125.559L125.527 28.6384ZM130.503 30.5638L130.084 31.0083V34.2227H128.293V25.6351H130.084V28.7391L133.256 25.6351H135.698L131.839 29.2283L135.771 34.2227H133.409L130.503 30.5638ZM96.06 26.3692C96.1033 26.3323 96.1479 26.294 96.1944 26.2588C96.4663 26.0412 96.7814 25.8925 97.114 25.7934C97.5232 25.6701 97.979 25.6351 98.4062 25.6351C99.1562 25.6351 99.8534 25.8335 100.461 26.278C101.045 26.7097 101.476 27.2695 101.766 27.9348C102.059 28.6063 102.206 29.313 102.206 30.0455C102.206 30.7827 102.064 31.4962 101.763 32.1709C101.459 32.8522 100.989 33.4024 100.37 33.818C99.6823 34.2786 98.8809 34.4529 98.0637 34.4529C97.5906 34.4529 97.1316 34.3585 96.6932 34.1859C96.2041 33.9971 95.7817 33.687 95.4219 33.3096C94.9886 32.8587 94.6959 32.2925 94.4927 31.7071C94.2353 30.9634 94.1538 30.143 94.1538 29.3596C94.1538 28.2673 94.2273 27.1703 94.5425 26.1179C94.8384 25.1473 95.3468 24.3125 96.2137 23.7543C97.4099 22.9853 98.8186 22.9339 100.196 22.9372C100.469 22.9372 100.741 22.9404 101.011 22.9404H101.248V23.1756C101.248 23.8984 100.576 24.4646 99.8839 24.4646C98.8809 24.463 97.8416 24.5349 97.0052 25.1441C96.5687 25.4624 96.2663 25.8909 96.06 26.3692ZM100.317 30.0455C100.317 29.6475 100.236 29.2395 100.127 28.8589C100.004 28.4304 99.7767 28.0594 99.4599 27.7445C99.1177 27.402 98.6652 27.2855 98.1902 27.2855C97.7136 27.2855 97.261 27.402 96.9156 27.7445C96.6005 28.0594 96.3735 28.4288 96.2503 28.8589C96.1399 29.2395 96.06 29.6475 96.06 30.0455C96.06 30.4438 96.1399 30.8485 96.2503 31.2291C96.3735 31.6576 96.6005 32.0287 96.9156 32.3435C97.261 32.6876 97.7136 32.8009 98.1902 32.8009C98.6652 32.8009 99.1177 32.686 99.4599 32.3435C99.7767 32.0287 100.004 31.6576 100.127 31.2291C100.237 30.8485 100.317 30.4438 100.317 30.0455ZM113.093 26.3897C113.275 26.1901 113.475 26.0045 113.693 25.8396C114.153 25.4975 114.755 25.3999 115.316 25.3999C116.018 25.3999 116.69 25.5678 117.27 25.9693C117.841 26.3627 118.249 26.892 118.522 27.5253C118.82 28.2115 118.944 28.9423 118.944 29.6857C118.944 30.4374 118.828 31.1746 118.593 31.8894C118.353 32.606 117.953 33.2168 117.377 33.7076C116.742 34.2516 115.954 34.4529 115.129 34.4529C114.631 34.4529 114.139 34.3585 113.701 34.1155C113.511 34.0084 113.333 33.8851 113.173 33.7397V37.4355H111.334V25.6351H113.093V26.3897ZM115.097 32.8009C115.49 32.8009 115.855 32.7033 116.162 32.4539C116.483 32.1917 116.691 31.8415 116.824 31.4497C116.995 30.9573 117.056 30.4245 117.056 29.9049C117.056 29.4555 117.019 29.0014 116.926 28.56C116.842 28.1601 116.648 27.8196 116.36 27.5285C116.026 27.1879 115.529 27.1 115.067 27.1C113.333 27.1 113.109 28.9516 113.109 30.3064C113.109 30.9618 113.218 31.7568 113.728 32.2254C114.118 32.5836 114.564 32.8009 115.097 32.8009ZM146.423 30.7188C146.214 30.6614 146.014 30.5654 145.832 30.4534C145.462 30.2294 145.173 29.9225 144.944 29.5595C144.693 29.1596 144.576 28.7151 144.576 28.2417C144.576 27.463 144.839 26.7864 145.462 26.3018C146.123 25.7902 146.977 25.6351 147.796 25.6351H151.501V34.2227H149.662V30.8084H148.544L146.131 34.2227H143.865L146.423 30.7188ZM149.662 27.2422H147.799C147.081 27.2422 146.508 27.4341 146.508 28.2417C146.508 29.0524 147.079 29.2476 147.799 29.2476H149.662V27.2422ZM141.292 33.3767C141.009 33.6373 140.697 33.8597 140.356 34.0468C139.798 34.3537 139.134 34.4497 138.504 34.4497C138.005 34.4497 137.521 34.3537 137.075 34.13C136.656 33.9188 136.318 33.6133 136.075 33.2136C135.827 32.8041 135.715 32.35 135.715 31.872C135.715 31.2481 135.914 30.671 136.251 30.1479C136.708 29.4443 137.61 29.1885 138.4 29.0909L140.66 28.811C141.076 28.7741 141.162 28.4609 141.162 28.0882C141.162 27.1414 140.258 27.0024 139.485 27.0024C139.106 27.0024 138.535 27.0503 138.271 27.3638C138.032 27.6533 137.906 28.0003 137.853 28.3681L137.825 28.5697H136.115L136.123 28.3264C136.15 27.4566 136.411 26.633 137.13 26.0925C137.863 25.5472 138.826 25.3967 139.718 25.3967C140.14 25.3967 140.574 25.4672 140.984 25.5629C141.498 25.6814 141.947 25.9292 142.336 26.2828C142.793 26.7001 142.966 27.2711 142.971 27.8787L142.969 34.381L142.723 34.3698C142.333 34.3537 141.875 34.269 141.603 33.9621C141.455 33.7926 141.355 33.5911 141.292 33.3767ZM141.13 30.22C141.013 30.2615 140.895 30.2935 140.786 30.3205C140.263 30.4454 139.677 30.5157 139.144 30.5846C138.877 30.6229 138.61 30.6758 138.351 30.7557C138.141 30.8196 137.962 30.9332 137.81 31.0867C137.654 31.2449 137.605 31.4513 137.605 31.6689C137.605 32.5053 138.026 32.8426 138.847 32.8426C139.237 32.8426 139.611 32.7643 139.969 32.6106C140.303 32.4684 140.596 32.2668 140.825 31.9886C141.02 31.7504 141.13 31.4833 141.13 31.1746V30.22Z" />
    <path d="M121.448 47.8074C121.333 47.8491 121.213 47.8809 121.104 47.9065C120.581 48.033 119.994 48.1033 119.462 48.172C119.193 48.2105 118.926 48.2631 118.669 48.3431C118.459 48.4069 118.28 48.5206 118.126 48.6727C117.971 48.8325 117.922 49.0389 117.922 49.2546C117.922 50.0926 118.342 50.43 119.164 50.43C119.555 50.43 119.927 50.3516 120.287 50.1966C120.62 50.0541 120.912 49.8544 121.143 49.5746C121.336 49.3361 121.448 49.0707 121.448 48.7622V47.8074ZM121.61 50.9643C121.326 51.2233 121.013 51.4471 120.673 51.6342C120.116 51.9413 119.451 52.0357 118.821 52.0357C118.323 52.0357 117.839 51.9413 117.392 51.7157C116.974 51.5064 116.636 51.2009 116.391 50.7994C116.142 50.3901 116.033 49.936 116.033 49.4593C116.033 48.8357 116.23 48.2583 116.569 47.7355C117.026 47.0303 117.928 46.7758 118.717 46.6782L120.978 46.3984C121.392 46.3617 121.479 46.0482 121.479 45.6756C121.479 44.729 120.575 44.5897 119.802 44.5897C119.423 44.5897 118.851 44.6363 118.589 44.9512C118.35 45.2406 118.226 45.5876 118.171 45.9554L118.142 46.157H116.433L116.439 45.914C116.468 45.0439 116.729 44.2203 117.449 43.6798C118.181 43.1345 119.144 42.9827 120.034 42.9827C120.458 42.9827 120.892 43.0546 121.303 43.1489C121.814 43.269 122.265 43.5168 122.654 43.8701C123.111 44.2877 123.284 44.8584 123.289 45.4663L123.287 51.9686L123.039 51.9574C122.649 51.9397 122.193 51.8566 121.921 51.5494C121.773 51.3784 121.672 51.1768 121.61 50.9643ZM86.4833 50.3965C86.8768 50.3965 87.2398 50.2974 87.5485 50.048C87.8698 49.7855 88.0762 49.4353 88.2104 49.045C88.3815 48.551 88.4408 48.0185 88.4408 47.5002C88.4408 47.0493 88.4023 46.5951 88.3095 46.1538C88.2264 45.7539 88.0345 45.4133 87.7466 45.1222C87.4092 44.7817 86.9137 44.6937 86.4515 44.6937C84.7196 44.6937 84.494 46.5457 84.494 47.9001C84.494 48.5558 84.6028 49.3505 85.1128 49.8191C85.5015 50.1773 85.9492 50.3965 86.4833 50.3965ZM84.4779 43.9838C84.6618 43.7838 84.8618 43.5983 85.0778 43.4336C85.5383 43.0899 86.1395 42.9939 86.7009 42.9939C87.4028 42.9939 88.0746 43.1634 88.6552 43.563C89.2259 43.9565 89.6338 44.4858 89.9089 45.119C90.2048 45.8052 90.3293 46.536 90.3293 47.2797C90.3293 48.0298 90.2125 48.7686 89.9776 49.4818C89.7394 50.1998 89.3395 50.8122 88.7637 51.3017C88.1272 51.8454 87.3389 52.0469 86.5154 52.0469C86.0163 52.0469 85.5255 51.9526 85.0874 51.7093C84.8955 51.6024 84.718 51.4791 84.5578 51.3351V55.0293H82.7188V43.2289H84.4779V43.9838ZM113.214 44.8362H109.872V51.8165H108.031V43.2289H115.053V51.8165H113.214V44.8362ZM104.896 44.8362H101.553V51.8165H99.7136V43.2289H106.736V51.8165H104.896V44.8362ZM93.7245 51.7831L90.6237 43.2289H92.6913L94.6825 49.3233L96.7197 43.2289H98.7347L98.6213 43.544C97.2698 47.3083 95.9776 51.2519 94.3195 54.8855L94.2553 55.0245H92.1909L93.7245 51.7831Z" />
    <path d="M77.5051 41.7369V51.8167H75.666V40.1298H82.6241V41.7369H77.5051Z" />
  </symbol>
</svg>
