<svg version="1.1"  xmlns="http://www.w3.org/2000/svg">
  <symbol id="icon-test" width="79" height="53" viewBox="0 0 79 53">
  </symbol>
  <symbol id="close-map-helper"  width="10" height="10" viewBox="0 0 10 10">
    <rect x="1.06055" width="12" height="1.5" rx="0.75" transform="rotate(45 1.06055 0)" fill="white"/>
    <rect x="9.5459" y="1.06055" width="12" height="1.5" rx="0.75" transform="rotate(135 9.5459 1.06055)" fill="white"/>
  </symbol>
  <symbol id="icon-logo-new" width="227" height="72" viewBox="0 0 227 72">
      <path d="M92.7129 23.2659L96.7714 7.65515H103.35L107.409 23.2659H104.687L103.637 19.2522H96.4799L95.4305 23.2659H92.7129ZM97.1033 16.7543H103.014L101.296 10.153H98.8208L97.1033 16.7543Z" />
      <path d="M107.584 23.2658L110.66 12.0051H115.988L119.064 23.2658H116.567L114.113 14.1667H112.53L110.077 23.2658H107.584Z" />
      <path d="M120.363 23.2658V12.0051H122.794V16.3551H124.579L127.879 12.0051H130.669L126.767 17.2476L131.005 23.2703H128.108L124.763 18.5212H122.798V23.2703H120.363V23.2658Z" />
      <path d="M137.065 23.5304C135.935 23.5304 134.912 23.2748 133.997 22.7591C133.083 22.2478 132.365 21.5393 131.845 20.6424C131.325 19.741 131.064 18.7454 131.064 17.6422C131.064 16.5435 131.325 15.5389 131.845 14.6331C132.365 13.7272 133.083 13.0186 133.997 12.5029C134.912 11.9917 135.935 11.7316 137.065 11.7316C138.208 11.7316 139.24 11.9872 140.155 12.5029C141.069 13.0141 141.787 13.7272 142.307 14.6331C142.827 15.5389 143.088 16.5435 143.088 17.6422C143.088 18.7409 142.827 19.741 142.307 20.6424C141.787 21.5437 141.069 22.2478 140.155 22.7591C139.24 23.2748 138.213 23.5304 137.065 23.5304ZM137.065 21.3688C137.733 21.3688 138.334 21.2119 138.872 20.9025C139.41 20.593 139.827 20.1535 140.132 19.5885C140.437 19.0234 140.59 18.3777 140.59 17.6467C140.59 16.9022 140.437 16.2475 140.132 15.6825C139.827 15.1174 139.406 14.6779 138.872 14.3685C138.338 14.059 137.733 13.9021 137.065 13.9021C136.41 13.9021 135.818 14.059 135.28 14.3685C134.746 14.6824 134.325 15.1174 134.02 15.6825C133.715 16.2475 133.562 16.9022 133.562 17.6467C133.562 18.3732 133.715 19.0234 134.02 19.5885C134.325 20.1535 134.746 20.593 135.28 20.9025C135.818 21.2119 136.41 21.3688 137.065 21.3688Z" />
      <path d="M145.008 23.2658V12.0051H153.125V14.1667H147.438V23.2658H145.008Z" />
      <path d="M159.856 23.5304C158.726 23.5304 157.703 23.2748 156.788 22.7591C155.874 22.2478 155.156 21.5393 154.636 20.6424C154.116 19.741 153.855 18.7454 153.855 17.6422C153.855 16.5435 154.116 15.5389 154.636 14.6331C155.156 13.7272 155.874 13.0186 156.788 12.5029C157.703 11.9917 158.726 11.7316 159.856 11.7316C160.999 11.7316 162.031 11.9872 162.946 12.5029C163.86 13.0141 164.578 13.7272 165.098 14.6331C165.618 15.5389 165.879 16.5435 165.879 17.6422C165.879 18.7409 165.618 19.741 165.098 20.6424C164.578 21.5437 163.86 22.2478 162.946 22.7591C162.031 23.2748 161.004 23.5304 159.856 23.5304ZM159.856 21.3688C160.524 21.3688 161.125 21.2119 161.663 20.9025C162.201 20.593 162.618 20.1535 162.923 19.5885C163.228 19.0234 163.381 18.3777 163.381 17.6467C163.381 16.9022 163.228 16.2475 162.923 15.6825C162.618 15.1174 162.197 14.6779 161.663 14.3685C161.129 14.059 160.524 13.9021 159.856 13.9021C159.201 13.9021 158.609 14.059 158.071 14.3685C157.537 14.6824 157.116 15.1174 156.811 15.6825C156.506 16.2475 156.353 16.9022 156.353 17.6467C156.353 18.3732 156.506 19.0234 156.811 19.5885C157.116 20.1535 157.537 20.593 158.071 20.9025C158.609 21.2119 159.201 21.3688 159.856 21.3688Z" />
      <path d="M166.502 23.2658L169.578 12.0051H174.906L177.982 23.2658H175.484L173.031 14.1667H171.448L168.995 23.2658H166.502Z" />
      <path d="M179.281 23.2658V12.0051H181.712V15.6869H184.569C185.43 15.6869 186.196 15.8574 186.865 16.1982C187.533 16.539 188.049 17.0009 188.416 17.5794C188.78 18.1579 188.963 18.7902 188.963 19.4764C188.963 20.176 188.78 20.8128 188.416 21.3958C188.053 21.9788 187.537 22.4317 186.865 22.768C186.196 23.1044 185.43 23.2703 184.569 23.2703H179.281V23.2658ZM184.452 21.1446C185.075 21.1446 185.569 20.9877 185.923 20.6782C186.282 20.3643 186.457 19.9652 186.457 19.4719C186.457 18.9831 186.277 18.5795 185.923 18.2655C185.569 17.9516 185.075 17.7992 184.452 17.7992H181.707V21.1446H184.452Z" />
      <path d="M190.656 23.2658V12.0051H193.087V16.4224H198.616V12.0051H201.069V23.2658H198.616V18.584H193.087V23.2658H190.656Z" />
      <path d="M208.315 23.5304C207.346 23.5304 206.458 23.2793 205.651 22.7815C204.844 22.2837 204.198 21.5841 203.723 20.6872C203.247 19.7858 203.01 18.7723 203.01 17.6422C203.01 16.4986 203.247 15.4762 203.723 14.5748C204.198 13.6734 204.839 12.9783 205.651 12.4805C206.463 11.9827 207.351 11.7316 208.315 11.7316C209.015 11.7316 209.629 11.8482 210.154 12.0769C210.683 12.3056 211.109 12.5791 211.436 12.8931C211.764 13.207 211.979 13.4491 212.082 13.6285H212.149V12.0006H214.602V23.2613H212.149V21.6334H212.082C211.979 21.8263 211.764 22.0774 211.436 22.3824C211.109 22.6873 210.683 22.9564 210.154 23.1851C209.624 23.4183 209.015 23.5304 208.315 23.5304ZM208.804 21.3688C209.427 21.3688 209.997 21.2164 210.508 20.9114C211.019 20.6065 211.423 20.1715 211.714 19.6064C212.006 19.0414 212.149 18.3866 212.149 17.6422C212.149 16.8843 212.006 16.2206 211.714 15.6555C211.423 15.0905 211.024 14.6555 210.508 14.3505C209.997 14.0456 209.427 13.8931 208.804 13.8931C208.194 13.8931 207.638 14.0456 207.131 14.3505C206.624 14.6555 206.23 15.0905 205.938 15.6555C205.647 16.2206 205.503 16.8798 205.503 17.6422C205.503 18.3866 205.647 19.0414 205.938 19.6064C206.23 20.1715 206.624 20.6065 207.131 20.9114C207.638 21.2164 208.194 21.3688 208.804 21.3688Z" />
      <path d="M218.952 19.2073C218.356 18.9562 217.853 18.5436 217.445 17.9696C217.037 17.3956 216.831 16.696 216.831 15.8618C216.831 15.1353 217.01 14.4761 217.365 13.8886C217.723 13.3012 218.235 12.8393 218.903 12.5074C219.571 12.1711 220.36 12.0051 221.266 12.0051H226.616V23.2658H224.186V19.741H221.688C221.643 19.741 221.585 19.741 221.508 19.741C221.432 19.741 221.351 19.741 221.262 19.741L219.387 23.2658H216.643L218.952 19.2073ZM224.195 17.6467V14.1667H221.428C220.759 14.1667 220.244 14.3236 219.876 14.6331C219.513 14.947 219.329 15.3551 219.329 15.8618C219.329 16.4134 219.513 16.8484 219.876 17.1668C220.239 17.4852 220.755 17.6467 221.428 17.6467H224.195Z" />
      <path d="M101.676 43.9935C100.071 43.9935 98.6356 43.6392 97.371 42.9217C96.1064 42.2086 95.1153 41.222 94.3933 39.9664C93.6713 38.7107 93.3125 37.3025 93.3125 35.7419C93.3125 34.1813 93.6713 32.7732 94.3933 31.5175C95.1153 30.2618 96.1064 29.2752 97.371 28.5622C98.6356 27.8491 100.071 27.4904 101.676 27.4904C103.134 27.4904 104.398 27.7639 105.479 28.3021C106.555 28.8447 107.421 29.5532 108.067 30.4322C108.712 31.3112 109.183 32.2619 109.484 33.2889H106.762C106.403 32.3651 105.797 31.5848 104.945 30.948C104.089 30.3067 103.004 29.9883 101.676 29.9883C100.604 29.9883 99.6492 30.2349 98.8016 30.7237C97.954 31.2125 97.2903 31.8897 96.8149 32.7552C96.3396 33.6163 96.1019 34.6118 96.1019 35.7419C96.1019 36.8855 96.3351 37.89 96.806 38.7511C97.2723 39.6121 97.9316 40.2848 98.7792 40.7691C99.6267 41.2534 100.591 41.4956 101.676 41.4956C103.031 41.4956 104.143 41.1413 105.022 40.4372C105.901 39.7332 106.515 38.8721 106.874 37.8631H109.596C109.269 38.9484 108.766 39.9574 108.089 40.8857C107.412 41.814 106.533 42.5674 105.448 43.1369C104.362 43.7065 103.102 43.9935 101.676 43.9935Z" />
      <path d="M111.553 43.5494V32.2887H113.983V38.9348L113.916 40.0514H114.051L119.356 32.2932H122.011V43.5539H119.58V36.9078L119.647 35.7911H119.513L114.203 43.5539H111.553V43.5494Z" />
      <path d="M129.705 43.814C128.606 43.814 127.624 43.5583 126.763 43.0426C125.902 42.5269 125.229 41.7825 124.754 40.8004C124.279 39.8182 124.041 38.6523 124.041 37.2979V37.2755C124.041 35.1184 124.328 33.3515 124.898 31.9703C125.467 30.5891 126.306 29.5711 127.404 28.9163C128.503 28.2616 129.866 27.9342 131.485 27.9342H134.45V30.2079H131.66C130.01 30.2079 128.768 30.589 127.938 31.3559C127.104 32.1228 126.615 33.2843 126.467 34.8449H126.534C126.862 34.383 127.342 33.9883 127.974 33.661C128.606 33.3336 129.351 33.1721 130.216 33.1721C131.18 33.1721 132.059 33.4009 132.849 33.8538C133.638 34.3067 134.257 34.9346 134.71 35.7373C135.163 36.54 135.391 37.4325 135.391 38.4146C135.391 39.4415 135.154 40.3609 134.678 41.1815C134.203 41.9977 133.535 42.6435 132.669 43.1099C131.804 43.5763 130.822 43.814 129.705 43.814ZM129.705 41.6524C130.315 41.6524 130.862 41.5134 131.346 41.2398C131.831 40.9663 132.207 40.5806 132.485 40.0918C132.759 39.603 132.898 39.0424 132.898 38.4191C132.898 37.8092 132.759 37.262 132.485 36.7822C132.212 36.3024 131.831 35.9212 131.346 35.6431C130.862 35.3696 130.315 35.2306 129.705 35.2306C129.095 35.2306 128.552 35.3696 128.077 35.6431C127.602 35.9167 127.225 36.2979 126.951 36.7822C126.678 37.2665 126.539 37.8136 126.539 38.4191C126.539 39.0424 126.678 39.603 126.951 40.0918C127.225 40.5806 127.602 40.9663 128.077 41.2398C128.552 41.5179 129.095 41.6524 129.705 41.6524Z" />
      <path d="M137.199 43.5494V32.2887H139.63V38.9348L139.563 40.0514H139.697L145.002 32.2932H147.657V43.5539H145.227V36.9078L145.294 35.7911H145.159L139.854 43.5539H137.199V43.5494Z" />
      <path d="M150.244 47.7873V32.2887H152.675V33.9166H152.742C152.859 33.7238 153.083 33.4726 153.41 33.1677C153.738 32.8627 154.159 32.5937 154.679 32.365C155.2 32.1362 155.818 32.0197 156.531 32.0197C157.496 32.0197 158.384 32.2708 159.186 32.7686C159.989 33.2664 160.63 33.9659 161.106 34.8629C161.581 35.7642 161.819 36.7822 161.819 37.9303C161.819 39.0604 161.581 40.0739 161.106 40.9753C160.63 41.8767 159.989 42.5718 159.186 43.0696C158.384 43.5674 157.5 43.8185 156.531 43.8185C155.818 43.8185 155.2 43.7019 154.679 43.4732C154.159 43.2445 153.733 42.9754 153.41 42.6704C153.083 42.3655 152.859 42.1144 152.742 41.9215H152.675V47.7873H150.244ZM156.02 41.6525C156.644 41.6525 157.204 41.5 157.702 41.195C158.2 40.8901 158.594 40.4551 158.886 39.89C159.177 39.325 159.321 38.6702 159.321 37.9258C159.321 37.1679 159.177 36.5042 158.886 35.9391C158.594 35.3741 158.2 34.9391 157.702 34.6341C157.204 34.3292 156.644 34.1767 156.02 34.1767C155.397 34.1767 154.827 34.3292 154.316 34.6341C153.805 34.9391 153.401 35.3741 153.11 35.9391C152.818 36.5042 152.675 37.1679 152.675 37.9258C152.675 38.6702 152.818 39.325 153.11 39.89C153.401 40.4551 153.8 40.8901 154.316 41.195C154.832 41.5 155.397 41.6525 156.02 41.6525Z" />
      <path d="M168.955 43.814C167.869 43.814 166.883 43.5539 165.99 43.0337C165.098 42.5135 164.394 41.8049 163.883 40.917C163.371 40.0246 163.111 39.029 163.111 37.9303C163.111 36.8316 163.367 35.8315 163.883 34.9301C164.394 34.0287 165.098 33.3202 165.99 32.8C166.883 32.2798 167.869 32.0197 168.955 32.0197C169.995 32.0197 170.901 32.217 171.677 32.6116C172.448 33.0063 173.067 33.513 173.529 34.1408C173.991 34.7642 174.323 35.4503 174.533 36.1903H172.036C171.811 35.6252 171.439 35.1499 170.919 34.7642C170.399 34.3785 169.744 34.1857 168.955 34.1857C168.345 34.1857 167.784 34.3426 167.273 34.6521C166.762 34.9615 166.354 35.401 166.058 35.966C165.762 36.5311 165.614 37.1858 165.614 37.9303C165.614 38.6568 165.762 39.307 166.058 39.8721C166.354 40.4371 166.762 40.8766 167.273 41.1861C167.784 41.5 168.345 41.6525 168.955 41.6525C169.757 41.6525 170.426 41.4462 170.959 41.0381C171.493 40.63 171.865 40.1277 172.076 39.5313H174.574C174.394 40.2892 174.072 40.9932 173.605 41.639C173.139 42.2848 172.511 42.8095 171.731 43.2131C170.95 43.6167 170.026 43.814 168.955 43.814Z" />
      <path d="M176.381 43.5494V32.2887H178.811V36.6387H180.596L183.897 32.2887H186.686L182.785 37.5311L187.023 43.5539H184.126L180.78 38.8047H178.816V43.5539H176.381V43.5494Z" />
      <path d="M192.436 43.814C191.467 43.814 190.579 43.5628 189.772 43.0651C188.965 42.5673 188.319 41.8677 187.844 40.9708C187.369 40.0694 187.131 39.0559 187.131 37.9258C187.131 36.7822 187.369 35.7597 187.844 34.8583C188.319 33.9569 188.961 33.2618 189.772 32.7641C190.584 32.2663 191.472 32.0151 192.436 32.0151C193.136 32.0151 193.75 32.1317 194.275 32.3605C194.804 32.5892 195.23 32.8627 195.557 33.1766C195.885 33.4906 196.1 33.7327 196.203 33.9121H196.27V32.2842H198.723V43.5449H196.27V41.917H196.203C196.1 42.1099 195.885 42.361 195.557 42.6659C195.23 42.9709 194.804 43.24 194.275 43.4687C193.746 43.6974 193.136 43.814 192.436 43.814ZM192.929 41.6524C193.553 41.6524 194.122 41.4999 194.634 41.195C195.145 40.8901 195.548 40.455 195.84 39.89C196.131 39.3249 196.275 38.6702 196.275 37.9258C196.275 37.1679 196.131 36.5042 195.84 35.9391C195.548 35.3741 195.149 34.9391 194.634 34.6341C194.122 34.3292 193.553 34.1767 192.929 34.1767C192.319 34.1767 191.763 34.3292 191.257 34.6341C190.75 34.9391 190.355 35.3741 190.064 35.9391C189.772 36.5042 189.629 37.1679 189.629 37.9258C189.629 38.6702 189.772 39.3249 190.064 39.89C190.355 40.455 190.75 40.8901 191.257 41.195C191.759 41.4999 192.319 41.6524 192.929 41.6524Z" />
      <path d="M203.073 39.4909C202.477 39.2397 201.974 38.8272 201.566 38.2531C201.158 37.6791 200.952 36.9795 200.952 36.1454C200.952 35.4189 201.131 34.7597 201.486 34.1722C201.844 33.5847 202.356 33.1228 203.024 32.791C203.692 32.4546 204.481 32.2887 205.387 32.2887H210.737V43.5494H208.307V40.0245H205.809C205.764 40.0245 205.706 40.0245 205.629 40.0245C205.553 40.0245 205.472 40.0245 205.383 40.0245L203.508 43.5494H200.764L203.073 39.4909ZM208.316 37.9302V34.4503H205.549C204.88 34.4503 204.365 34.6072 203.997 34.9166C203.634 35.2306 203.45 35.6387 203.45 36.1454C203.45 36.697 203.634 37.132 203.997 37.4504C204.36 37.7688 204.876 37.9302 205.549 37.9302H208.316Z" />
      <path d="M94.0488 63.833V48.2223H104.35V50.7202H96.6992V63.833H94.0488Z" />
      <path d="M105.912 68.071V52.5724H108.343V54.2003H108.41C108.531 54.0075 108.751 53.7563 109.078 53.4514C109.406 53.1464 109.827 52.8774 110.347 52.6486C110.868 52.4199 111.486 52.3033 112.199 52.3033C113.164 52.3033 114.052 52.5545 114.854 53.0523C115.657 53.55 116.298 54.2496 116.774 55.1465C117.249 56.0479 117.487 57.0704 117.487 58.214C117.487 59.3441 117.249 60.3576 116.774 61.259C116.298 62.1604 115.657 62.8555 114.854 63.3533C114.052 63.851 113.168 64.1022 112.199 64.1022C111.486 64.1022 110.868 63.9856 110.347 63.7569C109.827 63.5282 109.401 63.2591 109.078 62.9541C108.751 62.6492 108.527 62.398 108.41 62.2052H108.343V68.071H105.912ZM111.688 61.9361C112.312 61.9361 112.872 61.7837 113.37 61.4787C113.868 61.1738 114.262 60.7388 114.554 60.1737C114.845 59.6087 114.989 58.9539 114.989 58.2095C114.989 57.4516 114.845 56.7879 114.554 56.2228C114.262 55.6578 113.868 55.2228 113.37 54.9178C112.872 54.6129 112.312 54.4604 111.688 54.4604C111.065 54.4604 110.495 54.6129 109.984 54.9178C109.473 55.2228 109.069 55.6578 108.778 56.2228C108.486 56.7879 108.343 57.4516 108.343 58.2095C108.343 58.9539 108.486 59.6087 108.778 60.1737C109.069 60.7388 109.468 61.1738 109.984 61.4787C110.5 61.7837 111.065 61.9361 111.688 61.9361Z" />
      <path d="M122.279 68.0709L123.57 63.833H121.05L118.041 52.5723H120.606L122.947 61.6714H124.221L126.92 52.5723H129.463L124.849 68.0709H122.279Z" />
      <path d="M130.645 63.833V52.5723H140.946V63.833H138.492V54.7338H133.075V63.833H130.645Z" />
      <path d="M143.51 63.833V52.5723H153.811V63.833H151.358V54.7338H145.94V63.833H143.51Z" />
      <path d="M161.063 64.1022C160.094 64.1022 159.206 63.851 158.399 63.3533C157.592 62.8555 156.946 62.1559 156.471 61.259C155.995 60.3576 155.758 59.3441 155.758 58.214C155.758 57.0704 155.995 56.0479 156.471 55.1465C156.946 54.2496 157.588 53.55 158.399 53.0523C159.211 52.5545 160.099 52.3033 161.063 52.3033C161.763 52.3033 162.377 52.4199 162.902 52.6486C163.431 52.8774 163.857 53.1509 164.184 53.4648C164.512 53.7788 164.727 54.0209 164.83 54.2003H164.897V52.5724H167.35V63.8331H164.897V62.2052H164.83C164.727 62.398 164.512 62.6492 164.184 62.9541C163.857 63.2591 163.431 63.5282 162.902 63.7569C162.373 63.9856 161.763 64.1022 161.063 64.1022ZM161.552 61.9361C162.175 61.9361 162.745 61.7837 163.256 61.4787C163.767 61.1738 164.171 60.7388 164.462 60.1737C164.754 59.6087 164.897 58.9539 164.897 58.2095C164.897 57.4516 164.754 56.7879 164.462 56.2228C164.171 55.6578 163.772 55.2228 163.256 54.9178C162.745 54.6129 162.175 54.4604 161.552 54.4604C160.942 54.4604 160.386 54.6129 159.879 54.9178C159.372 55.2228 158.978 55.6578 158.686 56.2228C158.395 56.7879 158.251 57.4516 158.251 58.2095C158.251 58.9539 158.395 59.6087 158.686 60.1737C158.978 60.7388 159.372 61.1738 159.879 61.4787C160.386 61.7837 160.942 61.9361 161.552 61.9361Z" />
      <path d="M32.8277 30.8132C30.5899 31.2213 29.1549 32.2617 27.5853 33.4412C25.6614 34.8852 24.1456 35.9525 20.3203 36.3965C22.3384 38.4639 25.8767 38.3697 26.7377 37.7553C26.5 38.6074 27.2131 39.9796 28.4104 40.3294C28.249 38.558 28.3118 36.6387 28.8948 35.1094C29.4867 33.5623 30.5765 32.051 32.8277 30.8132Z" />
      <path d="M50.5391 35.7374C50.5391 35.7374 53.7276 35.4594 56.952 36.1141C60.1764 36.7644 61.9298 37.9797 61.9298 37.9797C61.1405 35.9975 58.3108 33.4862 57.2121 33.0736C58.4677 30.4143 58.1045 26.4813 57.0506 23.1C57.2479 26.0732 56.1582 30.7999 50.5391 35.7374Z" />
      <path d="M17.6423 48.9622C12.1039 44.3835 15.6915 38.2038 19.4002 36.4817C19.4002 36.4817 17.0772 35.9346 15.2251 37.0243C13.3775 38.1141 12.7855 40.1276 12.7855 40.1276C11.772 38.6477 11.6195 36.9436 11.6061 34.9659C11.6061 34.9659 10.4715 37.549 10.2876 39.5447C10.1172 41.3699 10.5522 43.3789 11.7765 44.7692C11.7765 44.7692 11.7406 44.7602 11.6823 44.7422C10.4536 44.3969 9.72258 43.7691 8.875 42.8139C9.83021 45.7782 12.781 48.5541 17.6423 48.9622Z" />
      <path d="M16.6201 33.1408C14.5213 34.1274 11.7812 34.4099 11.7812 34.4099C23.3873 36.6432 31.8227 31.7416 33.1053 22.8219C33.4057 20.7455 33.3295 18.6378 32.9573 16.5614C33.2667 16.5884 34.8184 16.8799 36.3924 16.6511C37.962 16.4224 39.0204 15.6825 39.0204 15.6825C36.5673 15.1399 33.4147 13.8169 32.3922 12.2294C32.3922 12.2294 34.4103 12.1756 36.0965 10.9289C37.7871 9.68664 38.6571 7.78968 38.6571 7.78968C38.6571 7.78968 34.8408 9.4669 32.2801 8.27849C29.7194 7.0856 29.3382 5.95101 29.3382 5.95101C29.3382 5.95101 30.8899 6.22458 32.5133 5.43978C34.1367 4.65499 34.5717 2.97776 34.5717 2.97776C29.0154 4.73122 25.9659 2.69076 22.7235 0.11663C22.6787 0.0762693 22.6294 0.040393 22.58 0.0045166C22.58 0.0045166 23.6698 2.70869 22.9074 5.63261C22.145 8.55654 18.9834 11.3684 18.9834 11.3684C18.9834 11.3684 20.9746 11.18 22.5262 10.2831C24.0779 9.39066 25.3335 7.95561 25.3335 7.95561C25.0376 10.7854 23.1361 12.3953 20.5082 13.9649C20.5082 13.9649 23.4231 13.9111 25.2483 12.8303C27.0735 11.7495 27.7597 11.0186 27.7597 11.0186C27.7597 11.0186 27.6521 13.1846 26.6161 14.669C25.5802 16.1578 23.2348 17.1579 23.2348 17.1579C24.4725 17.4225 26.4457 17.2386 28.3875 16.3193C28.3875 16.3193 28.114 17.9965 26.3695 20.2433C24.625 22.4855 22.4455 23.7591 22.4455 23.7591C24.7416 24.2435 26.7776 23.5484 28.0601 22.6784C28.0601 22.6784 26.1094 25.4947 22.6742 27.1719C20.2795 28.3423 16.3017 28.8043 14.037 28.6338C13.8038 28.6159 13.6827 28.5352 13.6827 28.5352C14.8801 30.172 17.4632 31.1676 19.4453 30.7954C19.4409 30.7864 18.7188 32.1542 16.6201 33.1408Z" />
      <path d="M42.2266 10.0364C42.2266 10.0364 43.5719 13.3819 46.2716 13.8035C48.9668 14.225 50.1059 13.4671 50.1059 13.4671C49.8548 15.3686 48.6395 16.6646 47.2403 17.8889C47.2403 17.8889 50.8234 17.3418 52.0432 15.5345C53.2675 13.7227 53.0971 11.3683 52.3392 9.00948C51.5813 6.65509 49.4736 0.0045166 49.4736 0.0045166C49.4736 0.0045166 49.1373 3.45312 47.3255 6.06313C45.5137 8.66865 42.2266 10.0364 42.2266 10.0364Z" />
      <path d="M49.2136 27.1001C44.9129 29.7908 39.666 30.5083 39.666 30.5083C42.7155 31.755 43.9129 33.948 44.5497 37.0558C44.5497 37.0558 45.2538 35.975 45.2807 34.4592C45.3076 32.9434 44.7649 32.0779 44.7649 32.0779C46.5274 32.8851 47.2539 33.93 48.0342 35.7552C48.0342 35.7552 48.5634 34.809 48.5634 33.0511C48.5634 31.2931 48.1283 30.2348 48.1283 30.2348C49.3302 30.3379 50.1643 31.755 50.4513 33.0735C50.5455 33.504 57.0795 28.423 55.4337 18.0278C55.4337 18.0323 54.317 23.9071 49.2136 27.1001Z" />
      <path d="M36.4736 1.51578C36.4736 1.51578 36.662 3.56969 35.6305 4.89712C34.5991 6.22454 33.2716 6.65506 33.2716 6.65506C33.2716 6.65506 34.6843 7.30532 36.635 6.70888C38.5903 6.11243 41.1375 3.51588 41.1375 3.51588C41.4425 4.2065 41.6129 6.27836 41.2183 7.73135C41.2183 7.73135 44.2005 6.73579 45.936 4.19305C47.6715 1.65032 48.0796 0 48.0796 0H25.4551C25.4551 0 27.953 2.16603 31.0473 2.10773C34.1372 2.0584 36.4736 1.51578 36.4736 1.51578Z" />
      <path d="M44.5039 60.8149V71.8738C45.3111 71.4299 45.8268 70.9814 46.2708 70.2146C47.9839 71.7752 50.7509 72.1519 55.1637 71.9501C47.9032 71.1922 45.7013 66.8063 44.5039 60.8149Z" />
      <path d="M44.4788 18.8619C44.4788 18.8619 45.0125 18.5166 45.1066 18.4448C46.1202 17.7139 47.0126 16.9963 47.7077 15.9245C47.7077 15.9245 44.2232 15.633 42.5549 13.9244C41.2455 12.588 40.806 10.4937 40.797 8.69543C39.9853 10.6462 38.2722 12.3548 36.16 12.7988C35.9761 12.8392 35.8281 12.8616 35.8281 12.8616C36.9537 13.7226 38.3978 14.1935 39.77 14.3639C39.1377 18.8619 39.3126 24.2613 40.5145 28.5351C40.5145 28.5351 46.0798 28.0866 50.3356 24.4945C54.5915 20.9024 54.6318 15.7631 54.6318 15.7631C51.1832 18.6422 48.9813 19.9427 44.4788 18.8619Z" />
      <path d="M45.1731 54.9537C46.2942 54.3169 47.8503 53.8102 49.9491 53.8461C46.3435 51.9581 41.85 52.6846 38.9844 54.4739C38.9351 53.6532 38.6974 52.9312 38.2131 52.4783C37.5135 54.1959 36.2309 55.752 33.2038 56.326C33.5446 55.5457 33.3384 54.5322 33.0244 53.8774C31.1499 56.4336 29.6252 56.8686 26.6743 57.057C27.2439 56.5861 27.5937 55.7385 27.6071 54.8192C24.4276 56.7207 21.3018 57.2902 17.7949 56.2543C22.6831 59.5056 29.513 59.4876 32.558 58.9674C38.509 58.1467 42.0473 55.8641 47.0521 57.2678C46.8144 56.4381 45.9444 55.317 45.1731 54.9537Z" />
      <path d="M21.7993 54.81C21.7993 54.81 20.7454 54.5364 20.2521 54.2449C19.8126 53.9804 19.548 53.7158 19.2924 53.2718C19.2924 53.2718 20.0637 53.6485 21.3329 53.9131C24.9429 54.671 27.6202 54.1508 30.7011 52.9758C31.1271 52.8144 31.3827 52.7023 31.3827 52.7023C30.4365 52.7023 29.1136 52.1507 28.3736 51.2717C28.3736 51.2717 28.5664 51.339 28.9162 51.4197C31.163 51.9534 33.3559 51.7246 35.5444 51.0744C36.9122 50.6663 37.993 50.2133 37.993 50.2133C36.7821 50.0564 35.9166 49.6842 34.9076 48.5092C34.9076 48.5092 36.2305 48.7469 37.6297 48.7334C40.2128 48.7065 42.4237 48.4016 44.7018 47.1369C44.9799 46.9845 45.3566 46.7244 45.5763 46.5405C45.5763 46.5405 44.657 46.2445 44.0875 45.5404C43.5179 44.8409 43.5179 44.1637 43.5179 44.1637C43.5179 44.1637 44.8184 45.0292 46.6571 45.2445C48.4958 45.4597 50.7739 45.1368 50.7739 45.1368C50.7739 45.1368 50.312 44.6794 49.9622 43.6794C49.6079 42.6793 49.6931 41.6837 49.6931 41.6837C52.9848 43.8543 56.2406 44.8767 60.2004 44.8184C60.2004 44.8184 59.4425 43.9798 59.0344 43.0336C58.6308 42.0873 58.4649 41.2487 58.4649 41.2487L63.0167 41.3564C63.0167 41.3564 60.7431 38.3338 53.5902 37.4683C41.2981 35.9839 32.5487 49.5765 19.9651 50.5004C15.4761 50.8322 10.7718 49.4734 8.30078 45.6212C9.8031 52.4287 14.7496 55.9267 21.7993 54.81Z" />
      <path d="M63.2275 49.8009C63.5279 49.1596 63.8149 48.2224 63.8732 46.9174C64.0033 43.962 62.0121 42.6481 62.0121 42.6481C62.0121 42.6481 62.3261 44.4957 61.465 45.8725C60.3304 47.6842 57.8056 47.1371 56.097 46.9577C52.1461 46.5496 47.2042 47.4062 42.8945 50.8772C45.5225 49.9175 47.9666 50.0655 50.164 51.5275C50.0788 50.7113 49.6348 49.6529 49.0204 49.0385C51.3793 49.1148 53.2269 50.4601 54.5454 53.4289C54.9131 52.4199 55.2405 51.0431 54.505 49.0699C57.0612 49.7516 58.7115 51.9849 59.8013 55.0209C59.7744 54.6801 60.3484 52.8953 59.5412 50.5678C61.4695 51.8638 62.9001 54.7384 62.9315 58.3888C62.9315 58.3888 63.7432 57.6489 64.0167 56.0389C66.3487 61.7029 64.8195 69.7841 56.6262 71.9366C61.3305 71.5106 62.7476 71.8155 66.0976 67.7705C66.1379 70.0262 65.7612 70.8783 65.1065 71.9366C67.3712 71.1563 68.4071 69.932 69.0439 68.34C69.3623 69.7527 70.757 71.5285 72.9051 71.9321C69.9274 63.4608 68.5237 54.3168 63.2275 49.8009Z" />
      <path d="M5.34109 54.9087C4.79398 61.205 4.66841 63.4248 1.2467 68.0305C3.08088 67.9363 4.76259 66.869 5.5429 64.7074C5.08099 68.9229 3.2513 70.0709 0 71.9275C3.40377 71.9544 5.7447 71.8423 7.30084 69.4879C8.52512 69.6135 10.0454 70.2727 11.014 71.932C10.736 68.4206 9.38615 65.1828 7.48022 62.3979C6.48465 60.9359 5.6595 59.4605 5.34109 54.9087Z" />
      <path d="M14.2832 56.3932C10.9692 54.6038 8.82555 52.0476 7.31875 48.6528C7.31875 48.6528 6.85235 49.7605 6.57431 53.7652C6.30075 57.7699 8.50267 62.1513 8.50267 62.1513C8.90627 60.7297 9.38612 59.8014 10.2382 58.7969C10.2382 58.7969 11.3683 60.0167 11.6732 62.2051C11.9782 64.3981 11.3683 66.4789 11.3683 66.4789C13.0948 65.9542 14.0231 65.2008 14.8976 63.8285C14.8976 63.8285 14.9783 65.7434 14.3057 67.8243C13.6285 69.9051 12.032 71.9411 12.032 71.9411C14.8573 71.3895 17.5839 69.3849 18.3956 66.6583C18.3956 66.6583 18.9472 67.6942 18.992 69.1876C19.0324 70.6764 18.3731 71.9949 18.3731 71.9949C20.4046 71.394 21.5392 70.5419 22.4541 68.8019C22.4541 68.8019 23.9116 68.9633 25.5708 69.8019C27.2256 70.6406 28.4634 71.8828 28.4634 71.8828C29.2033 60.2857 22.611 60.8956 14.2832 56.3932Z" />
      <path d="M55.3398 63.0796L57.0663 64.8958L56.9721 68.7077L58.0843 68.7346L58.1516 66.0349L60.1472 68.1337L60.9499 67.3668L58.9588 65.268L61.6585 65.3353L61.6854 64.2231L57.8735 64.129L56.1604 62.3262L58.5776 61.7432L61.8289 63.7343L62.4119 62.7836L60.1068 61.3754L62.9186 60.6983L62.6585 59.6175L59.8467 60.2947L61.2549 57.9896L60.3042 57.4111L58.3175 60.6624L55.8779 61.2499L56.591 58.8462L59.9364 57.0254L59.4072 56.0478L57.0349 57.3349L57.8556 54.5634L56.7883 54.2495L55.9676 57.021L54.676 54.6531L53.6984 55.1823L55.5236 58.5322L54.8196 60.9135L53.093 59.0973L53.1872 55.2854L52.075 55.2585L52.0077 57.9582L50.0435 55.8909L49.2363 56.6577L51.2005 58.7251L48.5008 58.6578L48.4739 59.77L52.2858 59.8642L54.0258 61.6983L51.5683 62.2903L48.317 60.2992L47.7385 61.2499L50.039 62.658L47.2676 63.3262L47.5277 64.407L50.2991 63.7388L48.891 66.0439L49.8417 66.6224L51.8284 63.3711L54.268 62.7836L53.5594 65.1873L50.2094 67.008L50.7431 67.9857L53.1109 66.6986L52.3037 69.4297L53.371 69.7436L54.1783 67.0125L55.4698 69.3849L56.4474 68.8512L54.6267 65.5012L55.3398 63.0796Z" />
      <path d="M16.0182 24.212L17.0317 26.1673L17.8792 25.7278L16.4262 22.925L17.0496 20.9562L18.4308 22.4675L18.2873 25.6202L19.2425 25.665L19.3412 23.4631L20.9332 25.2076L21.6373 24.5618L20.0453 22.8218L22.2427 22.9205L22.2875 21.9653L19.1349 21.8262L17.7671 20.3284L19.7448 19.8889L22.4041 21.5886L22.9199 20.7858L21.0633 19.6019L23.3728 19.0907L23.1665 18.1624L20.8615 18.6691L22.0454 16.8125L21.2426 16.3013L19.543 18.9606L17.5429 19.4001L18.1618 17.4493L20.9646 15.9963L20.5251 15.1488L18.5699 16.1623L19.2829 13.911L18.3725 13.624L14.4082 26.1404L15.3186 26.4274L16.0182 24.212Z" />
      <path d="M26.8801 43.7109L25.1311 43.4956L26.4182 42.4866L25.9293 41.8588L24.0145 43.3611L22.4987 43.1772L23.4135 41.9575L25.8262 41.6166L25.7141 40.8274L24.0907 41.0605L25.149 39.6479L24.5167 39.1726L23.4539 40.5807L23.2252 38.9573L22.4359 39.0694L22.7812 41.4776L21.8708 42.6884L21.2744 41.2848L22.1803 39.0246L21.4448 38.7286L20.8304 40.2488L20.1533 38.6523L19.4178 38.9663L20.0994 40.5628L18.5792 39.9484L18.2832 40.6883L20.5389 41.5942L21.1443 43.0113L19.6151 42.8275L18.1128 40.9125L17.4894 41.4014L18.4985 42.6929L16.7764 42.4821L16.6777 43.2714L18.4043 43.4822L17.1127 44.4912L17.6015 45.119L19.5209 43.6167L21.0367 43.8006L20.1174 45.0204L17.7092 45.3612L17.8168 46.1505L19.4402 45.9218L18.3998 47.3075L19.0366 47.7874L20.077 46.3971L20.3102 48.0206L21.095 47.9084L20.7542 45.5002L21.678 44.267L22.2789 45.6707L21.3686 47.9309L22.104 48.2269L22.7184 46.7066L23.409 48.33L24.14 48.0161L23.4494 46.3927L24.9697 47.0071L25.2656 46.2716L23.0099 45.3612L22.418 43.9665L23.9158 44.1504L25.4181 46.0698L26.0459 45.5765L25.0324 44.2849L26.7859 44.5002L26.8801 43.7109Z" />
  </symbol>
  <symbol id="icon-arrow-home-desk" width="106" height="106" viewBox="0 0 106 106">
    <circle cx="53" cy="53" r="52" stroke="#D9D9D9" stroke-width="2"/>
    <path d="M44 33.6152L62.3848 52L44 70.3848" stroke="white" stroke-width="2"/>
  </symbol>
  <symbol id="icon-arrow-home-tablet" width="17" height="30" viewBox="0 0 17 30">
    <path d="M1 1L15 15L1 29" stroke="white" stroke-width="2"/>
  </symbol>
  <symbol id="icon-map" width="20" height="25" viewBox="0 0 20 25">
    <circle cx="10" cy="10" r="10" fill="#0052C8"/>
    <path d="M10 10L17.0711 17.0711L13.5355 20.6066C11.5829 22.5592 8.41709 22.5592 6.46447 20.6066L2.92893 17.0711L10 10Z" fill="#0052C8"/>
    <circle cx="10" cy="10" r="4.5" fill="white"/>
  </symbol>
  <symbol id="icon-docs-providers" width="38" height="51" viewBox="0 0 38 51">
    <path  d="M1 2C1 1.44772 1.44772 1 2 1H26.1716C26.4368 1 26.6911 1.10536 26.8787 1.29289L32.2929 6.70711L36.7071 11.1213C36.8946 11.3089 37 11.5632 37 11.8284V49C37 49.5523 36.5523 50 36 50H2C1.44772 50 1 49.5523 1 49V2Z"  stroke-width="2"/>
    <path d="M8.35456 41.9775C8.35456 42.757 7.8112 43.1188 7.18425 43.1188C6.55729 43.1188 6 42.757 6 41.9775C6 41.1981 6.55729 40.8362 7.18425 40.8362C7.8112 40.8362 8.35456 41.1981 8.35456 41.9775Z" />
    <path d="M11.4479 37.2313C11.8658 36.6328 12.6321 36.0621 13.8721 36.0621C15.9898 36.0621 17.1323 37.7741 17.1323 39.5974C17.1323 41.4208 15.9898 43.1328 13.8721 43.1328C12.8132 43.1328 12.1027 42.7013 11.6708 42.2281V46H9.73419V36.257H11.4479V37.2313ZM15.1539 39.5974C15.1539 38.5535 14.499 37.6906 13.3984 37.6906C12.5485 37.6906 11.9216 38.2195 11.6568 38.8041V40.3908C11.9216 40.9754 12.5485 41.5043 13.3984 41.5043C14.499 41.5043 15.1539 40.6413 15.1539 39.5974Z" />
    <path d="M23.5003 33.1949H25.423V42.9379H23.7232V41.9636C23.2913 42.5621 22.525 43.1328 21.299 43.1328C19.1674 43.1328 18.0249 41.4208 18.0249 39.5974C18.0249 37.7741 19.1674 36.0621 21.299 36.0621C22.3579 36.0621 23.0684 36.4936 23.5003 36.9668V33.1949ZM23.5003 38.8041C23.2356 38.2195 22.6086 37.6906 21.7588 37.6906C20.6581 37.6906 20.0033 38.5535 20.0033 39.5974C20.0033 40.6413 20.6581 41.5043 21.7588 41.5043C22.6086 41.5043 23.2356 40.9754 23.5003 40.3908V38.8041Z" />
    <path d="M29.6454 42.9379H27.7228V37.8854H26.5664V36.257H27.7228V35.6028C27.7228 33.5846 29.0881 33 30.356 33C30.969 33 31.5681 33.1113 32 33.2784V34.9069C31.7074 34.7398 31.2755 34.6285 30.8436 34.6285C30.2167 34.6285 29.6454 34.8512 29.6454 35.6863V36.257H31.6935V37.8854H29.6454V42.9379Z" />
  </symbol>
  <symbol id="icon-pagination-history-arrow" width="61" height="12" viewBox="0 0 61 12">
    <rect x="59" y="4.65649" width="2" height="59" transform="rotate(90 59 4.65649)" />
    <path d="M61 5.65686L59.5858 7.07107L53.9289 1.41422L55.3431 5.22751e-06L61 5.65686Z" />
    <path d="M59.5859 4.24265L61 5.65686L55.3433 11.3137L53.9291 9.8995L59.5859 4.24265Z" />
  </symbol>
  <symbol id="icon-arrow-dropdown" width="11" height="7" viewBox="0 0 11 7">
    <rect x="5.24219" y="6.65686" width="2" height="7.41421" rx="1" transform="rotate(-135 5.24219 6.65686)" fill="white"/>
    <rect y="1.41467" width="2" height="7.41421" rx="1" transform="rotate(-45 0 1.41467)" fill="white"/>
  </symbol>
  <symbol id="icon-new-arrow-back" width="8" height="12" viewBox="0 0 8 12">
    <path d="M-9.89076e-07 5.6571L1.41421 4.24289L7.07107 9.89975L5.65685 11.314L-9.89076e-07 5.6571Z" />
    <path d="M1.41406 7.07132L-9.89076e-07 5.6571L5.6567 0.000253236L7.07092 1.41447L1.41406 7.07132Z" />
  </symbol>
  <symbol id="icon-pagination-arrow-2" width="13" height="12" viewBox="0 0 13 12">
    <path d="M12.0713 6.34337L10.6571 7.75758L5.00022 2.10073L6.41444 0.686513L12.0713 6.34337Z" />
    <path d="M10.6572 4.92915L12.0713 6.34337L6.41459 12.0002L5.00037 10.586L10.6572 4.92915Z" />
    <path d="M7.07129 6.34337L5.65708 7.75758L0.000222118 2.10073L1.41444 0.686513L7.07129 6.34337Z" />
    <path d="M5.65723 4.92915L7.07129 6.34337L1.41459 12.0002L0.000372057 10.586L5.65723 4.92915Z" />
  </symbol>
  <symbol id="icon-pagination-arrow-1" width="8" height="12" viewBox="0 0 8 12">
    <path d="M8 6.34314L6.58579 7.75735L0.928933 2.1005L2.34315 0.686285L8 6.34314Z" />
    <path d="M6.58594 4.92892L8 6.34314L2.3433 12L0.929083 10.5858L6.58594 4.92892Z" />
  </symbol>
  <symbol id="icon-footer-arrow" width="11" height="7" viewBox="0 0 11 7">
      <rect x="5.75781" y="0.342773" width="2" height="7.41421" rx="1" transform="rotate(45 5.75781 0.342773)" />
      <rect x="11" y="5.58582" width="2" height="7.41421" rx="1" transform="rotate(135 11 5.58582)"/>
  </symbol>
  <symbol id="icon-404" width="900" height="327" viewBox="0 0 900 327">
    <path d="M167.58 6.48442H167.343L167.193 6.66854L0.612419 211.059L0.5 211.197V211.375V256.028V256.528H1H170.301V320.016V320.516H170.801H221.42H221.92V320.016V256.528H275.259H275.759V256.028V210.455V209.955H275.259H221.92V6.98442V6.48442H221.42H167.58ZM791.321 6.48442H791.084L790.934 6.66854L624.353 211.059L624.241 211.197V211.375V256.028V256.528H624.741H794.042V320.016V320.516H794.542H845.161H845.661V320.016V256.528H899H899.5V256.028V210.455V209.955H899H845.661V6.98442V6.48442H845.161H791.321ZM60.4932 209.955L170.301 75.1393V209.955H60.4932ZM451.233 0.5C402.551 0.5 367.311 18.2797 344.254 47.588C321.212 76.8784 310.382 117.626 310.382 163.5C310.382 209.374 321.212 250.122 344.254 279.412C367.311 308.72 402.551 326.5 451.233 326.5C499.916 326.5 535.156 308.72 558.212 279.412C581.254 250.122 592.084 209.374 592.084 163.5C592.084 117.626 581.254 76.8784 558.212 47.588C535.156 18.2797 499.916 0.5 451.233 0.5ZM451.233 49.3753C481.014 49.3753 502.709 59.7939 516.979 79.2086C531.269 98.6506 538.165 127.183 538.165 163.5C538.165 199.817 531.269 228.349 516.979 247.791C502.709 267.206 481.014 277.625 451.233 277.625C421.222 277.625 399.527 267.205 385.315 247.792C371.082 228.351 364.302 199.819 364.302 163.5C364.302 127.181 371.082 98.6493 385.315 79.2079C399.527 59.7946 421.222 49.3753 451.233 49.3753ZM684.234 209.955L794.042 75.1393V209.955H684.234Z" stroke="#0052C8"/>
  </symbol>
  <symbol id="icon-logo" width="164" height="60" viewBox="0 0 164 60">
    <path d="M6.08479 57.9083C4.7862 59.8722 2.8367 59.9634 0 59.9425C2.70893 58.3929 4.23447 57.4397 4.61833 53.9248C3.96582 55.7254 2.56645 56.6161 1.0377 56.6928C3.8891 52.8532 3.99469 51.0031 4.44885 45.7577C4.71269 49.5492 5.40021 50.7807 6.23342 51.9978C7.82151 54.3213 8.94742 57.0192 9.17918 59.9441C8.37324 58.564 7.10351 58.0123 6.08479 57.9083ZM41.6235 44.8716C39.8742 44.8398 38.5788 45.2634 37.6432 45.7943C38.2861 46.0983 39.0105 47.0306 39.2121 47.7214C35.038 46.5524 32.0925 48.4538 27.1318 49.1384C24.5955 49.5717 18.9055 49.5845 14.8307 46.8756C17.7508 47.739 20.356 47.264 23.0058 45.681C22.9962 46.45 22.7019 47.1555 22.2285 47.5471C24.6867 47.3888 25.958 47.0242 27.5204 44.8956C27.7843 45.4409 27.9537 46.2838 27.6707 46.9347C30.1941 46.4597 31.2625 45.1595 31.8461 43.7299C32.2476 44.1089 32.4459 44.7101 32.4873 45.3947C34.8733 43.9026 38.6202 43.2966 41.6235 44.8716ZM27.3555 25.6765C25.4798 26.7081 24.5683 27.9666 24.0756 29.2636C23.5896 30.5381 23.5399 32.1358 23.6728 33.6119C22.6733 33.3208 22.0799 32.174 22.2782 31.4657C21.5634 31.9776 18.6128 32.0559 16.932 30.332C20.1194 29.9594 21.3843 29.0716 22.9866 27.8674C24.2932 26.884 25.491 26.0173 27.3555 25.6765ZM19.051 37.8146L20.962 38.6571L20.5877 39.5577L19.6011 39.1466L20.0504 40.1926L19.4923 40.4211L19.0846 39.361L18.6671 40.3588L17.7796 39.9798L18.5457 38.0145L18.0723 36.8549L17.3191 37.8448L17.5383 39.9477L16.5818 40.0581L16.4444 38.9867L15.7711 39.8966L15.2944 39.5256L16.0015 38.6414L14.9427 38.7804L14.8194 37.8114L16.8857 37.5058L17.6294 36.5128L16.4107 36.3449L14.7347 37.5938L14.1367 36.8167L14.9972 36.1562L13.8761 36.0217L13.9576 35.4221L15.0707 35.5948L14.4182 34.7375L15.1985 34.138L16.4842 35.7948L17.7045 35.9626L17.2488 34.8065L15.3394 33.9509L15.7152 33.0506L16.697 33.471L16.2493 32.4285L16.809 32.1997L17.2151 33.2601L17.6326 32.262L18.5217 32.641L17.7556 34.5953L18.2306 35.7563L18.9823 34.776L18.7505 32.6731L19.7083 32.5483L19.8459 33.6215L20.519 32.7113L20.9973 33.0824L20.2889 33.9669L21.3587 33.8292L21.4819 34.7969L19.406 35.1022L18.6703 36.0952L19.8906 36.2634L21.5811 35.0174L22.163 35.806L21.3076 36.4537L22.4268 36.5879L22.3469 37.1877L21.229 37.0148L21.8831 37.8833L21.1157 38.4716L19.8171 36.8151L18.5968 36.6469L19.051 37.8146ZM13.7898 15.824L13.793 15.8272L13.8793 15.5393L15.2033 11.3767L16.1052 11.6727L15.6 13.2046L16.9913 12.7456L16.9977 13.6203L15.3169 14.0776L14.6294 16.1023L16.6858 15.6144L17.3126 13.9769L18.1667 14.0696L17.5829 15.4244L19.1213 15.0739L19.3405 16.0528L17.7732 16.3661L18.8606 17.3495L18.1202 17.7943L16.8825 16.5532L14.8037 16.9579L16.2509 18.5204L17.9732 18.2517L18.3121 19.0496L16.8553 19.2127L17.9301 20.3945L17.199 21.063L16.1501 19.8492L15.8478 21.2884L15.0961 20.8743L15.5457 19.1632L14.1608 17.5575L13.5401 19.6046L14.631 20.9879L14.1207 21.677L13.2605 20.492L12.7935 21.997L11.9122 21.7329L13.7898 15.824ZM9.81725 28.6768C19.4875 30.5365 26.5177 26.4539 27.5859 19.0192C27.8353 17.2872 27.7746 15.5313 27.4611 13.8026C27.7185 13.8234 29.0123 14.068 30.3221 13.8761C31.6319 13.6844 32.5114 13.0686 32.5114 13.0686C30.4675 12.6176 27.8401 11.5141 26.9893 10.1902C26.9893 10.1902 28.6701 10.1452 30.0775 9.10754C31.4863 8.07118 32.2123 6.49271 32.2123 6.49271C32.2123 6.49271 29.0331 7.89048 26.8981 6.89902C24.7634 5.90596 24.445 4.95915 24.445 4.95915C24.445 4.95915 25.7388 5.1861 27.0901 4.53226C28.4432 3.87815 28.8062 2.48038 28.8062 2.48038C24.1764 3.94043 21.6337 2.2406 18.9312 0.0943642C18.8927 0.0622864 18.8526 0.0304756 18.8128 3.8147e-06C18.8128 3.8147e-06 19.7211 2.25343 19.0846 4.6889C18.4498 7.12437 15.8144 9.46894 15.8144 9.46894C15.8144 9.46894 17.4728 9.31043 18.7679 8.56517C20.0617 7.82178 21.1077 6.62396 21.1077 6.62396C20.8612 8.98271 19.2766 10.3243 17.0857 11.6326C17.0857 11.6326 19.5147 11.5877 21.0373 10.6857C22.5581 9.78544 23.1291 9.17464 23.1291 9.17464C23.1291 9.17464 23.0379 10.9785 22.1742 12.218C21.3108 13.4588 19.3581 14.2936 19.3581 14.2936C20.3897 14.5126 22.0336 14.3623 23.6503 13.5933C23.6503 13.5933 23.4215 14.9924 21.9695 16.8636C20.5158 18.7329 18.6992 19.7933 18.6992 19.7933C20.6134 20.1977 22.3087 19.6174 23.3785 18.8914C23.3785 18.8914 21.7537 21.2373 18.8911 22.6367C16.897 23.6105 13.5802 23.9959 11.6916 23.8551C11.4981 23.8409 11.3957 23.7735 11.3957 23.7735C12.392 25.136 14.546 25.9676 16.1996 25.6559C16.1996 25.6559 15.5968 26.7944 13.8488 27.618C12.0993 28.44 9.81725 28.6768 9.81725 28.6768ZM16.1678 30.4007C16.1678 30.4007 14.2311 29.9433 12.6879 30.8517C11.1463 31.76 10.6537 33.4392 10.6537 33.4392C9.80923 32.2077 9.68306 30.7859 9.67183 29.139C9.67183 29.139 8.72502 31.293 8.57158 32.9562C8.42911 34.4769 8.79211 36.153 9.81244 37.3091C9.81244 37.3091 9.78384 37.3027 9.73412 37.2882C8.71058 36.999 8.09978 36.4791 7.39301 35.6796C8.18933 38.1487 10.6505 40.4596 14.7013 40.8002C10.0843 36.9846 13.075 31.8351 16.1678 30.4007ZM6.9164 38.0207C8.97602 41.2287 12.8959 42.361 16.6379 42.0859C27.127 41.3166 34.4176 29.988 44.6604 31.2259C50.6206 31.9471 52.5156 34.4673 52.5156 34.4673L48.724 34.3777C48.724 34.3777 48.8598 35.0752 49.1975 35.8635C49.5364 36.6502 50.1697 37.3492 50.1697 37.3492C46.8673 37.4002 44.1568 36.5448 41.4126 34.7375C41.4126 34.7375 41.3439 35.5708 41.6379 36.4024C41.9306 37.2356 42.3145 37.6178 42.3145 37.6178C42.3145 37.6178 40.4179 37.8881 38.8841 37.709C37.3489 37.5283 36.2663 36.8087 36.2663 36.8087C36.2663 36.8087 36.2647 37.3732 36.7397 37.9568C37.2147 38.5422 37.9806 38.7884 37.9806 38.7884C37.7983 38.9402 37.4818 39.1594 37.2513 39.2858C35.3548 40.338 33.5109 40.5954 31.3585 40.6162C30.1941 40.6275 29.0906 40.4291 29.0906 40.4291C29.9318 41.4078 30.653 41.7197 31.6605 41.8493C31.6605 41.8493 30.7634 42.2249 29.6218 42.5657C27.8003 43.1062 25.9708 43.295 24.0997 42.852C23.8086 42.7831 23.6487 42.7288 23.6487 42.7288C24.2627 43.4612 25.3678 43.9202 26.1547 43.9202C26.1547 43.9202 25.9388 44.013 25.5854 44.1472C23.0187 45.126 20.7861 45.5577 17.778 44.9277C16.7195 44.7069 16.0766 44.3936 16.0766 44.3936C16.2875 44.7646 16.5067 44.9836 16.8745 45.2044C17.284 45.4474 18.1635 45.6762 18.1635 45.6762C12.288 46.6053 8.16687 43.6914 6.9164 38.0207ZM6.09762 40.5427C7.35291 43.3717 9.14256 45.5019 11.9025 46.9937C18.8417 50.7471 24.333 50.237 23.7158 59.9089C23.7158 59.9089 22.6829 58.8725 21.3044 58.1737C19.9243 57.475 18.7088 57.3389 18.7088 57.3389C17.9459 58.7894 17.0026 59.4964 15.3089 59.9984C15.3089 59.9984 15.859 58.8965 15.8256 57.6573C15.7903 56.4162 15.3297 55.5512 15.3297 55.5512C14.6532 57.822 12.3808 59.4932 10.0252 59.9538C10.0252 59.9538 11.3572 58.2569 11.9202 56.5218C12.4831 54.785 12.4144 53.1908 12.4144 53.1908C11.6868 54.3357 10.9143 54.9641 9.47509 55.4007C9.47509 55.4007 9.98031 53.6655 9.7277 51.8393C9.47509 50.013 8.53149 48.9975 8.53149 48.9975C7.82151 49.8339 7.42322 50.608 7.08587 51.793C7.08587 51.793 5.24838 48.1405 5.4772 44.8045C5.70735 41.4671 6.09762 40.5427 6.09762 40.5427ZM21.2116 3.8147e-06C21.2116 3.8147e-06 23.2921 1.80381 25.8701 1.75757C28.4464 1.71266 30.3908 1.26171 30.3908 1.26171C30.3908 1.26171 30.5493 2.97463 29.6889 4.0813C28.83 5.18609 27.7233 5.54617 27.7233 5.54617C27.7233 5.54617 28.899 6.08666 30.5269 5.5908C32.1548 5.09494 34.2786 2.93133 34.2786 2.93133C34.5328 3.50551 34.675 5.23421 34.3473 6.44326C34.3473 6.44326 36.8325 5.61486 38.2781 3.49589C39.7253 1.37532 40.0643 3.8147e-06 40.0643 3.8147e-06H21.2116ZM46.194 15.0245C46.194 15.0245 45.2618 19.9211 41.0111 22.5821C37.4288 24.8243 33.0535 25.4223 33.0535 25.4223C35.5962 26.4603 36.5924 28.2898 37.122 30.8787C37.122 30.8787 37.7103 29.9767 37.7328 28.715C37.7552 27.4533 37.3043 26.7305 37.3043 26.7305C38.7723 27.4023 39.3799 28.2737 40.0276 29.796C40.0276 29.796 40.469 29.0077 40.469 27.5429C40.469 26.0764 40.106 25.197 40.106 25.197C41.1086 25.2833 41.8012 26.4635 42.0426 27.5637C42.1209 27.9235 47.5645 23.6888 46.194 15.0245ZM47.5391 19.2512C47.7085 21.7251 46.7986 25.664 42.1145 29.78C42.1145 29.78 44.7708 29.5499 47.4575 30.0952C50.1456 30.6389 51.6073 31.6512 51.6073 31.6512C50.9499 29.9976 48.5928 27.9075 47.6749 27.5637C48.7208 25.3472 48.4169 22.0689 47.5391 19.2512ZM33.7555 23.7784C32.756 20.2186 32.6106 15.7168 33.1366 11.9699C31.9949 11.8245 30.7907 11.4326 29.8519 10.7162C29.8519 10.7162 29.9768 10.6954 30.1286 10.6636C31.8894 10.2957 33.3189 8.8691 33.9939 7.24439C34.0035 8.74614 34.3681 10.489 35.4604 11.6037C36.8533 13.0271 39.7558 13.2701 39.7558 13.2701C39.1768 14.1624 38.4315 14.759 37.5874 15.3698C37.5056 15.4289 37.0626 15.7184 37.0626 15.7184C40.8143 16.6187 42.6502 15.5345 45.5193 13.1343C45.5193 13.1343 45.4856 17.4185 41.9386 20.4121C38.3933 23.4041 33.7555 23.7784 33.7555 23.7784ZM41.2271 3.8147e-06C41.2271 3.8147e-06 42.9814 5.54135 43.6147 7.50501C44.2463 9.46894 44.3869 11.4326 43.3682 12.9408C42.3498 14.4487 39.3655 14.9044 39.3655 14.9044C40.5296 13.8873 41.5419 12.8047 41.7531 11.2214C41.7531 11.2214 40.8047 11.8534 38.558 11.5029C36.3112 11.1527 35.1885 8.36388 35.1885 8.36388C35.1885 8.36388 37.9263 7.22353 39.4358 5.0503C40.9456 2.87546 41.2271 3.8147e-06 41.2271 3.8147e-06ZM45.9702 59.9586C42.292 60.1264 39.9875 59.8113 38.5596 58.5111C38.1901 59.1476 37.7584 59.5218 37.0867 59.8928V50.6767C38.0829 55.6725 39.9188 59.3267 45.9702 59.9586ZM60.753 59.9425C58.9636 59.6081 57.8011 58.1291 57.5354 56.9503C57.0013 58.2745 56.1379 59.2964 54.2523 59.9457C54.796 59.066 55.1096 58.3544 55.0775 56.4755C52.2854 59.8434 51.1069 59.5908 47.1857 59.9457C54.0125 58.1513 55.2855 51.4172 53.344 46.6965C53.117 48.0381 52.4405 48.6553 52.4405 48.6553C52.4148 45.6152 51.2221 43.2182 49.6163 42.1386C50.2881 44.0785 49.8099 45.5674 49.8323 45.8505C48.9224 43.319 47.5471 41.4575 45.4169 40.8897C46.0309 42.5321 45.7574 43.6804 45.4506 44.5214C44.3519 42.0474 42.8133 40.925 40.8464 40.8624C41.3612 41.3775 41.7291 42.257 41.8012 42.9384C39.9702 41.7197 37.9343 41.5949 35.745 42.3963C39.3382 39.5032 43.4529 38.79 46.7473 39.1305C48.1691 39.2778 50.2736 39.7336 51.2189 38.2254C51.9385 37.0789 51.6762 35.5389 51.6762 35.5389C51.6762 35.5389 53.3376 36.6344 53.229 39.0955C53.1809 40.1829 52.9411 40.9648 52.6899 41.4989C57.1005 45.265 58.271 52.8821 60.753 59.9425ZM42.6727 53.1539L41.9787 55.1705L40.9424 55.0938L41.6045 53.4402L39.7494 53.9232L39.4454 52.7524L41.323 52.3079L39.9718 51.1662L40.8464 50.5984L42.3912 52.044L44.8988 51.4715L43.0915 49.6324L41.0255 50.0291L40.581 49.0793L42.3129 48.8328L40.9536 47.4305L41.8234 46.6195L43.1429 48.0221L43.4468 46.2645L44.3661 46.7556L43.901 48.8232L45.6486 50.7201L46.3124 48.2236L44.9355 46.6195L45.5257 45.7481L46.6099 47.1539L47.1119 45.2731L48.2667 45.6088L47.7214 47.4768L49.3798 46.866L49.4244 47.9213L47.4158 48.5449L46.669 51.0157L49.1301 50.341L49.8195 48.3389L50.8542 48.4156L50.2066 50.0724L52.0486 49.5861L52.3525 50.7567L50.4752 51.2012L51.8265 52.3432L50.9515 52.9109L49.4084 51.465L46.9154 52.0408L48.7273 53.8655L50.7933 53.4675L51.2362 54.4156L49.4851 54.6746L50.8302 56.0548L49.9761 56.8928L48.6586 55.4744L48.3562 57.224L47.4303 56.7554L47.9021 54.6698L46.1654 52.7925L45.5016 55.2889L46.8737 56.912L46.2867 57.7629L45.1977 56.3715L44.6828 58.2026L43.5283 57.9019L44.0849 56.05L42.4345 56.645L42.3832 55.6086L44.3982 54.969L45.145 52.495L42.6727 53.1539Z" />
    <path d="M127.461 9.60277V14.1572C127.461 15.702 126.564 16.7079 124.982 16.7079H124.747C124.747 16.6953 125.695 15.6413 125.695 14.154V7.9957H131.988V16.5833H130.149V9.60277H127.461ZM88.228 9.60277V14.1572C88.228 15.702 87.3309 16.7079 85.7492 16.7079H85.5126C85.5126 16.6953 86.4624 15.6413 86.4624 14.154V7.9957H92.7536V16.5833H90.9163V9.60277H88.228ZM96.0543 12.9244L95.637 13.3689V16.5833H93.8444V7.9957H95.637V11.0997L98.8081 7.9957H101.25L97.3914 11.5889L101.324 16.5833H98.9618L96.0543 12.9244ZM112.11 9.60277V16.5833H110.271V7.9957H116.031V9.60277H112.11ZM145.648 12.9099H142.306V16.5833H140.467V7.9957H142.306V11.3507H145.648V7.9957H147.488V16.5833H145.648V12.9099ZM77.4687 13.34L76.3011 16.5833H74.2383L78.6152 4.97001H80.6575L84.873 16.5833H82.7203L81.612 13.34H77.4687ZM80.9085 11.5346L79.5653 7.53673L78.1068 11.5346H80.9085ZM105.352 7.76047C106.152 7.76047 106.916 7.94919 107.575 8.41778C108.184 8.8527 108.635 9.42207 108.931 10.1096C109.222 10.8022 109.366 11.5314 109.366 12.2815C109.366 13.0348 109.224 13.7608 108.931 14.4531C108.635 15.1409 108.184 15.71 107.575 16.1436C106.916 16.6119 106.152 16.8006 105.352 16.8006C104.548 16.8006 103.785 16.6135 103.126 16.1436C102.515 15.71 102.063 15.1423 101.767 14.4531C101.474 13.7608 101.33 13.0348 101.33 12.2815C101.33 11.5314 101.474 10.8022 101.767 10.1096C102.063 9.42047 102.514 8.85109 103.126 8.41778C103.785 7.94758 104.548 7.76047 105.352 7.76047ZM105.352 15.1487C105.821 15.1487 106.267 15.0369 106.612 14.7073C106.938 14.3957 107.159 14.0262 107.284 13.5927C107.407 13.1658 107.477 12.7244 107.477 12.2799C107.477 11.8354 107.405 11.394 107.284 10.9685C107.159 10.5352 106.938 10.1641 106.612 9.85217C106.267 9.52285 105.821 9.41084 105.352 9.41084C104.88 9.41084 104.428 9.52285 104.084 9.85698C103.761 10.1689 103.539 10.54 103.414 10.9717C103.291 11.3954 103.219 11.837 103.219 12.2799C103.219 12.7228 103.291 13.1642 103.414 13.5894C103.539 14.0198 103.761 14.3908 104.084 14.7041C104.428 15.0369 104.88 15.1487 105.352 15.1487ZM120.482 7.76047C121.283 7.76047 122.048 7.94919 122.703 8.41778C123.314 8.8527 123.765 9.42207 124.061 10.1096C124.355 10.8022 124.496 11.5314 124.496 12.2815C124.496 13.0348 124.355 13.7608 124.061 14.4531C123.765 15.1409 123.314 15.71 122.703 16.1436C122.048 16.6119 121.283 16.8006 120.482 16.8006C119.679 16.8006 118.915 16.6135 118.258 16.1436C117.645 15.71 117.194 15.1423 116.897 14.4531C116.604 13.7608 116.462 13.0348 116.462 12.2815C116.462 11.5314 116.606 10.8022 116.897 10.1096C117.192 9.42047 117.643 8.85109 118.256 8.41778C118.915 7.94758 119.679 7.76047 120.482 7.76047ZM120.482 15.1487C120.951 15.1487 121.397 15.0369 121.742 14.7073C122.068 14.3957 122.291 14.0262 122.415 13.5927C122.537 13.1658 122.609 12.7244 122.609 12.2799C122.609 11.8354 122.537 11.394 122.415 10.9685C122.291 10.5352 122.068 10.1641 121.742 9.85217C121.397 9.52285 120.951 9.41084 120.482 9.41084C120.01 9.41084 119.559 9.52285 119.215 9.85698C118.891 10.1689 118.669 10.54 118.544 10.9717C118.422 11.3954 118.349 11.837 118.349 12.2799C118.349 12.7228 118.422 13.1642 118.544 13.5894C118.669 14.0198 118.891 14.3908 119.215 14.7041C119.559 15.0369 120.01 15.1487 120.482 15.1487ZM134.86 11.4098H136.381C138.129 11.4098 139.668 11.984 139.668 13.9573C139.668 14.4275 139.56 14.8736 139.322 15.2783C139.069 15.7164 138.671 16.0236 138.219 16.2377C137.654 16.5018 136.999 16.5833 136.381 16.5833H133.02V7.9957H134.86V11.4098ZM134.86 14.976H136.365C136.703 14.976 137.242 14.9458 137.52 14.7266C137.758 14.5379 137.811 14.2133 137.811 13.9271C137.811 13.6536 137.75 13.3737 137.515 13.2059C137.227 13.0027 136.723 12.9706 136.381 12.9706H134.86V14.976ZM153.918 15.7421C153.633 16.0011 153.32 16.2251 152.981 16.4122C152.423 16.7191 151.757 16.8135 151.127 16.8135C150.63 16.8135 150.145 16.7191 149.699 16.4938C149.28 16.2826 148.943 15.9771 148.698 15.5774C148.45 15.1679 148.34 14.7138 148.34 14.2371C148.34 13.6119 148.537 13.0361 148.876 12.5132C149.333 11.8081 150.235 11.5523 151.023 11.4547L153.285 11.1764C153.699 11.1395 153.787 10.8263 153.787 10.4536C153.787 9.50681 152.883 9.36781 152.108 9.36781C151.729 9.36781 151.159 9.41405 150.897 9.72921C150.657 10.0187 150.531 10.3641 150.478 10.7335L150.448 10.9348H148.74L148.746 10.6918C148.773 9.82036 149.036 8.99678 149.755 8.45628C150.488 7.91257 151.45 7.76047 152.341 7.76047C152.765 7.76047 153.198 7.83237 153.609 7.92673C154.122 8.04676 154.572 8.29455 154.96 8.64633C155.418 9.06548 155.592 9.63645 155.594 10.2441V16.7448L155.346 16.7352C154.956 16.7175 154.502 16.6344 154.228 16.3272C154.079 16.1562 153.98 15.9549 153.918 15.7421ZM153.757 12.5852C153.638 12.6269 153.52 12.6589 153.411 12.6843C152.888 12.8092 152.301 12.8811 151.767 12.9498C151.501 12.9883 151.233 13.0409 150.975 13.1195C150.766 13.185 150.587 13.297 150.433 13.4504C150.278 13.6087 150.229 13.8151 150.229 14.0326C150.229 14.8704 150.649 15.2064 151.469 15.2064C151.861 15.2064 152.236 15.1297 152.594 14.9744C152.927 14.8322 153.221 14.6306 153.451 14.3523C153.643 14.1142 153.757 13.8471 153.757 13.5384V12.5852ZM158.794 13.0794C158.586 13.0219 158.384 12.926 158.201 12.814C157.833 12.59 157.542 12.2831 157.313 11.9201C157.063 11.5202 156.945 11.0757 156.945 10.6022C156.945 9.82357 157.209 9.14701 157.834 8.66398C158.493 8.15074 159.347 7.9957 160.166 7.9957H163.873V16.5833H162.032V13.169H160.913L158.5 16.5833H156.237L158.794 13.0794ZM162.032 9.60277H160.167C159.453 9.60277 158.88 9.7947 158.88 10.6022C158.88 11.413 159.448 11.6097 160.167 11.6097H162.032V9.60277Z" />
    <path d="M82.742 26.2459C82.5998 25.5774 82.2991 24.9377 81.6803 24.5923C81.1093 24.2726 80.495 24.1205 79.8396 24.1205C79.2189 24.1205 78.6321 24.2662 78.1012 24.5907C77.5479 24.9249 77.156 25.4159 76.8794 25.9933C76.5356 26.7081 76.422 27.5205 76.422 28.3072C76.422 29.417 76.6027 30.6245 77.252 31.5552C77.8644 32.4411 78.8543 32.7114 79.8922 32.7114C80.2857 32.7114 80.6696 32.6218 81.0342 32.4764C81.4707 32.3053 81.8273 31.9789 82.1136 31.6159C82.5103 31.1203 82.7244 30.4582 82.8476 29.8442L82.8858 29.6539H84.8161L84.7763 29.9241C84.6177 31.0003 84.2644 32.1198 83.4905 32.9193C82.9324 33.4999 82.2558 34.0148 81.4675 34.2372C80.8837 34.4002 80.2649 34.517 79.6557 34.517C78.9791 34.517 78.3202 34.405 77.6869 34.1666C77.0456 33.9252 76.4827 33.5462 75.9999 33.0615C75.4546 32.5149 75.0804 31.8383 74.8197 31.1187C74.5014 30.2406 74.3926 29.2828 74.3926 28.3537C74.3926 27.5301 74.4998 26.7065 74.7636 25.9246C74.9972 25.216 75.3506 24.5635 75.8446 24.004C76.3244 23.4571 76.9066 23.0427 77.5749 22.7516C78.2932 22.4416 79.0622 22.3135 79.8428 22.3135C80.6966 22.3135 81.5522 22.4576 82.3199 22.8444C82.9834 23.1801 83.5544 23.641 83.9655 24.2646C84.3507 24.8433 84.5907 25.4798 84.6707 26.1692L84.7011 26.433H82.7819L82.742 26.2459ZM87.8658 31.1203L91.0148 25.6351H93.0487V34.2227H91.208V28.7183L87.9843 34.2227H86.0267V25.6351H87.8658V31.1203ZM104.942 31.1203L108.089 25.6351H110.123V34.2227H108.283V28.7183L105.059 34.2227H103.101V25.6351H104.942V31.1203ZM125.527 28.6384C125.37 27.6453 124.863 27.1 123.83 27.1C123.184 27.1 122.662 27.3205 122.328 27.8867C121.959 28.5039 121.825 29.2093 121.825 29.9209C121.825 31.3187 122.14 32.8009 123.814 32.8009C124.235 32.8009 124.59 32.6507 124.892 32.3596C125.252 32.0174 125.439 31.5504 125.53 31.069L125.565 30.8771H127.343L127.316 31.138C127.225 31.9966 126.899 32.7595 126.345 33.4216C125.698 34.1971 124.748 34.4529 123.768 34.4529C123.032 34.4529 122.322 34.293 121.698 33.8964C121.097 33.516 120.655 32.9928 120.35 32.3516C120.024 31.6624 119.891 30.9108 119.891 30.1511C119.891 29.3275 120.019 28.5087 120.334 27.7445C120.63 27.0374 121.089 26.4587 121.722 26.0299C122.41 25.5694 123.214 25.3999 124.032 25.3999C124.662 25.3999 125.289 25.5215 125.826 25.8605C126.294 26.158 126.662 26.5547 126.905 27.0535C127.14 27.5365 127.276 28.0481 127.318 28.5854L127.337 28.8383H125.559L125.527 28.6384ZM130.503 30.5638L130.084 31.0083V34.2227H128.293V25.6351H130.084V28.7391L133.256 25.6351H135.698L131.839 29.2283L135.771 34.2227H133.409L130.503 30.5638ZM96.06 26.3692C96.1033 26.3323 96.1479 26.294 96.1944 26.2588C96.4663 26.0412 96.7814 25.8925 97.114 25.7934C97.5232 25.6701 97.979 25.6351 98.4062 25.6351C99.1562 25.6351 99.8534 25.8335 100.461 26.278C101.045 26.7097 101.476 27.2695 101.766 27.9348C102.059 28.6063 102.206 29.313 102.206 30.0455C102.206 30.7827 102.064 31.4962 101.763 32.1709C101.459 32.8522 100.989 33.4024 100.37 33.818C99.6823 34.2786 98.8809 34.4529 98.0637 34.4529C97.5906 34.4529 97.1316 34.3585 96.6932 34.1859C96.2041 33.9971 95.7817 33.687 95.4219 33.3096C94.9886 32.8587 94.6959 32.2925 94.4927 31.7071C94.2353 30.9634 94.1538 30.143 94.1538 29.3596C94.1538 28.2673 94.2273 27.1703 94.5425 26.1179C94.8384 25.1473 95.3468 24.3125 96.2137 23.7543C97.4099 22.9853 98.8186 22.9339 100.196 22.9372C100.469 22.9372 100.741 22.9404 101.011 22.9404H101.248V23.1756C101.248 23.8984 100.576 24.4646 99.8839 24.4646C98.8809 24.463 97.8416 24.5349 97.0052 25.1441C96.5687 25.4624 96.2663 25.8909 96.06 26.3692ZM100.317 30.0455C100.317 29.6475 100.236 29.2395 100.127 28.8589C100.004 28.4304 99.7767 28.0594 99.4599 27.7445C99.1177 27.402 98.6652 27.2855 98.1902 27.2855C97.7136 27.2855 97.261 27.402 96.9156 27.7445C96.6005 28.0594 96.3735 28.4288 96.2503 28.8589C96.1399 29.2395 96.06 29.6475 96.06 30.0455C96.06 30.4438 96.1399 30.8485 96.2503 31.2291C96.3735 31.6576 96.6005 32.0287 96.9156 32.3435C97.261 32.6876 97.7136 32.8009 98.1902 32.8009C98.6652 32.8009 99.1177 32.686 99.4599 32.3435C99.7767 32.0287 100.004 31.6576 100.127 31.2291C100.237 30.8485 100.317 30.4438 100.317 30.0455ZM113.093 26.3897C113.275 26.1901 113.475 26.0045 113.693 25.8396C114.153 25.4975 114.755 25.3999 115.316 25.3999C116.018 25.3999 116.69 25.5678 117.27 25.9693C117.841 26.3627 118.249 26.892 118.522 27.5253C118.82 28.2115 118.944 28.9423 118.944 29.6857C118.944 30.4374 118.828 31.1746 118.593 31.8894C118.353 32.606 117.953 33.2168 117.377 33.7076C116.742 34.2516 115.954 34.4529 115.129 34.4529C114.631 34.4529 114.139 34.3585 113.701 34.1155C113.511 34.0084 113.333 33.8851 113.173 33.7397V37.4355H111.334V25.6351H113.093V26.3897ZM115.097 32.8009C115.49 32.8009 115.855 32.7033 116.162 32.4539C116.483 32.1917 116.691 31.8415 116.824 31.4497C116.995 30.9573 117.056 30.4245 117.056 29.9049C117.056 29.4555 117.019 29.0014 116.926 28.56C116.842 28.1601 116.648 27.8196 116.36 27.5285C116.026 27.1879 115.529 27.1 115.067 27.1C113.333 27.1 113.109 28.9516 113.109 30.3064C113.109 30.9618 113.218 31.7568 113.728 32.2254C114.118 32.5836 114.564 32.8009 115.097 32.8009ZM146.423 30.7188C146.214 30.6614 146.014 30.5654 145.832 30.4534C145.462 30.2294 145.173 29.9225 144.944 29.5595C144.693 29.1596 144.576 28.7151 144.576 28.2417C144.576 27.463 144.839 26.7864 145.462 26.3018C146.123 25.7902 146.977 25.6351 147.796 25.6351H151.501V34.2227H149.662V30.8084H148.544L146.131 34.2227H143.865L146.423 30.7188ZM149.662 27.2422H147.799C147.081 27.2422 146.508 27.4341 146.508 28.2417C146.508 29.0524 147.079 29.2476 147.799 29.2476H149.662V27.2422ZM141.292 33.3767C141.009 33.6373 140.697 33.8597 140.356 34.0468C139.798 34.3537 139.134 34.4497 138.504 34.4497C138.005 34.4497 137.521 34.3537 137.075 34.13C136.656 33.9188 136.318 33.6133 136.075 33.2136C135.827 32.8041 135.715 32.35 135.715 31.872C135.715 31.2481 135.914 30.671 136.251 30.1479C136.708 29.4443 137.61 29.1885 138.4 29.0909L140.66 28.811C141.076 28.7741 141.162 28.4609 141.162 28.0882C141.162 27.1414 140.258 27.0024 139.485 27.0024C139.106 27.0024 138.535 27.0503 138.271 27.3638C138.032 27.6533 137.906 28.0003 137.853 28.3681L137.825 28.5697H136.115L136.123 28.3264C136.15 27.4566 136.411 26.633 137.13 26.0925C137.863 25.5472 138.826 25.3967 139.718 25.3967C140.14 25.3967 140.574 25.4672 140.984 25.5629C141.498 25.6814 141.947 25.9292 142.336 26.2828C142.793 26.7001 142.966 27.2711 142.971 27.8787L142.969 34.381L142.723 34.3698C142.333 34.3537 141.875 34.269 141.603 33.9621C141.455 33.7926 141.355 33.5911 141.292 33.3767ZM141.13 30.22C141.013 30.2615 140.895 30.2935 140.786 30.3205C140.263 30.4454 139.677 30.5157 139.144 30.5846C138.877 30.6229 138.61 30.6758 138.351 30.7557C138.141 30.8196 137.962 30.9332 137.81 31.0867C137.654 31.2449 137.605 31.4513 137.605 31.6689C137.605 32.5053 138.026 32.8426 138.847 32.8426C139.237 32.8426 139.611 32.7643 139.969 32.6106C140.303 32.4684 140.596 32.2668 140.825 31.9886C141.02 31.7504 141.13 31.4833 141.13 31.1746V30.22Z" />
    <path d="M121.448 47.8074C121.333 47.8491 121.213 47.8809 121.104 47.9065C120.581 48.033 119.994 48.1033 119.462 48.172C119.193 48.2105 118.926 48.2631 118.669 48.3431C118.459 48.4069 118.28 48.5206 118.126 48.6727C117.971 48.8325 117.922 49.0389 117.922 49.2546C117.922 50.0926 118.342 50.43 119.164 50.43C119.555 50.43 119.927 50.3516 120.287 50.1966C120.62 50.0541 120.912 49.8544 121.143 49.5746C121.336 49.3361 121.448 49.0707 121.448 48.7622V47.8074ZM121.61 50.9643C121.326 51.2233 121.013 51.4471 120.673 51.6342C120.116 51.9413 119.451 52.0357 118.821 52.0357C118.323 52.0357 117.839 51.9413 117.392 51.7157C116.974 51.5064 116.636 51.2009 116.391 50.7994C116.142 50.3901 116.033 49.936 116.033 49.4593C116.033 48.8357 116.23 48.2583 116.569 47.7355C117.026 47.0303 117.928 46.7758 118.717 46.6782L120.978 46.3984C121.392 46.3617 121.479 46.0482 121.479 45.6756C121.479 44.729 120.575 44.5897 119.802 44.5897C119.423 44.5897 118.851 44.6363 118.589 44.9512C118.35 45.2406 118.226 45.5876 118.171 45.9554L118.142 46.157H116.433L116.439 45.914C116.468 45.0439 116.729 44.2203 117.449 43.6798C118.181 43.1345 119.144 42.9827 120.034 42.9827C120.458 42.9827 120.892 43.0546 121.303 43.1489C121.814 43.269 122.265 43.5168 122.654 43.8701C123.111 44.2877 123.284 44.8584 123.289 45.4663L123.287 51.9686L123.039 51.9574C122.649 51.9397 122.193 51.8566 121.921 51.5494C121.773 51.3784 121.672 51.1768 121.61 50.9643ZM86.4833 50.3965C86.8768 50.3965 87.2398 50.2974 87.5485 50.048C87.8698 49.7855 88.0762 49.4353 88.2104 49.045C88.3815 48.551 88.4408 48.0185 88.4408 47.5002C88.4408 47.0493 88.4023 46.5951 88.3095 46.1538C88.2264 45.7539 88.0345 45.4133 87.7466 45.1222C87.4092 44.7817 86.9137 44.6937 86.4515 44.6937C84.7196 44.6937 84.494 46.5457 84.494 47.9001C84.494 48.5558 84.6028 49.3505 85.1128 49.8191C85.5015 50.1773 85.9492 50.3965 86.4833 50.3965ZM84.4779 43.9838C84.6618 43.7838 84.8618 43.5983 85.0778 43.4336C85.5383 43.0899 86.1395 42.9939 86.7009 42.9939C87.4028 42.9939 88.0746 43.1634 88.6552 43.563C89.2259 43.9565 89.6338 44.4858 89.9089 45.119C90.2048 45.8052 90.3293 46.536 90.3293 47.2797C90.3293 48.0298 90.2125 48.7686 89.9776 49.4818C89.7394 50.1998 89.3395 50.8122 88.7637 51.3017C88.1272 51.8454 87.3389 52.0469 86.5154 52.0469C86.0163 52.0469 85.5255 51.9526 85.0874 51.7093C84.8955 51.6024 84.718 51.4791 84.5578 51.3351V55.0293H82.7188V43.2289H84.4779V43.9838ZM113.214 44.8362H109.872V51.8165H108.031V43.2289H115.053V51.8165H113.214V44.8362ZM104.896 44.8362H101.553V51.8165H99.7136V43.2289H106.736V51.8165H104.896V44.8362ZM93.7245 51.7831L90.6237 43.2289H92.6913L94.6825 49.3233L96.7197 43.2289H98.7347L98.6213 43.544C97.2698 47.3083 95.9776 51.2519 94.3195 54.8855L94.2553 55.0245H92.1909L93.7245 51.7831Z" />
    <path d="M77.5051 41.7369V51.8167H75.666V40.1298H82.6241V41.7369H77.5051Z" />
  </symbol>
</svg>
