<svg width="28" height="20" viewBox="0 0 28 20" fill="none" xmlns="http://www.w3.org/2000/svg">
<g clip-path="url(#clip0_404_1277)">
<path d="M0 6.6665H28V13.3332H0V6.6665Z" fill="white"/>
<path d="M0 0H28V6.66667H0V0Z" fill="#CE1126"/>
<path d="M0 13.3335H28V20.0002H0V13.3335Z" fill="black"/>
<path d="M17.1026 8.77546C17.0627 8.75722 17.0264 8.73252 16.9953 8.70247C16.9723 8.66597 16.9876 8.66597 17.0873 8.68787C17.2635 8.73897 17.3785 8.71707 17.4935 8.62948L17.5931 8.54919L17.7081 8.60028C17.777 8.63678 17.846 8.65868 17.8613 8.65138C17.915 8.63678 18.0223 8.50539 18.0146 8.4616C18.0146 8.4105 18.0606 8.4251 18.0913 8.48349C18.1373 8.60028 18.0683 8.73897 17.938 8.76816C17.8843 8.78276 17.8307 8.77546 17.7387 8.74627C17.6314 8.70977 17.6084 8.70977 17.5548 8.74627C17.4906 8.79249 17.4136 8.81987 17.3333 8.82506C17.2529 8.83024 17.1728 8.81301 17.1026 8.77546ZM17.5471 8.3886C17.4952 8.29933 17.4688 8.19866 17.4705 8.09663C17.4781 8.05284 17.4935 8.03824 17.5318 8.05284C17.6084 8.07474 17.6238 8.12583 17.6084 8.27182C17.6084 8.4032 17.5854 8.4397 17.5471 8.3886ZM12.3661 8.24992C12.3584 8.34481 12.55 8.58568 12.6344 8.62948C12.573 8.65138 12.5041 8.64408 12.4504 8.66597C12.1438 8.95794 11.0402 9.97984 10.8409 10.228C11.4387 10.2426 12.0979 10.2207 12.6573 10.1988C12.6573 9.81196 13.0406 9.79006 13.3011 9.65137C13.4314 9.84845 13.761 9.83385 13.807 10.1331V11.4178H8.71028C8.691 11.5152 8.65046 11.6077 8.59128 11.6892C8.53211 11.7708 8.45561 11.8396 8.36675 11.8912C8.27788 11.9428 8.17863 11.976 8.07542 11.9888C7.97221 12.0015 7.86733 11.9935 7.76758 11.9652C7.92086 11.8192 8.18145 11.7609 8.27342 11.5492C8.35006 11.082 8.12013 10.7974 7.96685 10.5273C8.15965 10.4684 8.34092 10.3796 8.50334 10.2645C8.32707 10.7755 8.97852 10.7244 9.4537 10.7098C9.46903 10.5346 9.46137 10.3302 9.32341 10.301C9.49969 10.2353 9.53035 10.2134 9.82925 9.97984V10.6806L13.3625 10.6733C13.3625 10.4543 13.4238 10.0966 13.2398 10.0966C13.0712 10.0966 13.2398 10.5492 13.1019 10.5492H10.3657V10.1112C10.4807 9.99444 10.4654 10.0017 11.2548 9.24991C11.3314 9.17692 11.8909 8.69517 12.3738 8.24992H12.3661ZM19.1949 8.22802C19.3865 8.33021 19.5398 8.4616 19.7697 8.51999C19.7467 8.61488 19.6548 8.65138 19.6318 8.74627V10.7171C19.8924 10.7682 19.9537 10.6222 20.0763 10.5492C20.107 10.863 20.3216 11.1696 20.3062 11.4251H19.1949V8.23532V8.22802ZM17.7081 9.28641C17.7081 9.28641 18.1143 8.95794 18.1143 8.94335V10.6587H18.4055L18.3978 8.73897C18.5128 8.62218 18.7504 8.4616 18.804 8.34481V11.4105H16.2442C16.2059 10.7755 16.1982 10.1185 16.98 10.2572V10.0017C16.957 9.95794 16.911 10.009 16.9033 9.95064C17.0259 9.83385 17.0643 9.80466 17.4015 9.52729L17.4092 10.6587H17.7081V9.28641ZM16.7424 10.6441C16.796 10.7171 16.9876 10.7171 16.9723 10.5857C16.9493 10.4762 16.704 10.5127 16.7424 10.6441Z" fill="#007A3D"/>
<path d="M9.32321 11.9287C9.40786 11.9287 9.47649 11.8633 9.47649 11.7827C9.47649 11.7021 9.40786 11.6367 9.32321 11.6367C9.23855 11.6367 9.16992 11.7021 9.16992 11.7827C9.16992 11.8633 9.23855 11.9287 9.32321 11.9287Z" fill="#007A3D"/>
<path d="M14.1523 8.23535C14.3439 8.33024 14.4972 8.46893 14.7348 8.52732C14.7042 8.61491 14.6199 8.65141 14.5969 8.7463V10.7171C14.8575 10.7682 14.9111 10.6295 15.0337 10.5492C15.072 10.8631 15.279 11.1769 15.2713 11.4251H14.1523V8.23535Z" fill="#007A3D"/>
</g>
<defs>
<clipPath id="clip0_404_1277">
<rect width="28" height="20" fill="white"/>
</clipPath>
</defs>
</svg>
