<svg width="28" height="20" viewBox="0 0 28 20" fill="none" xmlns="http://www.w3.org/2000/svg">
<g clip-path="url(#clip0_404_1870)">
<mask id="mask0_404_1870" style="mask-type:luminance" maskUnits="userSpaceOnUse" x="0" y="0" width="28" height="20">
<path d="M0 0H28V20H0V0Z" fill="white"/>
</mask>
<g mask="url(#mask0_404_1870)">
<path d="M0 0H31.5V20H0V0Z" fill="#FF0000"/>
<path d="M0 0H15.75V10H0V0Z" fill="#000095"/>
<path d="M6.7373 5.2875L6.62793 5.6875L7.03918 5.79583L6.96043 5.5L6.7373 5.2875ZM8.78918 5.5L8.71043 5.79583L9.12168 5.6875L9.0123 5.2875L8.78918 5.5ZM6.96043 4.5L6.7373 4.7125L6.82043 5L6.96043 4.5Z" fill="white"/>
<path d="M6.82043 5L6.7373 5.2875L6.96043 5.5L6.82043 5Z" fill="white"/>
<path d="M6.73742 4.7124L6.43555 4.9999L6.73742 5.2874L6.82055 4.9999L6.73742 4.7124ZM7.34992 5.87074L7.57305 6.08324L7.87492 6.00407L7.34992 5.87074ZM8.1768 6.08324L8.5968 6.1874L8.71055 5.79574L8.39992 5.87074L8.1768 6.08324Z" fill="white"/>
<path d="M8.39969 5.87083L8.71031 5.79583L8.78906 5.5L8.39969 5.87083ZM7.03906 5.79583L7.15281 6.1875L7.57281 6.08333L7.34969 5.87083L7.03906 5.79583ZM7.87469 6.00417L8.17656 6.08333L8.39969 5.87083L7.87469 6.00417Z" fill="white"/>
<path d="M7.57293 6.08327L7.8748 6.37077L8.17668 6.08327L7.8748 6.0041L7.57293 6.08327ZM7.03918 4.2041L6.62793 4.31243L6.7373 4.71243L6.96043 4.49993L7.03918 4.2041ZM6.96043 5.49993L7.03918 5.79577L7.3498 5.87077L6.96043 5.49993ZM8.92918 4.99993L9.0123 4.71243L8.78918 4.49993L8.92918 4.99993Z" fill="white"/>
<path d="M7.35031 4.12939L7.03969 4.20439L6.96094 4.50023L7.35031 4.12939ZM8.78969 4.50023L8.71094 4.20439L8.40031 4.12939L8.78969 4.50023ZM9.01281 5.28773L9.31469 5.00023L9.01281 4.71273L8.92969 5.00023L9.01281 5.28773Z" fill="white"/>
<path d="M8.78906 4.49977L8.39969 4.12894L7.87469 3.99561L7.34969 4.12894L6.96031 4.49977L6.82031 4.99977L6.96031 5.49977L7.34969 5.87061L7.87469 6.00394L8.39969 5.87061L8.78906 5.49977L8.92906 4.99977L8.78906 4.49977Z" fill="white"/>
<path d="M8.78906 5.5L9.01219 5.2875L8.92906 5L8.78906 5.5ZM9.01219 4.7125L9.12156 4.3125L8.71031 4.20417L8.78906 4.5L9.01219 4.7125ZM8.71031 4.20417L8.59656 3.8125L8.17656 3.91667L8.39969 4.12917L8.71031 4.20417ZM7.57281 3.91667L7.15281 3.8125L7.03906 4.20417L7.34969 4.12917L7.57281 3.91667ZM7.87469 3.99583L7.57281 3.91667L7.34969 4.12917L7.87469 3.99583Z" fill="white"/>
<path d="M8.17699 3.91689L7.87512 3.62939L7.57324 3.91689L7.87512 3.99606L8.17699 3.91689Z" fill="white"/>
<path d="M8.39992 4.129L8.1768 3.9165L7.87492 3.99567L8.39992 4.129ZM7.57305 6.08317L7.15305 6.18734L7.34992 6.879L7.87492 6.37067L7.57305 6.08317ZM7.34992 6.879L7.87492 8.74984L8.39992 6.879L7.87492 6.37067L7.34992 6.879ZM7.0393 5.79567L6.62805 5.68734L6.43555 6.37067L7.15305 6.18734L7.0393 5.79567Z" fill="white"/>
<path d="M6.43602 6.37083L5.91102 8.25L7.35039 6.87917L7.15352 6.1875L6.43602 6.37083ZM5.91102 5.5L4.46289 6.87917L6.43602 6.37083L6.62852 5.6875L5.91102 5.5Z" fill="white"/>
<path d="M6.73703 5.2875L6.43516 5L5.91016 5.5L6.62766 5.6875L6.73703 5.2875ZM6.73703 4.7125L6.62766 4.3125L5.91016 4.5L6.43516 5L6.73703 4.7125Z" fill="white"/>
<path d="M5.91063 4.5L3.9375 5L5.91063 5.5L6.43563 5L5.91063 4.5ZM9.84813 5.5L9.12187 5.6875L9.31437 6.37083L11.2875 6.87917L9.84813 5.5Z" fill="white"/>
<path d="M8.71063 5.79583L8.59687 6.1875L9.31437 6.37083L9.12187 5.6875L8.71063 5.79583ZM8.17687 6.08333L7.875 6.37083L8.4 6.87917L8.59687 6.1875L8.17687 6.08333ZM9.0125 5.2875L9.12187 5.6875L9.84813 5.5L9.31437 5L9.0125 5.2875Z" fill="white"/>
<path d="M8.40039 6.87939L9.84852 8.25023L9.31477 6.37106L8.59727 6.18773L8.40039 6.87939ZM8.71102 4.20439L9.12227 4.31273L9.31477 3.62939L8.59727 3.81273L8.71102 4.20439Z" fill="white"/>
<path d="M9.84852 4.5L11.2879 3.12917L9.31477 3.62917L9.12227 4.3125L9.84852 4.5ZM9.31477 3.62917L9.84852 1.75L8.40039 3.12917L8.59727 3.8125L9.31477 3.62917ZM9.84852 5.5L11.8129 5L9.84852 4.5L9.31477 5L9.84852 5.5Z" fill="white"/>
<path d="M9.01203 4.7125L9.31391 5L9.84766 4.5L9.12141 4.3125L9.01203 4.7125ZM7.34953 3.12917L5.91016 1.75L6.43516 3.62917L7.15266 3.8125L7.34953 3.12917Z" fill="white"/>
<path d="M7.0393 4.20439L7.15305 3.81273L6.43555 3.62939L6.62805 4.31273L7.0393 4.20439Z" fill="white"/>
<path d="M6.43602 3.62939L4.46289 3.12939L5.91102 4.50023L6.62852 4.31273L6.43602 3.62939ZM8.17727 3.91689L8.59727 3.81273L8.40039 3.12939L7.87539 3.62939L8.17727 3.91689Z" fill="white"/>
<path d="M8.39961 3.12917L7.87461 1.25L7.34961 3.12917L7.87461 3.62917L8.39961 3.12917Z" fill="white"/>
<path d="M7.57332 3.91689L7.8752 3.62939L7.3502 3.12939L7.15332 3.81273L7.57332 3.91689Z" fill="white"/>
<path d="M7.87527 7.12894C9.10998 7.12894 10.1109 6.17568 10.1109 4.99977C10.1109 3.82387 9.10998 2.87061 7.87527 2.87061C6.64057 2.87061 5.63965 3.82387 5.63965 4.99977C5.63965 6.17568 6.64057 7.12894 7.87527 7.12894Z" fill="#000095"/>
<path d="M7.87547 6.87894C8.9652 6.87894 9.84859 6.03761 9.84859 4.99977C9.84859 3.96194 8.9652 3.12061 7.87547 3.12061C6.78574 3.12061 5.90234 3.96194 5.90234 4.99977C5.90234 6.03761 6.78574 6.87894 7.87547 6.87894Z" fill="white"/>
</g>
</g>
<defs>
<clipPath id="clip0_404_1870">
<rect width="28" height="20" fill="white"/>
</clipPath>
</defs>
</svg>
