<svg width="28" height="20" viewBox="0 0 28 20" fill="none" xmlns="http://www.w3.org/2000/svg">
<g clip-path="url(#clip0_404_1833)">
<mask id="mask0_404_1833" style="mask-type:luminance" maskUnits="userSpaceOnUse" x="0" y="0" width="28" height="20">
<path d="M0 0H28V20H0V0Z" fill="white"/>
</mask>
<g mask="url(#mask0_404_1833)">
<path d="M0 0H28V20H0V0Z" fill="#CC0000"/>
<path d="M0 0H28V1.42917H0V0Z" fill="#CC0000"/>
<path d="M0 1.4292H28V2.85837H0V1.4292Z" fill="white"/>
<path d="M0 2.8584H28V4.28757H0V2.8584Z" fill="#CC0000"/>
<path d="M0 4.2876H28V5.70843H0V4.2876Z" fill="white"/>
<path d="M0 5.7124H28V7.14157H0V5.7124Z" fill="#CC0000"/>
<path d="M0 7.1416H28V8.57077H0V7.1416Z" fill="white"/>
<path d="M0 8.5708H28V9.99997H0V8.5708Z" fill="#CC0000"/>
<path d="M0 10H28V11.4292H0V10Z" fill="white"/>
<path d="M0 11.4292H28V12.8584H0V11.4292Z" fill="#CC0000"/>
<path d="M0 12.8584H28V14.2876H0V12.8584Z" fill="white"/>
<path d="M0 14.2876H28V15.7084H0V14.2876Z" fill="#CC0000"/>
<path d="M0 15.7124H28V17.1416H0V15.7124Z" fill="white"/>
<path d="M0 17.1416H28V18.5708H0V17.1416Z" fill="#CC0000"/>
<path d="M0 18.5708H28V20H0V18.5708Z" fill="white"/>
<path d="M0 0.0209961H14V11.4502H0V0.0209961Z" fill="#000066"/>
<path d="M9.07766 3.07504L9.34016 4.77087L10.3464 3.35421L9.80391 4.98754L11.357 4.12087L10.1277 5.37087L11.9214 5.23754L10.2458 5.8542L11.9214 6.47087L10.1277 6.33754L11.357 7.58754L9.80391 6.72087L10.342 8.35837L9.33578 6.93754L9.07328 8.63337L8.81516 6.93754L7.80891 8.3542L8.35141 6.72087L6.79828 7.58754L8.02328 6.33754L6.22953 6.47087L7.90953 5.8542L6.23391 5.23754L8.02766 5.37087L6.79828 4.12087L8.35141 4.98754L7.80891 3.35004L8.81516 4.77087L9.07766 3.07504ZM7.62078 3.14587C7.14705 2.94515 6.62814 2.8604 6.11125 2.89932C5.59436 2.93824 5.09589 3.09959 4.66115 3.36871C4.22642 3.63783 3.86922 4.00618 3.62203 4.44027C3.37484 4.87435 3.2455 5.36039 3.24578 5.8542C3.2455 6.34802 3.37484 6.83406 3.62203 7.26814C3.86922 7.70223 4.22642 8.07058 4.66115 8.3397C5.09589 8.60882 5.59436 8.77017 6.11125 8.80909C6.62814 8.84801 7.14705 8.76326 7.62078 8.56254C7.09774 8.92037 6.48117 9.13382 5.83894 9.1794C5.19672 9.22498 4.55374 9.10091 3.98078 8.82087C3.40848 8.54044 2.92845 8.11516 2.59347 7.59177C2.25849 7.06838 2.08152 6.46716 2.08203 5.8542C2.08225 5.2414 2.25983 4.64051 2.59527 4.11757C2.93071 3.59463 3.41102 3.16988 3.98343 2.88998C4.55583 2.61009 5.19817 2.48589 5.83987 2.53103C6.48156 2.57617 7.09777 2.78891 7.62078 3.14587Z" fill="#FFCC00"/>
</g>
</g>
<defs>
<clipPath id="clip0_404_1833">
<rect width="28" height="20" fill="white"/>
</clipPath>
</defs>
</svg>
