<svg width="28" height="20" viewBox="0 0 28 20" fill="none" xmlns="http://www.w3.org/2000/svg">
<g clip-path="url(#clip0_404_1901)">
<mask id="mask0_404_1901" style="mask-type:luminance" maskUnits="userSpaceOnUse" x="0" y="0" width="28" height="20">
<path d="M0.000976562 0H27.9982V20H0.000976562V0Z" fill="white"/>
</mask>
<g mask="url(#mask0_404_1901)">
<path fill-rule="evenodd" clip-rule="evenodd" d="M-1.75 0H29.75V20H-1.75V0Z" fill="#00843D"/>
<path fill-rule="evenodd" clip-rule="evenodd" d="M9.0498 5.37109C10.1941 5.89453 11.5559 5.37109 12.048 4.64453C12.5566 3.96484 12.6182 2.82813 11.7445 1.78516C13.098 2.85547 13.4016 4.07031 12.7248 5.07031C11.8225 6.21484 9.8291 6.17969 9.0498 5.37109Z" fill="white"/>
<path fill-rule="evenodd" clip-rule="evenodd" d="M11.0799 2.71094L11.3096 2.71484L11.1291 2.85156L11.1988 3.07031L11.0061 2.94141L10.8215 3.07031L10.883 2.85547L10.6984 2.71875L10.9281 2.71484L11.0061 2.5L11.0799 2.71094ZM9.94375 4.07031H10.1734L9.99297 4.21094L10.0627 4.42578L9.86992 4.29688L9.68125 4.42969L9.74687 4.21094L9.5623 4.07813L9.79199 4.07031L9.86582 3.85547L9.94375 4.07031ZM10.0176 3H10.2514L10.0668 3.14063L10.1365 3.35547L9.94785 3.22656L9.75918 3.35938L9.82481 3.14063L9.64024 3.00391L9.86992 3L9.94375 2.78516L10.0176 3ZM10.0176 1.92578H10.2514L10.0627 2.07031L10.1324 2.28516L9.94375 2.16016L9.75508 2.28906L9.8207 2.07422L9.63613 1.9375L9.86582 1.93359L9.93965 1.71875L10.0176 1.92578ZM8.7584 3.28516H8.98809L8.80352 3.42578L8.87324 3.64062L8.68457 3.51172L8.4959 3.64453L8.56152 3.42578L8.37695 3.29297L8.60664 3.28516L8.68047 3.07031L8.7584 3.28516Z" fill="white"/>
<path fill-rule="evenodd" clip-rule="evenodd" d="M0.198242 0H6.94941V20H0.198242V0Z" fill="#CA3745"/>
<path fill-rule="evenodd" clip-rule="evenodd" d="M0.198242 5.21484V5.07031L0.477148 4.71484L0.423828 4.64063L0.587891 4.42969L0.53457 4.35547L0.423828 4.5L0.366406 4.42969L0.760156 3.92969L0.817578 4L0.760156 4.07031L0.875 4.21875L1.15391 3.85938L0.870898 3.51172L0.760156 3.64453L0.817578 3.71875L0.760156 3.78906L0.366406 3.28906L0.423828 3.21875L0.53457 3.35938L0.591992 3.28906L0.423828 3.07422L0.477148 3.00391L0.198242 2.64453V2.5L0.591992 3L0.53457 3.07031L0.702734 3.28516L0.591992 3.42969L0.702734 3.57031L0.875 3.35938L1.27285 3.86719L0.875 4.35937L0.710937 4.14453L0.596094 4.28906L0.706836 4.43359L0.542773 4.64453L0.596094 4.71875L0.202344 5.21875L0.198242 5.21484Z" fill="#FAAE29"/>
<path fill-rule="evenodd" clip-rule="evenodd" d="M0.198242 3.42969L0.255664 3.57031V3.78906H0.423828L0.538672 3.85938L0.423828 3.93359H0.259766V4.14453L0.202344 4.28906V3.42969H0.198242Z" fill="#FAAE29"/>
<path fill-rule="evenodd" clip-rule="evenodd" d="M0.198242 8.64453V8.5L0.477148 8.14453L0.423828 8.07031L0.587891 7.85547L0.53457 7.78516L0.423828 7.92969L0.366406 7.85547L0.760156 7.35547L0.817578 7.42969L0.760156 7.5L0.875 7.64453L1.15391 7.28516L0.870899 6.9375L0.760156 7.07031L0.817578 7.14453L0.760156 7.21484L0.366406 6.71484L0.423828 6.64063L0.53457 6.78125L0.591992 6.71094L0.423828 6.49609L0.477148 6.42578L0.198242 6.06641V5.92578L0.591992 6.42578L0.53457 6.49609L0.702734 6.71094L0.591992 6.85156L0.702734 6.99609L0.870899 6.78125L1.26875 7.28906L0.870899 7.78125L0.706836 7.56641L0.591992 7.71094L0.702734 7.85156L0.538672 8.06641L0.591992 8.14062L0.198242 8.64062V8.64453Z" fill="#FAAE29"/>
<path fill-rule="evenodd" clip-rule="evenodd" d="M0.198242 6.85547L0.255664 7V7.21484H0.423828L0.538672 7.28516L0.423828 7.35547H0.259766V7.57031L0.202344 7.71484V6.85547H0.198242Z" fill="#FAAE29"/>
<path fill-rule="evenodd" clip-rule="evenodd" d="M0.198242 12.0703V11.9297L0.477148 11.5703L0.423828 11.5L0.587891 11.2852L0.53457 11.2148L0.423828 11.3555L0.366406 11.2852L0.760156 10.7852L0.817578 10.8555L0.760156 10.9297L0.875 11.0742L1.15391 10.7148L0.870899 10.3633L0.760156 10.5L0.817578 10.5703L0.760156 10.6406L0.366406 10.1406L0.423828 10.0703L0.53457 10.2148L0.591992 10.1406L0.423828 9.92969L0.477148 9.85547L0.198242 9.5V9.35547L0.591992 9.85547L0.53457 9.92969L0.702734 10.1406L0.591992 10.2852L0.702734 10.4297L0.875 10.2148L1.26875 10.7227L0.870899 11.2148L0.706836 11L0.591992 11.1406L0.702734 11.2852L0.538672 11.5L0.591992 11.5703L0.198242 12.0703Z" fill="#FAAE29"/>
<path fill-rule="evenodd" clip-rule="evenodd" d="M0.198242 10.2852L0.259766 10.4297V10.6445H0.423828L0.538672 10.7148L0.423828 10.7812H0.259766V10.9961L0.202344 11.1406V10.2812L0.198242 10.2852Z" fill="#FAAE29"/>
<path fill-rule="evenodd" clip-rule="evenodd" d="M0.198242 15.2852V15.1406L0.477148 14.7852L0.423828 14.7148L0.587891 14.5L0.53457 14.4297L0.423828 14.5703L0.366406 14.5L0.760156 14L0.817578 14.0703L0.760156 14.1406L0.875 14.2852L1.15391 13.9297L0.870899 13.5781L0.760156 13.7148L0.817578 13.7852L0.760156 13.8555L0.366406 13.3555L0.423828 13.2852L0.53457 13.4297L0.591992 13.3555L0.423828 13.1406L0.477148 13.0703L0.198242 12.7148V12.5703L0.591992 13.0703L0.53457 13.1406L0.702734 13.3555L0.591992 13.5L0.702734 13.6406L0.875 13.4297L1.26875 13.9375L0.870899 14.4297L0.706836 14.2148L0.591992 14.3555L0.702734 14.5L0.538672 14.7148L0.591992 14.7852L0.198242 15.2852Z" fill="#FAAE29"/>
<path fill-rule="evenodd" clip-rule="evenodd" d="M0.198242 13.5L0.255664 13.6406V13.8555H0.423828L0.538672 13.9297L0.423828 14H0.259766V14.2148L0.202344 14.3555V13.4961L0.198242 13.5Z" fill="#FAAE29"/>
<path fill-rule="evenodd" clip-rule="evenodd" d="M6.94941 5.21484V5.07031L6.67051 4.71484L6.72793 4.64063L6.55977 4.42969L6.61309 4.35547L6.72793 4.5L6.78535 4.42969L6.3916 3.92969L6.33418 4L6.3916 4.07031L6.27266 4.21484L5.99785 3.85547L6.27676 3.50781L6.3916 3.64062L6.33418 3.71484L6.3875 3.78516L6.78125 3.28516L6.72793 3.21484L6.61309 3.35547L6.55977 3.28516L6.72383 3.07031L6.67051 3L6.94941 2.64062V2.5L6.55977 3L6.61309 3.07031L6.44902 3.28516L6.55977 3.42969L6.44492 3.57031L6.27676 3.35547L5.87891 3.86328L6.27676 4.35547L6.44492 4.14062L6.55977 4.28516L6.44492 4.42969L6.61309 4.64063L6.55977 4.71484L6.94941 5.21484Z" fill="#FAAE29"/>
<path fill-rule="evenodd" clip-rule="evenodd" d="M6.94961 3.42969L6.89219 3.57031V3.78906H6.72813L6.61328 3.85938L6.72402 3.93359H6.89219V4.14453L6.94961 4.28906V3.42969Z" fill="#FAAE29"/>
<path fill-rule="evenodd" clip-rule="evenodd" d="M6.96992 8.64453V8.5L6.69102 8.14453L6.74434 8.07031L6.58027 7.85547L6.63359 7.78516L6.74434 7.92969L6.80176 7.85547L6.40801 7.35547L6.35059 7.42969L6.40801 7.5L6.29316 7.64453L6.01426 7.28516L6.29727 6.9375L6.40801 7.07031L6.35059 7.14062L6.40801 7.21484L6.80176 6.71484L6.74434 6.64062L6.63359 6.78516L6.57617 6.71484L6.74434 6.5L6.69102 6.42969L6.96992 6.07031V5.92969L6.57617 6.42969L6.63359 6.5L6.46543 6.71484L6.57617 6.85547L6.46543 7L6.29727 6.78516L5.89941 7.29297L6.29727 7.78516L6.46133 7.57031L6.57617 7.71484L6.46543 7.85547L6.62949 8.07031L6.57617 8.14062L6.96992 8.64062V8.64453Z" fill="#FAAE29"/>
<path fill-rule="evenodd" clip-rule="evenodd" d="M6.96953 6.85547L6.91211 7V7.21484H6.73984L6.625 7.28516L6.73984 7.35547H6.90391V7.57031L6.96543 7.71484V6.85547H6.96953Z" fill="#FAAE29"/>
<path fill-rule="evenodd" clip-rule="evenodd" d="M6.94941 12.0703V11.9297L6.67051 11.5703L6.72793 11.5L6.55977 11.2852L6.61309 11.2148L6.72793 11.3555L6.78535 11.2852L6.3916 10.7852L6.33418 10.8555L6.3916 10.9297L6.27266 11.0742L5.99785 10.7148L6.27676 10.3633L6.3916 10.5L6.33418 10.5703L6.3875 10.6406L6.78125 10.1406L6.72793 10.0703L6.61309 10.2148L6.55977 10.1406L6.72383 9.92969L6.67051 9.85547L6.94941 9.5V9.35547L6.55977 9.85547L6.61309 9.92969L6.44902 10.1406L6.55977 10.2852L6.44492 10.4297L6.27676 10.2148L5.87891 10.7227L6.27676 11.2148L6.44492 11L6.55977 11.1406L6.44492 11.2852L6.61309 11.5L6.55977 11.5703L6.94531 12.0703H6.94941Z" fill="#FAAE29"/>
<path fill-rule="evenodd" clip-rule="evenodd" d="M6.94961 10.2852L6.89219 10.4297V10.6445H6.72813L6.61328 10.7148L6.72402 10.7852H6.89219V11L6.94961 11.1445V10.2852Z" fill="#FAAE29"/>
<path fill-rule="evenodd" clip-rule="evenodd" d="M6.94941 15.2852V15.1406L6.67051 14.7852L6.72793 14.7148L6.55977 14.5L6.61309 14.4297L6.72793 14.5703L6.78535 14.5L6.3916 14L6.33418 14.0703L6.3916 14.1406L6.27266 14.2852L5.99785 13.9297L6.27676 13.5781L6.3916 13.7148L6.33418 13.7852L6.3875 13.8555L6.78125 13.3594L6.72793 13.2891L6.61309 13.4336L6.55977 13.3594L6.72383 13.1445L6.67051 13.0742L6.94941 12.7188V12.5742L6.55977 13.0742L6.61309 13.1445L6.44902 13.3594L6.55977 13.5039L6.44492 13.6445L6.27676 13.4336L5.87891 13.9414L6.27676 14.4336L6.44492 14.2188L6.55977 14.3594L6.44492 14.5039L6.61309 14.7187L6.55977 14.7891L6.94941 15.2891V15.2852Z" fill="#FAAE29"/>
<path fill-rule="evenodd" clip-rule="evenodd" d="M6.94961 13.5L6.89219 13.6406V13.8555H6.72813L6.61328 13.9297L6.72402 14H6.89219V14.2148L6.94961 14.3555V13.4961V13.5Z" fill="#FAAE29"/>
<path fill-rule="evenodd" clip-rule="evenodd" d="M0.198437 1.35547V1.21484L0.477344 0.855469L0.424023 0.785156L0.588086 0.570313L0.534766 0.5L0.424023 0.644531L0.366601 0.570313L0.760352 0.0703125L0.817773 0.144531L0.760352 0.214844L0.875195 0.359375L1.1541 0H1.26895L0.875195 0.5L0.70293 0.285156L0.592187 0.429688L0.70293 0.570313L0.538867 0.785156L0.588086 0.859375L0.198437 1.35938V1.35547ZM0.198437 0H0.538867L0.424023 0.0703125H0.259961V0.285156L0.194336 0.429688V0H0.198437ZM6.94961 1.35547V1.21484L6.6707 0.855469L6.72813 0.785156L6.55996 0.570313L6.61328 0.5L6.72813 0.644531L6.78145 0.570313L6.3877 0.0703125L6.33438 0.144531L6.3877 0.214844L6.27285 0.359375L5.99395 0H5.8791L6.27695 0.5L6.44512 0.285156L6.55996 0.429688L6.44512 0.570313L6.61328 0.785156L6.55996 0.855469L6.94961 1.35547ZM6.94961 0H6.61328L6.72402 0.0703125H6.89219V0.285156L6.94961 0.429688V0ZM3.01211 19.7148C3.01211 19.7148 3.2582 19.3086 3.86523 19.1875C4.47637 19.0625 4.58301 19.457 4.93164 19.457C5.28027 19.457 5.83398 19.1836 5.83398 19.1836C5.83398 19.1836 5.28027 19.7031 4.84961 19.6914C4.42715 19.6797 4.28359 19.418 3.84473 19.457C3.40996 19.4961 3.01211 19.7266 3.01211 19.7148Z" fill="#FAAE29"/>
<path fill-rule="evenodd" clip-rule="evenodd" d="M4.18887 19.7149C4.18887 19.7149 3.94688 19.3087 3.33984 19.1876C2.72461 19.0626 2.62207 19.4571 2.27344 19.4571C1.9248 19.4571 1.37109 19.1837 1.37109 19.1837C1.37109 19.1837 1.9248 19.7032 2.35137 19.6915C2.77793 19.6797 2.92559 19.418 3.35625 19.4571C3.79512 19.4962 4.18887 19.7266 4.18887 19.7149Z" fill="#FAAE29"/>
<path fill-rule="evenodd" clip-rule="evenodd" d="M2.19592 19.0428C2.1426 18.9373 2.00725 18.4685 2.07697 18.4099C2.18772 18.3709 2.47482 18.8514 2.44611 19.2771C2.25744 19.3748 1.6258 19.2381 1.6299 19.1131C1.67502 18.9373 2.03596 18.9959 2.19592 19.0428Z" fill="#FAAE29"/>
<path fill-rule="evenodd" clip-rule="evenodd" d="M1.81096 18.6329C1.77815 18.5157 1.72072 18.0235 1.80276 17.9845C1.9135 17.9766 2.11447 18.5196 2.02014 18.9298C1.81916 18.9766 1.22033 18.6759 1.24904 18.5548C1.32287 18.3985 1.6592 18.547 1.81096 18.6329Z" fill="#FAAE29"/>
<path fill-rule="evenodd" clip-rule="evenodd" d="M1.49899 18.1797C1.47438 18.0547 1.46618 17.5547 1.54821 17.5312C1.65895 17.5391 1.81071 18.1094 1.67946 18.5039C1.47438 18.5195 0.908367 18.1289 0.949383 18.0156C1.03141 17.8672 1.35954 18.0664 1.49899 18.1797Z" fill="#FAAE29"/>
<path fill-rule="evenodd" clip-rule="evenodd" d="M1.25289 17.6953C1.24469 17.5664 1.29391 17.0703 1.38004 17.0625C1.49079 17.0898 1.56872 17.6836 1.38825 18.0469C1.18727 18.0234 0.674575 17.5273 0.731996 17.4219C0.830434 17.293 1.12985 17.5547 1.25289 17.6953Z" fill="#FAAE29"/>
<path fill-rule="evenodd" clip-rule="evenodd" d="M1.08043 17.1836C1.08864 17.0547 1.19528 16.5781 1.28141 16.5821C1.38395 16.6328 1.39625 17.2305 1.17887 17.5586C0.981997 17.4961 0.526723 16.9141 0.592348 16.8164C0.711294 16.7071 0.973794 17.0235 1.08454 17.1836H1.08043Z" fill="#FAAE29"/>
<path fill-rule="evenodd" clip-rule="evenodd" d="M1.1292 16.6016C1.11689 17.1094 1.01845 17.1172 0.842086 16.7422C0.760055 16.5977 0.751852 16.0117 0.821578 15.9883C0.924117 15.9883 1.12509 16.4063 1.1292 16.6016Z" fill="#FAAE29"/>
<path fill-rule="evenodd" clip-rule="evenodd" d="M4.97631 19.1014C5.02963 18.992 5.16499 18.5232 5.09526 18.4647C4.98452 18.4256 4.70151 18.9022 4.72612 19.3318C4.91479 19.4295 5.55053 19.2928 5.54233 19.1678C5.49721 18.992 5.14038 19.0506 4.97631 19.0975V19.1014Z" fill="#FAAE29"/>
<path fill-rule="evenodd" clip-rule="evenodd" d="M5.36193 18.6876C5.39884 18.5704 5.45216 18.0782 5.37423 18.0391C5.26349 18.0313 5.05841 18.5704 5.15685 18.9845C5.35372 19.0313 5.95665 18.7306 5.92384 18.6095C5.85411 18.4493 5.51368 18.6016 5.36193 18.6876Z" fill="#FAAE29"/>
<path fill-rule="evenodd" clip-rule="evenodd" d="M5.6731 18.2344C5.69771 18.1094 5.70591 17.6094 5.62388 17.5859C5.51314 17.5938 5.36138 18.1602 5.49673 18.5547C5.70181 18.5703 6.26782 18.1836 6.22681 18.0664C6.13657 17.918 5.81665 18.1211 5.6731 18.2344Z" fill="#FAAE29"/>
<path fill-rule="evenodd" clip-rule="evenodd" d="M5.91952 17.7461C5.92772 17.6211 5.8785 17.125 5.79237 17.1172C5.68163 17.1445 5.6037 17.7383 5.78416 18.1016C5.98924 18.0781 6.49784 17.582 6.44452 17.4766C6.34198 17.3437 6.04666 17.6094 5.91952 17.7461Z" fill="#FAAE29"/>
<path fill-rule="evenodd" clip-rule="evenodd" d="M6.09232 17.2345C6.08821 17.1095 5.97747 16.629 5.89544 16.6368C5.7888 16.6837 5.77649 17.2853 5.99798 17.6134C6.19485 17.5509 6.64603 16.9688 6.5804 16.8712C6.46146 16.7618 6.19896 17.0782 6.08821 17.2345H6.09232Z" fill="#FAAE29"/>
<path fill-rule="evenodd" clip-rule="evenodd" d="M6.04297 16.6562C6.05938 17.1641 6.15371 17.168 6.33008 16.793C6.41211 16.6523 6.42031 16.0625 6.35059 16.043C6.24805 16.043 6.04707 16.4609 6.04297 16.6562Z" fill="#FAAE29"/>
<path fill-rule="evenodd" clip-rule="evenodd" d="M5.90309 12.8482H5.56737V13.0627H5.24387V13.2772H3.94985L3.73012 13.4978L3.83999 13.6081H4.38323L4.48699 13.4978H3.94985L4.05362 13.3875H4.8105L4.48699 13.7123H3.73622L3.52259 13.6081L3.30285 13.7123H2.54597L2.22247 13.3875H2.97934L3.08921 13.4978H2.54597L2.65584 13.6081H3.19908L3.30285 13.4978L3.08921 13.2772H1.89896V13.0627H1.57546V12.8482H1.25195V11.8677H1.57546V11.6533H1.89896V11.4327H3.08921L3.30285 11.2182L3.19908 11.1079H2.65584L2.54597 11.2182H3.08921L2.97934 11.3223H2.22247L2.54597 10.9976H3.30895L3.52869 11.1079L3.74232 10.9976H4.4992L4.82271 11.3223H4.06583L3.96206 11.2182H4.4992L4.38933 11.1079H3.85219L3.73622 11.2182L3.95596 11.4327H5.24997V11.6533H5.57348V11.8677H5.90309V12.8482Z" fill="#CA3745" stroke="black" stroke-width="0.143245"/>
<path fill-rule="evenodd" clip-rule="evenodd" d="M1.36035 11.9817V12.7416H1.68385V12.9561H2.00735V13.1705H3.09077L3.52414 13.4984L3.95445 13.1736H5.14469V12.9591L5.46819 12.9561V12.7416H5.79779V11.9786H5.47124V11.7641H5.14774V11.5435H3.95751L3.52719 11.2188L3.09382 11.5435H2.0104V11.7641H1.6869V11.9786H1.3634L1.36035 11.9817Z" fill="#00843D" stroke="#FAAE29" stroke-width="1.00271"/>
<path fill-rule="evenodd" clip-rule="evenodd" d="M2.87256 11.6499L2.22461 12.1935V11.6499H2.87256ZM4.16846 11.6499L4.82051 12.1935V11.6499H4.16846ZM2.87256 13.0633L2.22461 12.5197V13.0633H2.87256ZM4.16846 13.0633L4.82051 12.5197V13.0633H4.16846ZM4.38581 11.9761L4.16846 12.1935H4.60316L4.38581 11.9761ZM2.65521 11.9761L2.44196 12.1935H2.87256L2.65521 11.9761ZM2.65521 12.7371L2.44196 12.5197H2.87256L2.65521 12.7371ZM4.38581 12.7371L4.16846 12.5197H4.60316L4.38581 12.7371Z" fill="#CA3745"/>
<path fill-rule="evenodd" clip-rule="evenodd" d="M3.52106 13.2809L3.30371 13.0635H3.73841L3.52106 13.2809ZM3.52106 12.1937L3.30371 11.9762H3.73841L3.52106 12.1937ZM3.52106 11.4326L3.30371 11.655H3.73841L3.52106 11.4326ZM3.52106 12.5199L3.30371 12.7373H3.73841L3.52106 12.5199Z" fill="#FAAE29"/>
<path fill-rule="evenodd" clip-rule="evenodd" d="M4.1709 12.1963H4.60732V12.3035H4.17395L4.1709 12.1963Z" fill="#FAAE29" stroke="black" stroke-width="0.0716222"/>
<path fill-rule="evenodd" clip-rule="evenodd" d="M2.55078 12.3037H2.76441V12.414H2.55078V12.3037ZM4.2812 12.3037H4.49483V12.414H4.2812V12.3037Z" fill="#CC0000" stroke="black" stroke-width="0.0716222"/>
<path fill-rule="evenodd" clip-rule="evenodd" d="M3.30762 11.6538H3.73793V11.761H3.30762V11.6538ZM3.30762 11.8683H3.73793V11.9786H3.30762V11.8683Z" fill="#990000" stroke="black" stroke-width="0.0716222"/>
<path fill-rule="evenodd" clip-rule="evenodd" d="M3.19727 11.7612H3.84732V11.8715H3.19727V11.7612ZM3.30713 12.7417H3.73745V12.8459H3.30713V12.7417ZM3.30713 12.9562H3.73745V13.0634H3.30713V12.9562ZM3.19727 12.849H3.84732V12.9562H3.19727V12.849Z" fill="#990000" stroke="black" stroke-width="0.0716222"/>
<path fill-rule="evenodd" clip-rule="evenodd" d="M4.17122 12.4138H4.60764V12.5211H4.17427L4.17122 12.4138ZM2.4408 12.1963H2.87417V12.3035H2.4408V12.1963ZM2.4408 12.4108H2.87417V12.5211H2.4408V12.4108ZM2.33398 12.3035H2.54762V12.4138H2.33398V12.3035ZM2.76735 12.3035H2.98098V12.4138H2.76735V12.3035ZM4.0644 12.3035H4.27803V12.4138H4.0644V12.3035ZM4.49777 12.3035H4.7114V12.4138H4.49777V12.3035Z" fill="#FAAE29" stroke="black" stroke-width="0.0716222"/>
<path d="M3.25696 12.9253C3.27213 12.9253 3.28443 12.9129 3.28443 12.8977C3.28443 12.8825 3.27213 12.8701 3.25696 12.8701C3.24179 12.8701 3.22949 12.8825 3.22949 12.8977C3.22949 12.9129 3.24179 12.9253 3.25696 12.9253Z" fill="white"/>
<path d="M3.52356 12.9253C3.53873 12.9253 3.55103 12.9129 3.55103 12.8977C3.55103 12.8825 3.53873 12.8701 3.52356 12.8701C3.50839 12.8701 3.49609 12.8825 3.49609 12.8977C3.49609 12.9129 3.50839 12.9253 3.52356 12.9253Z" fill="white"/>
<path d="M3.79407 12.9253C3.80924 12.9253 3.82154 12.9129 3.82154 12.8977C3.82154 12.8825 3.80924 12.8701 3.79407 12.8701C3.7789 12.8701 3.7666 12.8825 3.7666 12.8977C3.7666 12.9129 3.7789 12.9253 3.79407 12.9253Z" fill="white"/>
<path d="M3.36341 12.8213C3.37857 12.8213 3.39087 12.8089 3.39087 12.7937C3.39087 12.7785 3.37857 12.7661 3.36341 12.7661C3.34824 12.7661 3.33594 12.7785 3.33594 12.7937C3.33594 12.8089 3.34824 12.8213 3.36341 12.8213Z" fill="white"/>
<path d="M3.68372 12.8213C3.69889 12.8213 3.71118 12.8089 3.71118 12.7937C3.71118 12.7785 3.69889 12.7661 3.68372 12.7661C3.66855 12.7661 3.65625 12.7785 3.65625 12.7937C3.65625 12.8089 3.66855 12.8213 3.68372 12.8213Z" fill="white"/>
<path d="M3.3595 13.0337C3.37467 13.0337 3.38697 13.0213 3.38697 13.0061C3.38697 12.9909 3.37467 12.9785 3.3595 12.9785C3.34433 12.9785 3.33203 12.9909 3.33203 13.0061C3.33203 13.0213 3.34433 13.0337 3.3595 13.0337Z" fill="white"/>
<path d="M3.68372 13.0386C3.69889 13.0386 3.71118 13.0262 3.71118 13.011C3.71118 12.9957 3.69889 12.9834 3.68372 12.9834C3.66855 12.9834 3.65625 12.9957 3.65625 13.011C3.65625 13.0262 3.66855 13.0386 3.68372 13.0386Z" fill="white"/>
<path d="M4.11438 12.3813C4.12955 12.3813 4.14185 12.369 4.14185 12.3537C4.14185 12.3385 4.12955 12.3262 4.11438 12.3262C4.09921 12.3262 4.08691 12.3385 4.08691 12.3537C4.08691 12.369 4.09921 12.3813 4.11438 12.3813Z" fill="white"/>
<path d="M4.38489 12.3813C4.40006 12.3813 4.41236 12.369 4.41236 12.3537C4.41236 12.3385 4.40006 12.3262 4.38489 12.3262C4.36972 12.3262 4.35742 12.3385 4.35742 12.3537C4.35742 12.369 4.36972 12.3813 4.38489 12.3813Z" fill="white"/>
<path d="M4.6554 12.3813C4.67057 12.3813 4.68286 12.369 4.68286 12.3537C4.68286 12.3385 4.67057 12.3262 4.6554 12.3262C4.64023 12.3262 4.62793 12.3385 4.62793 12.3537C4.62793 12.369 4.64023 12.3813 4.6554 12.3813Z" fill="white"/>
<path d="M4.22473 12.2729C4.2399 12.2729 4.2522 12.2606 4.2522 12.2454C4.2522 12.2301 4.2399 12.2178 4.22473 12.2178C4.20956 12.2178 4.19727 12.2301 4.19727 12.2454C4.19727 12.2606 4.20956 12.2729 4.22473 12.2729Z" fill="white"/>
<path d="M4.54505 12.2729C4.56022 12.2729 4.57251 12.2606 4.57251 12.2454C4.57251 12.2301 4.56022 12.2178 4.54505 12.2178C4.52988 12.2178 4.51758 12.2301 4.51758 12.2454C4.51758 12.2606 4.52988 12.2729 4.54505 12.2729Z" fill="white"/>
<path d="M4.22083 12.4853C4.236 12.4853 4.24829 12.473 4.24829 12.4578C4.24829 12.4425 4.236 12.4302 4.22083 12.4302C4.20566 12.4302 4.19336 12.4425 4.19336 12.4578C4.19336 12.473 4.20566 12.4853 4.22083 12.4853Z" fill="white"/>
<path d="M4.54505 12.4902C4.56022 12.4902 4.57251 12.4779 4.57251 12.4626C4.57251 12.4474 4.56022 12.4351 4.54505 12.4351C4.52988 12.4351 4.51758 12.4474 4.51758 12.4626C4.51758 12.4779 4.52988 12.4902 4.54505 12.4902Z" fill="white"/>
<path d="M3.25305 11.8428C3.26822 11.8428 3.28052 11.8304 3.28052 11.8152C3.28052 11.7999 3.26822 11.7876 3.25305 11.7876C3.23788 11.7876 3.22559 11.7999 3.22559 11.8152C3.22559 11.8304 3.23788 11.8428 3.25305 11.8428Z" fill="white"/>
<path d="M3.52356 11.8428C3.53873 11.8428 3.55103 11.8304 3.55103 11.8152C3.55103 11.7999 3.53873 11.7876 3.52356 11.7876C3.50839 11.7876 3.49609 11.7999 3.49609 11.8152C3.49609 11.8304 3.50839 11.8428 3.52356 11.8428Z" fill="white"/>
<path d="M3.79407 11.8379C3.80924 11.8379 3.82154 11.8255 3.82154 11.8103C3.82154 11.7951 3.80924 11.7827 3.79407 11.7827C3.7789 11.7827 3.7666 11.7951 3.7666 11.8103C3.7666 11.8255 3.7789 11.8379 3.79407 11.8379Z" fill="white"/>
<path d="M3.3595 11.7339C3.37467 11.7339 3.38697 11.7215 3.38697 11.7063C3.38697 11.6911 3.37467 11.6787 3.3595 11.6787C3.34433 11.6787 3.33203 11.6911 3.33203 11.7063C3.33203 11.7215 3.34433 11.7339 3.3595 11.7339Z" fill="white"/>
<path d="M3.68372 11.7339C3.69889 11.7339 3.71118 11.7215 3.71118 11.7063C3.71118 11.6911 3.69889 11.6787 3.68372 11.6787C3.66855 11.6787 3.65625 11.6911 3.65625 11.7063C3.65625 11.7215 3.66855 11.7339 3.68372 11.7339Z" fill="white"/>
<path d="M3.3595 11.9468C3.37467 11.9468 3.38697 11.9344 3.38697 11.9192C3.38697 11.9039 3.37467 11.8916 3.3595 11.8916C3.34433 11.8916 3.33203 11.9039 3.33203 11.9192C3.33203 11.9344 3.34433 11.9468 3.3595 11.9468Z" fill="white"/>
<path d="M3.68372 11.9516C3.69889 11.9516 3.71118 11.9393 3.71118 11.9241C3.71118 11.9088 3.69889 11.8965 3.68372 11.8965C3.66855 11.8965 3.65625 11.9088 3.65625 11.9241C3.65625 11.9393 3.66855 11.9516 3.68372 11.9516Z" fill="white"/>
<path d="M2.38782 12.3911C2.40299 12.3911 2.41529 12.3787 2.41529 12.3635C2.41529 12.3483 2.40299 12.3359 2.38782 12.3359C2.37265 12.3359 2.36035 12.3483 2.36035 12.3635C2.36035 12.3787 2.37265 12.3911 2.38782 12.3911Z" fill="white"/>
<path d="M2.65833 12.3911C2.6735 12.3911 2.68579 12.3787 2.68579 12.3635C2.68579 12.3483 2.6735 12.3359 2.65833 12.3359C2.64316 12.3359 2.63086 12.3483 2.63086 12.3635C2.63086 12.3787 2.64316 12.3911 2.65833 12.3911Z" fill="white"/>
<path d="M2.92883 12.3862C2.944 12.3862 2.9563 12.3739 2.9563 12.3586C2.9563 12.3434 2.944 12.3311 2.92883 12.3311C2.91367 12.3311 2.90137 12.3434 2.90137 12.3586C2.90137 12.3739 2.91367 12.3862 2.92883 12.3862Z" fill="white"/>
<path d="M2.49817 12.2827C2.51334 12.2827 2.52564 12.2703 2.52564 12.2551C2.52564 12.2399 2.51334 12.2275 2.49817 12.2275C2.483 12.2275 2.4707 12.2399 2.4707 12.2551C2.4707 12.2703 2.483 12.2827 2.49817 12.2827Z" fill="white"/>
<path d="M2.81848 12.2827C2.83365 12.2827 2.84595 12.2703 2.84595 12.2551C2.84595 12.2399 2.83365 12.2275 2.81848 12.2275C2.80331 12.2275 2.79102 12.2399 2.79102 12.2551C2.79102 12.2703 2.80331 12.2827 2.81848 12.2827Z" fill="white"/>
<path d="M2.49426 12.4951C2.50943 12.4951 2.52173 12.4827 2.52173 12.4675C2.52173 12.4523 2.50943 12.4399 2.49426 12.4399C2.47909 12.4399 2.4668 12.4523 2.4668 12.4675C2.4668 12.4827 2.47909 12.4951 2.49426 12.4951Z" fill="white"/>
<path d="M2.81848 12.5C2.83365 12.5 2.84595 12.4876 2.84595 12.4724C2.84595 12.4572 2.83365 12.4448 2.81848 12.4448C2.80331 12.4448 2.79102 12.4572 2.79102 12.4724C2.79102 12.4876 2.80331 12.5 2.81848 12.5Z" fill="white"/>
<path fill-rule="evenodd" clip-rule="evenodd" d="M3.94668 9.99219L4.13125 9.90625L4.31992 9.99219H3.94668ZM3.38887 9.99219L3.57344 9.90625L3.76211 9.99219H3.38887ZM2.83105 9.99219L3.01563 9.90625L3.2043 9.99219H2.83105ZM3.94668 8.07812L4.13125 8.16406L4.31992 8.08203H3.94668V8.07812ZM3.38887 8.07812L3.57344 8.16406L3.76211 8.08203H3.38887V8.07812ZM2.83105 8.07812L3.01563 8.16406L3.2043 8.08203H2.83105V8.07812Z" fill="white"/>
<path fill-rule="evenodd" clip-rule="evenodd" d="M3.79121 10.2383L3.57383 10.4062L3.35645 10.2383L3.13906 10.4062L2.92168 10.2383V10.3242L3.06934 10.4023L2.99551 10.4883V10.5703H3.06934L3.13906 10.4922L3.21289 10.5703H3.28672V10.4922L3.21289 10.4062L3.35645 10.3242L3.5041 10.4023L3.43027 10.4883V10.5703H3.5041L3.57383 10.4922L3.64766 10.5703H3.71738V10.4922L3.64766 10.4062L3.79121 10.3242L3.93477 10.4023L3.86504 10.4883V10.5703H3.93477L4.00859 10.4922L4.08242 10.5703H4.15215V10.4922L4.08242 10.4062L4.22598 10.3242V10.2344L4.00859 10.4023L3.79121 10.2344V10.2383ZM3.79121 7.83203L3.57383 7.66406L3.35645 7.83203L3.13906 7.66406L2.92168 7.83203V7.75L3.06934 7.66406L2.99551 7.58594V7.5H3.06934L3.13906 7.58203L3.21289 7.5H3.28672V7.58203L3.21289 7.66797L3.35645 7.74609L3.5041 7.66797L3.43027 7.58203V7.5H3.5041L3.57383 7.58203L3.64766 7.5H3.71738V7.58203L3.64766 7.66797L3.79121 7.74609L3.93477 7.66797L3.86504 7.58203V7.5H3.93477L4.00859 7.58203L4.08242 7.5H4.15215V7.58203L4.08242 7.66797L4.22598 7.74609V7.83203L4.00859 7.66406L3.79121 7.83203ZM5.43184 9.21484L5.66973 9.03516L5.43594 8.85547L5.66973 8.67578L5.43594 8.49609H5.55078L5.66973 8.61328L5.78457 8.55469H5.89941V8.61719L5.78457 8.67578L5.89941 8.73438V8.79687H5.78457L5.66973 8.73438L5.55078 8.85547L5.66973 8.97266L5.78457 8.91797H5.89941V8.97656L5.78457 9.03516L5.89941 9.09375V9.15625H5.78457L5.66973 9.09375L5.55078 9.21484L5.66973 9.33203L5.78457 9.27344H5.89941V9.33594L5.78457 9.39453L5.89941 9.45703V9.51563H5.78457L5.66973 9.45703L5.55078 9.57422H5.43594L5.66973 9.39453L5.43594 9.21484H5.43184ZM1.71582 9.21484L1.48203 9.03516L1.71582 8.85547L1.48203 8.67578L1.71582 8.49609H1.59687L1.48203 8.61328L1.36719 8.55469H1.24414V8.61719L1.36719 8.67188L1.24824 8.73047V8.79297H1.36719L1.48203 8.73047L1.59687 8.85156L1.48203 8.96875L1.36719 8.91406H1.24414V8.97266L1.36309 9.03125L1.24414 9.08984V9.15234H1.36719L1.48203 9.08984L1.59687 9.21094L1.48203 9.33203L1.36719 9.27344H1.24414V9.33203L1.36309 9.39062L1.24414 9.45312V9.51172H1.36719L1.48203 9.45312L1.59687 9.57031H1.71582L1.48203 9.39062L1.71582 9.21094V9.21484Z" fill="#00843D"/>
<path fill-rule="evenodd" clip-rule="evenodd" d="M5.52429 9.82703H5.61877V9.90668H5.52429V9.82703ZM5.4298 9.90668H5.52429V9.99102H5.43505L5.4298 9.90668ZM4.96788 10.3237H5.06236V10.408H4.96788V10.3237ZM5.06236 10.2394H5.1516V10.3237H5.06236V10.2394ZM1.99159 10.2394H2.08608V10.3237H1.98634L1.99159 10.2394ZM1.52441 9.82703H1.6189V9.90668H1.52441V9.82703ZM1.6189 9.90668H1.71338V9.99102H1.6189V9.90668ZM1.6189 8.07932H1.71338V8.16366H1.6189V8.07932ZM1.52441 8.16366H1.6189V8.248H1.52441V8.16366ZM2.08608 7.66699H2.17531V7.75133H2.09133L2.08608 7.66699ZM1.99159 7.75133H2.08608V7.83567H1.98634L1.99159 7.75133ZM4.96788 7.66699H5.06236V7.75133H4.96788V7.66699ZM5.06236 7.75133H5.1516V7.83567H5.06236V7.75133ZM5.4298 8.07932H5.52429V8.16366H5.43505L5.4298 8.07932ZM5.52429 8.16835H5.61877V8.248H5.52429V8.16835ZM2.09133 10.3237H2.18056V10.408H2.09133V10.3237Z" fill="#00843D"/>
<path d="M5.52429 9.90668H5.61877V9.82703H5.52429V9.90668ZM5.52429 9.90668H5.4298L5.43505 9.99102H5.52429V9.90668ZM5.06236 10.3237H4.96788V10.408H5.06236V10.3237ZM5.06236 10.3237H5.1516V10.2394H5.06236V10.3237ZM1.6189 9.90668V9.82703H1.52441V9.90668H1.6189ZM1.6189 9.90668H1.71338V9.99102H1.6189V9.90668ZM1.6189 8.16366H1.71338V8.07932H1.6189V8.16366ZM1.6189 8.16366H1.52441V8.248H1.6189V8.16366ZM5.06236 7.75133V7.66699H4.96788V7.75133H5.06236ZM5.06236 7.75133H5.1516V7.83567H5.06236V7.75133ZM1.99159 10.2394H2.08608V10.3237H1.98634L1.99159 10.2394ZM2.08608 7.66699H2.17531V7.75133H2.09133L2.08608 7.66699ZM1.99159 7.75133H2.08608V7.83567H1.98634L1.99159 7.75133ZM5.4298 8.07932H5.52429V8.16366H5.43505L5.4298 8.07932ZM5.52429 8.16835H5.61877V8.248H5.52429V8.16835ZM2.09133 10.3237H2.18056V10.408H2.09133V10.3237Z" stroke="black" stroke-width="0.348469"/>
<path fill-rule="evenodd" clip-rule="evenodd" d="M3.29043 9.03516H3.01562V8.87109H3.2002V8.71875H3.38066V8.57812H3.56523V8.75391C3.41348 8.75391 3.29043 8.87109 3.29043 9.03516Z" fill="white"/>
<path fill-rule="evenodd" clip-rule="evenodd" d="M3.84023 9.03516H4.11504V8.87109H3.93047V8.71875H3.7459V8.57812H3.56543V8.75391C3.71719 8.75391 3.84023 8.87109 3.84023 9.03516Z" fill="#FAAE29"/>
<path fill-rule="evenodd" clip-rule="evenodd" d="M3.84023 9.03516H4.11504V9.19922H3.93047V9.35156H3.7459V9.49219H3.56543V9.31641C3.71719 9.31641 3.84023 9.19922 3.84023 9.03516Z" fill="white"/>
<path fill-rule="evenodd" clip-rule="evenodd" d="M3.29043 9.03516H3.01562V9.19922H3.2002V9.35156H3.38066V9.49219H3.56523V9.31641C3.41348 9.31641 3.29043 9.19922 3.29043 9.03516Z" fill="#FAAE29"/>
<path fill-rule="evenodd" clip-rule="evenodd" d="M3.84023 9.03516H3.56543V8.75391C3.71719 8.75391 3.84023 8.88281 3.84023 9.03516Z" fill="#00843D"/>
<path fill-rule="evenodd" clip-rule="evenodd" d="M3.84023 9.03516H3.56543V9.31641C3.71719 9.31641 3.84023 9.19141 3.84023 9.03516Z" fill="#CA3745"/>
<path fill-rule="evenodd" clip-rule="evenodd" d="M3.29102 9.03516H3.56582V9.31641C3.41406 9.31641 3.29102 9.19141 3.29102 9.03516Z" fill="#00843D"/>
<path fill-rule="evenodd" clip-rule="evenodd" d="M3.29102 9.03516H3.56582V8.75391C3.41406 8.75391 3.29102 8.88281 3.29102 9.03516Z" fill="#CA3745"/>
<path fill-rule="evenodd" clip-rule="evenodd" d="M3.85293 10.0742L3.57402 9.90625L3.29512 10.0742L3.01621 9.90625L2.7373 10.0742V9.99219L2.92188 9.90625L2.83164 9.82422V9.74219H2.92188L3.01621 9.82422L3.11055 9.74219H3.20488V9.82422L3.11055 9.90625L3.29512 9.99219L3.48379 9.90625L3.38945 9.82422V9.74219H3.48379L3.57402 9.82422L3.66836 9.74219H3.76269V9.82422L3.66836 9.90625L3.85293 9.99219L4.0416 9.90625L3.94727 9.82422V9.74219H4.0416L4.13184 9.82422L4.22617 9.74219H4.32051V9.82422L4.22617 9.90625L4.41074 9.99219V10.0703L4.13184 9.90625L3.85293 10.0742ZM3.85293 8L3.57402 8.16406L3.29512 8L3.01621 8.16406L2.7373 8V8.07813L2.92188 8.16406L2.83164 8.24609V8.33203H2.92188L3.01621 8.24609L3.11055 8.33203H3.20488V8.24219L3.11055 8.16406L3.29512 8.07813L3.48379 8.16016L3.38945 8.24219V8.32812H3.48379L3.57402 8.24219L3.66836 8.32812H3.76269V8.24219L3.66836 8.16406L3.85293 8.07813L4.0416 8.16016L3.94727 8.24219V8.32812H4.0416L4.13184 8.24219L4.22617 8.32812H4.32051V8.24219L4.22617 8.16406L4.41074 8.07813V7.99609L4.13184 8.16016L3.85293 7.99609V8ZM4.87832 9.24219L4.73887 9.03516L4.87832 8.82813L4.73887 8.62109L4.87832 8.41406H4.80859L4.73887 8.55078L4.66914 8.48047H4.59941V8.55078L4.66914 8.62109L4.59941 8.69141V8.75781H4.66914L4.73887 8.69141L4.80859 8.82813L4.73887 8.96484L4.66914 8.89844H4.59941V8.96484L4.66914 9.03516L4.59941 9.10547V9.17578H4.66914L4.73887 9.10547L4.80859 9.24219L4.73887 9.38281L4.66914 9.3125H4.59941V9.38281L4.66914 9.44922L4.59941 9.51953V9.58984H4.66914L4.73887 9.51953L4.80859 9.66016H4.87832L4.73887 9.44922L4.87832 9.24219Z" fill="#00843D"/>
<path fill-rule="evenodd" clip-rule="evenodd" d="M2.73843 8.08407L2.37099 8.41206V9.65842L2.73843 9.99109H4.41817L4.78561 9.6631V8.41675L4.41292 8.08407H2.73843ZM2.64395 7.83105L1.71484 8.66508V9.41477L2.6492 10.2394H4.50741L5.43651 9.41008V8.6604L4.50741 7.83105H2.6492H2.64395Z" fill="#00843D" stroke="black" stroke-width="0.464625"/>
<path fill-rule="evenodd" clip-rule="evenodd" d="M3.12529 10.0723L3.27227 10.2409L3.42345 10.0723H3.12109H3.12529Z" fill="#FAAE29" stroke="black" stroke-width="0.254484"/>
<path fill-rule="evenodd" clip-rule="evenodd" d="M3.12529 7.99805L3.27227 7.82937L3.42345 7.99805H3.12109H3.12529Z" fill="#FAAE29" stroke="black" stroke-width="0.254484"/>
<path fill-rule="evenodd" clip-rule="evenodd" d="M3.72393 7.99805L3.8709 7.82937L4.02208 7.99805H3.71973H3.72393Z" fill="#FAAE29" stroke="black" stroke-width="0.254484"/>
<path fill-rule="evenodd" clip-rule="evenodd" d="M3.72393 10.0723L3.8709 10.2409L4.02208 10.0723H3.71973H3.72393Z" fill="#FAAE29" stroke="black" stroke-width="0.254484"/>
<path fill-rule="evenodd" clip-rule="evenodd" d="M2.82939 7.99805L2.97637 7.82937L3.12755 7.99805H2.8252H2.82939Z" fill="#CA3745" stroke="black" stroke-width="0.254484"/>
<path fill-rule="evenodd" clip-rule="evenodd" d="M3.42412 7.99805L3.5711 7.82937L3.72227 7.99805H3.41992H3.42412Z" fill="#CA3745" stroke="black" stroke-width="0.254484"/>
<path fill-rule="evenodd" clip-rule="evenodd" d="M4.01885 7.99805L4.16582 7.82937L4.317 7.99805H4.01465H4.01885Z" fill="#CA3745" stroke="black" stroke-width="0.254484"/>
<path fill-rule="evenodd" clip-rule="evenodd" d="M2.46191 9.82434L2.73748 10.0703H2.46191V9.82434Z" fill="#CA3745" stroke="black" stroke-width="0.522668"/>
<path fill-rule="evenodd" clip-rule="evenodd" d="M2.26953 9.24219L2.41309 9.03516L2.26953 8.82813L2.40898 8.62109L2.26953 8.41406H2.33926L2.40898 8.55078L2.47871 8.48047H2.54844V8.55078L2.47871 8.62109L2.54844 8.69141V8.75781H2.47871L2.40898 8.69141L2.33926 8.82813L2.40898 8.96484L2.47871 8.89844H2.54844V8.96484L2.47871 9.03516L2.54844 9.10547V9.17578H2.47871L2.40898 9.10547L2.33926 9.24219L2.40898 9.38281L2.47871 9.3125H2.54844V9.38281L2.47871 9.44922L2.54844 9.51953V9.58984H2.47871L2.40898 9.51953L2.33926 9.66016H2.26953L2.40898 9.44922L2.26953 9.24219Z" fill="#00843D"/>
<path fill-rule="evenodd" clip-rule="evenodd" d="M4.96777 8.81086H5.34047L5.43495 8.88677L5.34047 8.96267H4.97302V8.80664L4.96777 8.81086Z" fill="#CA3745" stroke="black" stroke-width="0.330591"/>
<path fill-rule="evenodd" clip-rule="evenodd" d="M2.45985 8.24805L2.27088 8.41673V9.6584L2.45985 9.82708H2.18164V8.24805H2.45985Z" fill="#CA3745" stroke="black" stroke-width="0.464625"/>
<path fill-rule="evenodd" clip-rule="evenodd" d="M2.82939 10.0723L2.97637 10.2409L3.12755 10.0723H2.8252H2.82939Z" fill="#CA3745" stroke="black" stroke-width="0.254484"/>
<path fill-rule="evenodd" clip-rule="evenodd" d="M3.42412 10.0723L3.5711 10.2409L3.72227 10.0723H3.41992H3.42412Z" fill="#CA3745" stroke="black" stroke-width="0.254484"/>
<path fill-rule="evenodd" clip-rule="evenodd" d="M4.01885 10.0723L4.16582 10.2409L4.317 10.0723H4.01465H4.01885Z" fill="#CA3745" stroke="black" stroke-width="0.254484"/>
<path fill-rule="evenodd" clip-rule="evenodd" d="M4.68761 8.24805L4.87658 8.41673V9.6584L4.68761 9.82708H4.96582V8.24805H4.68761Z" fill="#CA3745" stroke="black" stroke-width="0.464625"/>
<path fill-rule="evenodd" clip-rule="evenodd" d="M4.68945 9.82434L4.41389 10.0703H4.68945V9.82434Z" fill="#CA3745" stroke="black" stroke-width="0.522668"/>
<path fill-rule="evenodd" clip-rule="evenodd" d="M4.68945 8.24597L4.41389 8H4.68945V8.24597Z" fill="#CA3745" stroke="black" stroke-width="0.522668"/>
<path fill-rule="evenodd" clip-rule="evenodd" d="M2.46191 8.24597L2.73748 8H2.46191V8.24597Z" fill="#CA3745" stroke="black" stroke-width="0.522668"/>
<path fill-rule="evenodd" clip-rule="evenodd" d="M2.7383 8.08385L2.37085 8.41184V9.6582L2.7383 9.99087H4.41803L4.78548 9.66288V8.41653L4.41278 8.08385H2.7383ZM2.7383 7.99951L2.27637 8.41184V9.6582L2.7383 10.0752H4.41803L4.87996 9.6582V8.41184L4.41278 7.99951H2.7383Z" fill="#00843D" stroke="black" stroke-width="0.464625"/>
<path fill-rule="evenodd" clip-rule="evenodd" d="M4.96777 8.95978H5.34047L5.43495 9.0357L5.34047 9.11161H4.97302V8.95557L4.96777 8.95978Z" fill="#FAAE29" stroke="black" stroke-width="0.330602"/>
<path fill-rule="evenodd" clip-rule="evenodd" d="M4.96777 9.10773H5.34047L5.43495 9.18364L5.34047 9.25955H4.97302V9.10352L4.96777 9.10773Z" fill="#CA3745" stroke="black" stroke-width="0.330591"/>
<path fill-rule="evenodd" clip-rule="evenodd" d="M4.96777 9.25666H5.34047L5.43495 9.33257L5.34047 9.40848H4.97302V9.25244L4.96777 9.25666Z" fill="#FAAE29" stroke="black" stroke-width="0.330602"/>
<path fill-rule="evenodd" clip-rule="evenodd" d="M4.96777 8.659H5.34047L5.43495 8.73492L5.34047 8.81083H4.97302V8.65479L4.96777 8.659Z" fill="#FAAE29" stroke="black" stroke-width="0.330602"/>
<path fill-rule="evenodd" clip-rule="evenodd" d="M2.17969 8.81086H1.807L1.71251 8.88677L1.807 8.96267H2.17444V8.80664L2.17969 8.81086Z" fill="#CA3745" stroke="black" stroke-width="0.330591"/>
<path fill-rule="evenodd" clip-rule="evenodd" d="M2.17969 8.95978H1.807L1.71251 9.0357L1.807 9.11161H2.17444V8.95557L2.17969 8.95978Z" fill="#FAAE29" stroke="black" stroke-width="0.330602"/>
<path fill-rule="evenodd" clip-rule="evenodd" d="M2.17969 9.10773H1.807L1.71251 9.18364L1.807 9.25955H2.17444V9.10352L2.17969 9.10773Z" fill="#CA3745" stroke="black" stroke-width="0.330591"/>
<path fill-rule="evenodd" clip-rule="evenodd" d="M2.17969 9.25666H1.807L1.71251 9.33257L1.807 9.40848H2.17444V9.25244L2.17969 9.25666Z" fill="#FAAE29" stroke="black" stroke-width="0.330602"/>
<path fill-rule="evenodd" clip-rule="evenodd" d="M2.17969 8.659H1.807L1.71251 8.73492L1.807 8.81083H2.17444V8.65479L2.17969 8.659Z" fill="#FAAE29" stroke="black" stroke-width="0.330602"/>
<path fill-rule="evenodd" clip-rule="evenodd" d="M1.61914 8.16819V9.90184H2.08632V10.3189H5.0626V9.90184H5.52453V8.16819H5.0626V7.75586H2.08632V8.16819H1.61914ZM1.71363 8.24784V9.82687H2.17555V10.2392H4.96812V9.82687H5.43529V8.24784H4.96812V7.8402H2.17555V8.25253H1.71363V8.24784Z" fill="#970000" stroke="black" stroke-width="0.348469"/>
<path fill-rule="evenodd" clip-rule="evenodd" d="M5.89748 1.6799L5.61927 1.35999V1.12118L5.34106 0.882365H4.78465L4.31747 0.643555H2.83196L2.36478 0.882365H1.80837L1.53016 1.12118V1.35999L1.25195 1.6754V2.31973L1.53016 2.63514V2.87846L1.80837 3.11727H2.36478L2.83196 3.35608H4.31747L4.78465 3.11727H5.34106L5.62452 2.87846V2.63965L5.90273 2.31973V1.6754L5.89748 1.6799Z" fill="#CA3745" stroke="black" stroke-width="0.341722"/>
<path fill-rule="evenodd" clip-rule="evenodd" d="M1.34277 2V2.23828L1.62168 2.55859V2.79687L1.90059 3.03906H2.4584L2.92598 3.27344H3.57402V2.00391H1.34277V2Z" fill="#FAAE29"/>
<path fill-rule="evenodd" clip-rule="evenodd" d="M2.79082 2.55859L2.45039 2.76563H2.24531L2.31504 2.83203L2.17969 2.96875L2.24941 3.03906L2.45449 2.96875L2.52012 3.03906L2.54883 2.85547L2.92617 2.63672L2.79082 2.55859Z" fill="#CA3745"/>
<path fill-rule="evenodd" clip-rule="evenodd" d="M2.4168 2.39844L2.07637 2.60547H1.87539L1.94102 2.67188L1.80977 2.80859L1.87539 2.87891L2.08047 2.80859L2.14609 2.87891L2.17891 2.69531L2.55215 2.48047L2.4168 2.40234V2.39844ZM2.23223 2.07812L1.8918 2.28516H1.68672L1.75645 2.35547L1.62109 2.49219L1.69082 2.55859L1.8959 2.48828L1.96152 2.55859L1.99023 2.375L2.36758 2.16016L2.23223 2.08203V2.07812Z" fill="#CA3745"/>
<path fill-rule="evenodd" clip-rule="evenodd" d="M5.80547 2V1.76172L5.52656 1.44141V1.20312L5.24766 0.960938H4.68984L4.22637 0.722656H3.57422V2H5.80547Z" fill="#FAAE29"/>
<path fill-rule="evenodd" clip-rule="evenodd" d="M3.57422 3.27734H3.40195L3.20508 3.11719H2.88516L2.71289 3.03906L2.79902 2.96094L2.97129 3.03906H3.14355L3.31582 2.79688L3.57422 2.875V3.03906H3.31582L3.57422 3.27344V3.27734Z" fill="#CA3745"/>
<path fill-rule="evenodd" clip-rule="evenodd" d="M1.34277 2V1.76172L1.62168 1.44141V1.20312L1.90059 0.960938H2.4584L2.92598 0.722656H3.57402V2H1.34277Z" fill="white"/>
<path fill-rule="evenodd" clip-rule="evenodd" d="M3.57422 0.722656H3.40195L3.20508 0.878906H2.88516L2.71289 0.960938L2.79902 1.03906L2.97129 0.960938H3.14355L3.31582 1.20312L3.57422 1.125V0.960938H3.31582L3.57422 0.722656Z" fill="#CA3745"/>
<path fill-rule="evenodd" clip-rule="evenodd" d="M3.57422 0.722656H3.74648L3.94746 0.878906H4.26328L4.43555 0.960938L4.35352 1.03906L4.17715 0.960938H4.00488L3.83262 1.20312L3.57422 1.125V0.960938H3.83262L3.57422 0.722656Z" fill="#CA3745"/>
<path fill-rule="evenodd" clip-rule="evenodd" d="M5.80547 2V2.23828L5.52656 2.55859V2.79687L5.24766 3.03906H4.68984L4.22637 3.27344H3.57422V2.00391H5.80547V2Z" fill="white"/>
<path fill-rule="evenodd" clip-rule="evenodd" d="M3.57422 3.27734H3.74648L3.94746 3.11719H4.26328L4.43555 3.03906L4.35352 2.96094L4.17715 3.03906H4.00488L3.83262 2.79688L3.57422 2.875V3.03906H3.83262L3.57422 3.27344V3.27734ZM2.41758 1.59766L2.07715 1.39453H1.87617L1.9418 1.32813L1.81055 1.19141L1.87617 1.12109L2.08125 1.19141L2.14687 1.12109L2.17969 1.30469L2.55293 1.51953L2.41758 1.59766ZM4.36172 1.44141L4.69805 1.23438H4.90312L4.8334 1.16797L4.96875 1.03125L4.90312 0.960938L4.69805 1.03125L4.63242 0.960938L4.59961 1.14453L4.22637 1.36328L4.36172 1.44141Z" fill="#CA3745"/>
<path fill-rule="evenodd" clip-rule="evenodd" d="M2.79023 1.44141L2.4498 1.23438H2.24473L2.31445 1.16797L2.1791 1.03125L2.24883 0.960938L2.45391 1.03125L2.51953 0.960938L2.54824 1.14453L2.92559 1.35937L2.79023 1.4375V1.44141ZM2.22832 1.92188L1.88789 1.71484H1.68281L1.75254 1.64453L1.61719 1.50781L1.69512 1.44531L1.9002 1.51562L1.96582 1.44531L1.99453 1.62891L2.37188 1.84375L2.23652 1.92188H2.22832Z" fill="#CA3745"/>
<path fill-rule="evenodd" clip-rule="evenodd" d="M1.51074 2H1.59277L1.67891 2.07812L1.76504 2H3.57383V3.11719H3.4918L3.57383 3.19531V3.28125L3.31543 3.04297V2.96484H3.40156V3.04297H3.4877V2.96484L2.79043 2.61328H2.1998V2.26172L1.94141 2.08594H1.76914L1.68301 2.16406L1.76504 2.24219H1.68301L1.51074 2.00781V2Z" fill="white"/>
<path fill-rule="evenodd" clip-rule="evenodd" d="M1.51074 2H1.59277L1.67891 1.92188L1.76504 2H3.57383V0.882813H3.4918L3.57383 0.804688V0.722656L3.31543 0.960938V1.03906H3.40156V0.960938H3.4877V1.03906L2.79043 1.39453H2.1998V1.74219L1.94141 1.92188H1.76914L1.68301 1.84375L1.76504 1.76172H1.68301L1.51074 2Z" fill="#FAAE29"/>
<path fill-rule="evenodd" clip-rule="evenodd" d="M1.90039 2H3.57383V2.95703L2.83145 2.55859H2.27363V2.23828L1.90449 2H1.90039Z" fill="#00843D"/>
<path fill-rule="evenodd" clip-rule="evenodd" d="M4.73086 1.60156L5.07129 1.39453H5.27637L5.20664 1.32812L5.34199 1.19141L5.27637 1.12109L5.07129 1.19141L5.00566 1.12109L4.97285 1.30469L4.59961 1.51953L4.73086 1.59766V1.60156ZM4.91953 1.92188L5.25996 1.71484H5.46094L5.39121 1.64453L5.52656 1.50781L5.46094 1.44141L5.25586 1.51172L5.19023 1.44141L5.15742 1.625L4.78418 1.83984L4.91953 1.91797V1.92188Z" fill="#CA3745"/>
<path fill-rule="evenodd" clip-rule="evenodd" d="M5.64141 2H5.55527L5.46914 1.92188L5.38301 2H3.57422V0.882813H3.66035L3.57422 0.804688V0.722656L3.83262 0.960938V1.03906H3.74648V0.960938H3.66035V1.03906L4.35762 1.39453H4.94824V1.74219L5.21074 1.92188H5.38301L5.46504 1.84375L5.38301 1.76172H5.46504L5.64141 2Z" fill="white"/>
<path fill-rule="evenodd" clip-rule="evenodd" d="M5.24766 2H3.57422V1.04297L4.3207 1.44141H4.87852V1.76172L5.25176 2H5.24766Z" fill="#00843D"/>
<path fill-rule="evenodd" clip-rule="evenodd" d="M4.36094 2.55859L4.69727 2.76563H4.90234L4.83262 2.83203L4.96797 2.96875L4.90234 3.03906L4.69727 2.96875L4.63164 3.03906L4.59883 2.85547L4.22559 2.63672L4.36094 2.55859Z" fill="#CA3745"/>
<path fill-rule="evenodd" clip-rule="evenodd" d="M4.73086 2.39844L5.07129 2.60547H5.27637L5.20664 2.67188L5.34199 2.80859L5.27637 2.87891L5.07129 2.80859L5.00566 2.87891L4.97285 2.69531L4.59961 2.48047L4.73086 2.40234V2.39844ZM4.91953 2.07812L5.25996 2.28516H5.46094L5.39121 2.35156L5.52656 2.48828L5.46094 2.55859L5.25586 2.48828L5.19023 2.55859L5.15742 2.375L4.78418 2.16016L4.91953 2.08203V2.07812Z" fill="#CA3745"/>
<path fill-rule="evenodd" clip-rule="evenodd" d="M5.64141 2H5.55527L5.46914 2.07812L5.38301 2H3.57422V3.11719H3.66035L3.57422 3.19531V3.28125L3.83262 3.04297V2.96484H3.74648V3.04297H3.66035V2.96484L4.35762 2.61328H4.94824V2.26172L5.21074 2.08594H5.38301L5.46504 2.16406L5.38301 2.24219H5.46504L5.64141 2.00781V2Z" fill="#FAAE29"/>
<path fill-rule="evenodd" clip-rule="evenodd" d="M5.24727 2H3.57383V2.95703L4.32031 2.55859H4.87813V2.23828L5.25137 2H5.24727ZM1.90039 2H3.57383V1.04297L2.83145 1.44141H2.27363V1.76172L1.90449 2H1.90039Z" fill="#CA3745"/>
<path fill-rule="evenodd" clip-rule="evenodd" d="M3.75859 2L4.22617 1.76172H4.50508L4.41074 1.68359L4.59941 1.51953L4.50508 1.44141L4.22617 1.51953L4.13184 1.44141L4.09082 1.65625L3.57402 1.90625L3.75859 2ZM3.38945 2L2.92598 2.23828H2.64707L2.7373 2.31641L2.55273 2.48047L2.64707 2.55859L2.92598 2.48047L3.01621 2.55859L3.05723 2.34375L3.57402 2.09375L3.38945 2Z" fill="#CA3745"/>
<path fill-rule="evenodd" clip-rule="evenodd" d="M3.38926 2L2.92578 1.76172H2.64687L2.74121 1.68359L2.55664 1.51953L2.65098 1.44141L2.92988 1.51953L3.02012 1.44141L3.06113 1.65625L3.57793 1.90625L3.39336 2H3.38926ZM3.7584 2L4.22598 2.23828H4.50488L4.41055 2.31641L4.59922 2.48047L4.50488 2.55859L4.22598 2.48047L4.13164 2.55859L4.09062 2.34375L3.57383 2.09375L3.7584 2Z" fill="#00843D"/>
<path fill-rule="evenodd" clip-rule="evenodd" d="M3.01562 2L3.57344 1.60156L4.13125 2L3.57344 2.39844L3.01562 2Z" fill="white"/>
<path fill-rule="evenodd" clip-rule="evenodd" d="M1.76543 2.16016L1.85156 2.23828L1.76953 2.31641H1.6793L1.4209 2H1.50703L1.6793 2.23828H1.76543L1.6834 2.16016L1.76543 2.08203H1.9418V2.16016H1.76953H1.76543Z" fill="#CA3745"/>
<path fill-rule="evenodd" clip-rule="evenodd" d="M1.76543 1.83984L1.85156 1.76172L1.76953 1.68359H1.6793L1.4209 2H1.50703L1.6793 1.76172H1.76543L1.6834 1.83984L1.76543 1.91797H1.9418V1.83984H1.76953H1.76543ZM5.38301 2.16016L5.30098 2.23828L5.38301 2.31641H5.46914L5.72754 2H5.64551L5.46914 2.23828H5.38711L5.46914 2.16016L5.38711 2.08203H5.21074V2.16016H5.38301Z" fill="#CA3745"/>
<path fill-rule="evenodd" clip-rule="evenodd" d="M5.38633 1.83984L5.29609 1.76172L5.38223 1.68359H5.46836L5.72676 2H5.64473L5.46836 1.76172H5.38633L5.46836 1.83984L5.38633 1.91797H5.20996V1.83984H5.38223H5.38633ZM3.4873 1.68359H3.65957V2.32031H3.4873V1.68359Z" fill="#CA3745"/>
<path fill-rule="evenodd" clip-rule="evenodd" d="M3.22949 1.83984H3.91855V2.16016H3.22949V1.83984Z" fill="#CA3745"/>
<path fill-rule="evenodd" clip-rule="evenodd" d="M2.7868 14.1323L1.24121 14.9438V16.2662L2.80139 17.0777H4.34698L5.89257 16.2662V14.9438L4.34698 14.1474H2.80139L2.7868 14.1323Z" fill="#00843D" stroke="black" stroke-width="0.346699"/>
<path fill-rule="evenodd" clip-rule="evenodd" d="M1.82617 15.4805H1.91641V15.3125H2.10508V15.4766H2.19941V15.0937H2.10508V15.2578H1.92051V15.0937H1.82617V15.4766V15.4805ZM4.20098 16.7539H4.29531V16.5898H4.47988V16.7539H4.57422V16.3672H4.48398V16.5312H4.29531V16.3672H4.20508V16.75L4.20098 16.7539ZM2.6998 14.8398H2.79414V14.6797H2.98281V14.8437H3.07305V14.4609H2.98281V14.625H2.79414V14.4609H2.6998V14.8437V14.8398ZM4.07383 14.8398H4.16816V14.6797H4.35684V14.8437H4.45117V14.4609H4.35684V14.625H4.16816V14.4609H4.07383V14.8437V14.8398ZM4.95156 15.4805H5.0418V15.3125H5.23047V15.4766H5.3248V15.0937H5.23047V15.2578H5.0418V15.0937H4.95156V15.4766V15.4805ZM4.95156 16.1172H5.0418V15.9531H5.23047V16.1172H5.3248V15.7344H5.23047V15.8984H5.0418V15.7344H4.95156V16.1172Z" fill="#CC0000"/>
<path fill-rule="evenodd" clip-rule="evenodd" d="M3.57383 17.0078V15.6055H5.82559V16.2422L4.32031 17.0078H3.56973H3.57383ZM3.57383 14.207V15.6055H1.32617V14.9688L2.82324 14.207H3.57383Z" fill="#FAAE29"/>
<path fill-rule="evenodd" clip-rule="evenodd" d="M3.57383 14.207V15.6055H5.82559V14.9688L4.32031 14.207H3.56973H3.57383ZM3.57383 17.0078V15.6055H1.32617V16.2422L2.82324 17.0078H3.57383Z" fill="white"/>
<path fill-rule="evenodd" clip-rule="evenodd" d="M4.77613 15.036H5.6778L4.77613 14.6551V15.036ZM5.82597 14.9713V15.6074H4.4036V15.1007H4.10304L3.72629 14.9103V14.4646L3.95488 14.2706H3.65432V14.9103H3.57812V14.2095H4.32741L5.82597 14.9713Z" fill="#FAAE29" stroke="black" stroke-width="0.0913537"/>
<path fill-rule="evenodd" clip-rule="evenodd" d="M2.82324 15.1602V16.0547H3.04883L3.57383 16.3125L4.09883 16.0547H4.32441V15.1641H4.09883L3.57383 14.9102L3.04883 15.1641H2.82324V15.1602Z" fill="#CA3745"/>
<path fill-rule="evenodd" clip-rule="evenodd" d="M2.37524 16.1788H1.47356L2.37524 16.5597V16.1788ZM1.3254 16.2435V15.6074H2.74776V16.1141H3.04832L3.42508 16.3046V16.7502L3.19649 16.9443H3.49704V16.3046H3.57324V17.0054H2.82396L1.3254 16.2435Z" fill="#FAAE29" stroke="black" stroke-width="0.0913537"/>
<path fill-rule="evenodd" clip-rule="evenodd" d="M2.37524 15.036H1.47356L2.37524 14.6551V15.036ZM1.3254 14.9713V15.6074H2.74776V15.1007H3.04832L3.42508 14.9103V14.4646L3.19649 14.2706H3.49704V14.9103H3.57324V14.2095H2.82396L1.3254 14.9713Z" fill="white" stroke="black" stroke-width="0.0913537"/>
<path fill-rule="evenodd" clip-rule="evenodd" d="M4.77613 16.1788H5.6778L4.77613 16.5597V16.1788ZM5.82597 16.2435V15.6074H4.4036V16.1141H4.10304L3.72629 16.3046V16.7502L3.95488 16.9443H3.65432V16.3046H3.57812V17.0054H4.32741L5.82597 16.2435Z" fill="white" stroke="black" stroke-width="0.0913537"/>
<path fill-rule="evenodd" clip-rule="evenodd" d="M1.77754 16.1172H1.86777V15.9219H2.05645V16.1172H2.15078V15.6719H2.05645V15.8633H1.86777V15.668H1.77754V16.1172ZM2.67578 16.7539H2.77012V16.5586H2.95469V16.7539H3.04902V16.3086H2.95469V16.5H2.77012V16.3047H2.67578V16.7578V16.7539ZM1.77344 15.0977H1.86777V15.2891H2.05645V15.0937H2.15078V15.5469H2.05645V15.3516H1.86777V15.543H1.77754V15.0977H1.77344ZM2.67578 14.4609H2.77012V14.6523H2.95469V14.457H3.04902V14.9062H2.95469V14.7148H2.77012V14.9102H2.67578V14.4609ZM4.09902 16.7539H4.19336V16.5586H4.38203V16.7539H4.47637V16.3086H4.38203V16.5H4.19336V16.3047H4.09902V16.7578V16.7539ZM5.00137 15.543H5.0957V15.3516H5.28027V15.5469H5.37461V15.0977H5.28027V15.2891H5.0998V15.0937H5.00547V15.5469L5.00137 15.543Z" fill="#CA3745"/>
<path fill-rule="evenodd" clip-rule="evenodd" d="M4.09863 16.7539H4.19297V16.5586H4.38164V16.7539H4.47598V16.3086H4.38164V16.5H4.19297V16.3047H4.09863V16.7578V16.7539Z" fill="#CA3745"/>
<path fill-rule="evenodd" clip-rule="evenodd" d="M4.09863 16.7539H4.19297V16.5586H4.38164V16.7539H4.47598V16.3086H4.38164V16.5H4.19297V16.3047H4.09863V16.7578V16.7539ZM5.00098 16.1172H5.09531V15.9219H5.27988V16.1172H5.37422V15.6719H5.27988V15.8594H5.09941V15.668H5.00508V16.1172H5.00098ZM4.09863 14.9062H4.19297V14.7148H4.38164V14.9102H4.47598V14.4609H4.38164V14.6523H4.19297V14.457H4.09863V14.9062Z" fill="#CA3745"/>
<path fill-rule="evenodd" clip-rule="evenodd" d="M3.65137 15.6055L3.95078 15.3711H4.09844V15.4883H3.95078V15.5469H4.17637V15.3164H3.95078V15.1406H3.65137V15.3164H3.7252V15.1992H3.87285V15.3164L3.57344 15.5508L3.27402 15.3164V15.1992H3.42578V15.3164H3.49961V15.1406H3.2002V15.3164H2.97461V15.5508H3.2002V15.4922H3.04844V15.375H3.2002L3.49961 15.6094L3.2002 15.8398H3.04844V15.7227H3.2002V15.6641H2.97461V15.8984H3.2002V16.0703H3.49961V15.8984H3.42578V16.0156H3.27402V15.8984L3.57344 15.6641L3.87285 15.8984V16.0156H3.7252V15.8984H3.65137V16.0703H3.95078V15.8984H4.17637V15.6641H3.95078V15.7227H4.09844V15.8398H3.95078L3.65137 15.6055Z" fill="white"/>
<path fill-rule="evenodd" clip-rule="evenodd" d="M1.47298 5.73864L1.61691 5.59638H2.48896L3.14087 4.97119H4.01292L4.66483 5.60013H5.53688L5.68081 5.73864L5.53688 5.87716H4.6606L4.00868 6.5061H3.13664L2.48896 5.87716H1.61268L1.46875 5.73864H1.47298Z" fill="#CA3745"/>
<path fill-rule="evenodd" clip-rule="evenodd" d="M1.54688 5.74979L1.6257 5.68172H2.52432L3.19828 5.02148H3.94713L4.62503 5.68513H5.52365L5.59853 5.75319L5.52365 5.81786H4.62503L4.02201 6.41343H3.12339L2.52432 5.81786H1.62176L1.54688 5.74979Z" fill="#CA3745" stroke="black" stroke-width="0.25734"/>
<path fill-rule="evenodd" clip-rule="evenodd" d="M3.94145 5.8098L4.22931 6.08683L4.08538 6.22535L4.00918 6.15796H3.94145V6.22535L4.01342 6.29648H4.16158L4.30551 6.15796V6.0157L4.01342 5.73867L4.30551 5.4579V5.31938L4.16158 5.18086H4.01342L3.94145 5.24825V5.31938H4.01342L4.08962 5.24825L4.23355 5.39051L3.94145 5.66754L3.65359 5.39051L3.94145 5.10973V5.0386H3.86949L3.58163 5.31938L3.28954 5.0386H3.21757V5.10973L3.50543 5.39051L3.21757 5.66754L2.92548 5.39051L3.07364 5.24825L3.14561 5.31938H3.21757V5.24825L3.14561 5.18086H2.99744L2.85352 5.31938V5.4579L3.14561 5.73867L2.85352 6.0157V6.15796L2.99744 6.29648H3.14561L3.21757 6.22535V6.15796H3.13714L3.06518 6.22535L2.91701 6.08683L3.20911 5.8098L3.49697 6.08683L3.20911 6.36761V6.43499H3.28107L3.57316 6.15796L3.86102 6.43499H3.93299V6.36761L3.64513 6.08683L3.93299 5.8098H3.94145ZM3.5774 5.4579L3.2853 5.73867L3.5774 6.0157L3.86526 5.73867L3.5774 5.4579ZM3.14137 6.50612V7.06768L3.21334 6.9928L3.2853 7.06768L3.35727 6.9928L3.42923 7.06768L3.50543 6.9928L3.5774 7.06768L3.64936 6.9928L3.72133 7.06768L3.79329 6.9928L3.86526 7.06768L3.93722 6.9928L4.01342 7.06768V6.50612H3.13714H3.14137ZM4.01342 4.97122V4.40967L3.93722 4.48454L3.86526 4.40967L3.79329 4.48454L3.72133 4.40967L3.64936 4.48454L3.5774 4.40967L3.5012 4.48454L3.42923 4.40967L3.35727 4.48454L3.2853 4.40967L3.21334 4.48454L3.14137 4.40967V4.97122H4.01342ZM5.24105 5.60016V5.0386L5.17332 5.11348L5.10136 5.0386L5.02939 5.11348L4.95319 5.0386L4.88123 5.11348L4.80926 5.0386L4.7373 5.11348L4.66533 5.0386V5.60016H5.24529H5.24105ZM2.48946 5.60016V5.0386L2.41326 5.11348L2.3413 5.0386L2.26933 5.11348L2.19737 5.0386L2.1254 5.11348L2.05344 5.0386L1.97724 5.11348L1.90527 5.0386V5.60016H2.48522H2.48946ZM5.24529 5.87719V6.43874L5.17332 6.36386L5.10136 6.43874L5.02939 6.36386L4.95319 6.43874L4.88123 6.36386L4.80926 6.43874L4.7373 6.36386L4.66533 6.43874V5.87719H5.24529ZM2.48522 5.87719V6.43874L2.41326 6.36386L2.3413 6.43874L2.26933 6.36386L2.19737 6.43874L2.1254 6.36386L2.05344 6.43874L1.97724 6.36386L1.90527 6.43874V5.87719H2.48522Z" fill="#FAAE29"/>
<path fill-rule="evenodd" clip-rule="evenodd" d="M4.00906 6.50611V6.85428L4.08526 6.78315L4.15722 6.85802L4.22919 6.78315L4.30115 6.85802L4.37312 6.78315L4.44508 6.85802L4.52128 6.78315L4.59324 6.85802L4.66521 6.78315V5.87718L4.00906 6.50611ZM3.14125 6.50611V6.85428L3.06505 6.78315L2.99309 6.85802L2.92112 6.78315L2.84916 6.85802L2.77719 6.78315L2.70523 6.85802L2.63326 6.78315L2.5613 6.85802L2.4851 6.78315V5.87718L3.14125 6.50611ZM3.14125 4.97121V4.62305L3.06505 4.69043L2.99309 4.62305L2.92112 4.69043L2.84916 4.62305L2.77719 4.69043L2.70523 4.62305L2.63326 4.69043L2.5613 4.62305L2.4851 4.69043V5.60015L3.14125 4.97121ZM4.00906 4.97121V4.62305L4.08526 4.69043L4.15722 4.62305L4.22919 4.69043L4.30115 4.62305L4.37312 4.69043L4.44508 4.62305L4.51705 4.69043L4.59324 4.62305L4.66521 4.69043V5.60015L4.00906 4.97121ZM1.90515 6.29647L1.83318 6.22534L1.76122 6.30021L1.68925 6.22534L1.61729 6.30021L1.54532 6.22534L1.46912 6.30021L1.39716 6.22534L1.3252 6.30021V5.17711L1.39716 5.25198L1.46912 5.17711L1.54532 5.25198L1.61729 5.17711L1.68925 5.25198L1.76122 5.17711L1.83318 5.25198L1.90515 5.17711V5.60015H1.61729L1.46912 5.73866L1.61729 5.87718H1.90515V6.29647ZM5.24516 6.29647L5.31712 6.22534L5.38909 6.30021L5.46105 6.22534L5.53725 6.30021L5.60922 6.22534L5.68118 6.30021L5.75315 6.22534L5.82511 6.30021V5.17711L5.75315 5.25198L5.68118 5.17711L5.60922 5.25198L5.53725 5.17711L5.46105 5.25198L5.38909 5.17711L5.31712 5.25198L5.24516 5.17711V5.60015H5.53725L5.68118 5.73866L5.53725 5.87718H5.24516V6.29647Z" fill="#00843D"/>
<path fill-rule="evenodd" clip-rule="evenodd" d="M2.78129 6.55095C2.78129 6.55095 2.72203 6.60336 2.72203 6.63331C2.72203 6.65952 2.78553 6.71567 2.81516 6.71567C2.84903 6.71567 2.90406 6.65952 2.90406 6.63331C2.90406 6.60711 2.84479 6.55095 2.84479 6.55095V6.43864C2.84479 6.43864 2.97179 6.62957 2.97179 6.54721C2.97179 6.48731 2.84479 6.38623 2.84479 6.38623H2.78129C2.78129 6.38623 2.6543 6.50603 2.6543 6.54721C2.6543 6.62957 2.78129 6.43864 2.78129 6.43864V6.55095Z" fill="white"/>
<path fill-rule="evenodd" clip-rule="evenodd" d="M3.53922 6.76433C3.53922 6.76433 3.46726 6.83921 3.46726 6.87664C3.46726 6.91408 3.54346 6.99644 3.57732 6.99644C3.61965 6.99644 3.68315 6.91782 3.68315 6.88039C3.68315 6.84295 3.61119 6.76433 3.61119 6.76433V6.6071C3.61119 6.6071 3.73818 6.86167 3.73818 6.74562C3.73818 6.67074 3.61119 6.53223 3.61119 6.53223H3.53922C3.53922 6.53223 3.39106 6.70444 3.41223 6.74562C3.41223 6.86167 3.53922 6.6071 3.53922 6.6071V6.76433Z" fill="#CA3745"/>
<path d="M2.77522 5.80543C2.85441 5.80543 2.9186 5.77368 2.9186 5.7345C2.9186 5.69533 2.85441 5.66357 2.77522 5.66357C2.69603 5.66357 2.63184 5.69533 2.63184 5.7345C2.63184 5.77368 2.69603 5.80543 2.77522 5.80543Z" fill="#00843D"/>
<path d="M3.576 5.80543C3.65519 5.80543 3.71938 5.77368 3.71938 5.7345C3.71938 5.69533 3.65519 5.66357 3.576 5.66357C3.49681 5.66357 3.43262 5.69533 3.43262 5.7345C3.43262 5.77368 3.49681 5.80543 3.576 5.80543Z" fill="#00843D"/>
<path d="M4.3719 5.80543C4.45109 5.80543 4.51528 5.77368 4.51528 5.7345C4.51528 5.69533 4.45109 5.66357 4.3719 5.66357C4.29271 5.66357 4.22852 5.69533 4.22852 5.7345C4.22852 5.77368 4.29271 5.80543 4.3719 5.80543Z" fill="#00843D"/>
<path fill-rule="evenodd" clip-rule="evenodd" d="M2.76795 4.9336C2.76795 4.9336 2.70868 4.87745 2.70868 4.85124C2.70868 4.82504 2.77218 4.76514 2.79758 4.76514C2.83145 4.76514 2.88648 4.82129 2.88648 4.8475C2.88648 4.87745 2.82721 4.9336 2.82721 4.9336V5.04591C2.82721 5.04591 2.95844 4.85124 2.95844 4.9336C2.95844 4.9935 2.83145 5.09832 2.83145 5.09832H2.76795C2.76795 5.09832 2.63672 4.97853 2.63672 4.93735C2.63672 4.85498 2.76372 5.04217 2.76372 5.04217V4.92986L2.76795 4.9336Z" fill="white"/>
<path fill-rule="evenodd" clip-rule="evenodd" d="M3.52197 4.71665C3.52197 4.71665 3.45001 4.64177 3.45001 4.60434C3.45001 4.5669 3.53044 4.48828 3.56007 4.48828C3.6024 4.48828 3.67013 4.56315 3.67013 4.60059C3.67013 4.63803 3.59817 4.72039 3.59817 4.72039V4.87014C3.59817 4.87014 3.72517 4.61931 3.72517 4.73536C3.72517 4.81024 3.59817 4.9525 3.59817 4.9525H3.51774C3.51774 4.9525 3.36958 4.77654 3.39074 4.73536C3.39074 4.62305 3.51774 4.87388 3.51774 4.87388V4.71665H3.52197Z" fill="#CA3745"/>
<path fill-rule="evenodd" clip-rule="evenodd" d="M4.32655 6.55087C4.32655 6.55087 4.26728 6.60328 4.26728 6.63323C4.26728 6.65943 4.33078 6.71559 4.36041 6.71559C4.39428 6.71559 4.44931 6.65943 4.44931 6.63323C4.44931 6.60702 4.39005 6.55087 4.39005 6.55087V6.43856C4.39005 6.43856 4.51704 6.62949 4.51704 6.54712C4.51704 6.48723 4.39005 6.38615 4.39005 6.38615H4.32231C4.32231 6.38615 4.19532 6.50594 4.19532 6.54712C4.19532 6.62949 4.32231 6.43856 4.32231 6.43856V6.55087H4.32655ZM4.31385 4.9336C4.31385 4.9336 4.25458 4.87745 4.25458 4.8475C4.25458 4.82504 4.31808 4.76514 4.34348 4.76514C4.37735 4.76514 4.43238 4.82129 4.43238 4.8475C4.43238 4.87745 4.37311 4.9336 4.37311 4.9336V5.04591C4.37311 5.04591 4.50434 4.85124 4.50434 4.9336C4.50434 4.9935 4.37735 5.09832 4.37735 5.09832H4.31385C4.31385 5.09832 4.18262 4.97853 4.18262 4.93735C4.18262 4.85498 4.30961 5.04217 4.30961 5.04217V4.92986L4.31385 4.9336Z" fill="white"/>
<path fill-rule="evenodd" clip-rule="evenodd" d="M2.1505 6.16134C2.1505 6.16134 2.07007 6.21375 2.07007 6.23622C2.07007 6.26242 2.15473 6.31858 2.19283 6.31483C2.23516 6.31483 2.31136 6.26617 2.31136 6.23996C2.31136 6.21375 2.23093 6.16134 2.23093 6.16134V6.05652C2.23093 6.05652 2.37486 6.22498 2.37486 6.15011C2.37486 6.0977 2.23093 6.00411 2.23093 6.00411H2.1505C2.1505 6.00411 1.9854 6.12391 2.0108 6.15011C2.0108 6.22498 2.1505 6.05652 2.1505 6.05652V6.16134ZM2.13356 5.37143C2.13356 5.37143 2.05313 5.31902 2.05313 5.29281C2.05313 5.2666 2.1378 5.21419 2.1759 5.21794C2.21823 5.21794 2.29443 5.2666 2.29443 5.29281C2.29443 5.31902 2.21399 5.36768 2.21399 5.36768V5.47251C2.21399 5.47251 2.35792 5.30404 2.35792 5.38266C2.35792 5.43133 2.21399 5.52492 2.21399 5.52492H2.13356C2.13356 5.52492 1.96847 5.40886 1.99387 5.38266C1.99387 5.30779 2.13356 5.47251 2.13356 5.47251V5.37143ZM4.94019 6.14262C4.94019 6.14262 4.85553 6.19504 4.85553 6.22124C4.85553 6.24745 4.94442 6.29986 4.98252 6.29986C5.02485 6.29986 5.10105 6.24745 5.10105 6.22498C5.10105 6.19504 5.01639 6.14262 5.01639 6.14262V6.04154C5.01639 6.04154 5.16032 6.21001 5.16032 6.13139C5.16032 6.08273 5.02062 5.98913 5.02062 5.98913H4.93596C4.93596 5.98913 4.77509 6.10519 4.79626 6.13139C4.79626 6.21001 4.94019 6.04154 4.94019 6.04154V6.14637V6.14262ZM4.92326 5.35645C4.92326 5.35645 4.83859 5.30404 4.83859 5.27784C4.83859 5.25163 4.92749 5.19922 4.96559 5.19922C5.00792 5.19922 5.08412 5.25163 5.08412 5.27409C5.08412 5.30404 4.99946 5.35271 4.99946 5.35271V5.45753C4.99946 5.45753 5.14338 5.28907 5.14338 5.36394C5.14338 5.41635 5.00369 5.50994 5.00369 5.50994H4.91902C4.91902 5.50994 4.75816 5.39389 4.77933 5.36768C4.77933 5.28907 4.92326 5.45753 4.92326 5.45753V5.35271V5.35645Z" fill="#CA3745"/>
<path fill-rule="evenodd" clip-rule="evenodd" d="M1.55735 6.15392C1.53195 6.10525 1.54042 6.08279 1.54042 6.05658C1.54042 6.03037 1.61238 5.98171 1.63778 5.98171C1.67165 5.98171 1.72668 6.03412 1.72668 6.06407C1.72668 6.09027 1.72668 6.11274 1.71398 6.1614L1.68011 6.08279C1.63355 6.1951 1.62931 6.1951 1.60392 6.07904L1.56158 6.15392H1.55735ZM1.55735 5.34903C1.53618 5.39769 1.54042 5.42016 1.54042 5.44636C1.54042 5.47257 1.61238 5.52124 1.64201 5.52124C1.67588 5.52124 1.73091 5.46882 1.73091 5.43887C1.73091 5.41267 1.73091 5.39021 1.71821 5.34154L1.68011 5.42016C1.63778 5.30785 1.63355 5.30785 1.60392 5.4239L1.56158 5.34903H1.55735ZM5.47308 6.14268C5.44768 6.09402 5.45191 6.07155 5.45191 6.04535C5.45191 6.01914 5.52811 5.97048 5.55351 5.97048C5.58738 5.97048 5.64241 6.02663 5.64241 6.05284C5.64241 6.07904 5.64241 6.10525 5.62971 6.15017L5.59161 6.07155C5.54928 6.18386 5.54505 6.18761 5.51541 6.07155L5.47308 6.14268ZM5.47308 5.34154C5.44768 5.38646 5.45615 5.40893 5.45615 5.43887C5.45615 5.46134 5.52811 5.51375 5.55351 5.51375C5.58738 5.51375 5.64664 5.45759 5.64664 5.43139C5.64664 5.40144 5.64664 5.37898 5.63394 5.33031L5.59161 5.41267C5.54928 5.29661 5.54928 5.29287 5.51965 5.41267L5.47731 5.3378L5.47308 5.34154Z" fill="white"/>
<path fill-rule="evenodd" clip-rule="evenodd" d="M3.12825 7.08246V6.88031H2.45093V6.48348H1.84981V6.35245H1.32489V5.15449H1.84981V5.02346H2.45093V4.62664H3.12825V4.42823H4.02569V4.62664H4.70301V5.02346H5.29989V5.15823H5.82904V6.35245H5.30412V6.48348H4.70724V6.88031H4.02992V7.07872H3.13248L3.12825 7.08246ZM3.05205 7.1461V6.94769H2.37473V6.55087H1.77785V6.41609H1.25293V5.09085H1.77785V4.95982H2.37473V4.55925H3.05205V4.36084H4.10189V4.55925H4.7792V4.95982H5.37609V5.09085H5.90101V6.41609H5.37609V6.55087H4.77497V6.94769H4.09766V7.1461H3.05205Z" fill="#CA3745" stroke="black" stroke-width="0.0932397"/>
</g>
</g>
<defs>
<clipPath id="clip0_404_1901">
<rect width="28" height="20" fill="white"/>
</clipPath>
</defs>
</svg>
