<svg width="28" height="20" viewBox="0 0 28 20" fill="none" xmlns="http://www.w3.org/2000/svg">
<g clip-path="url(#clip0_404_1251)">
<path d="M0 0H28V20H0V0Z" fill="#00008B"/>
<path d="M1.64062 0L6.97812 3.77083L12.2937 0H14V1.29167L8.75 5.02083L14 8.72917V10H12.25L7 6.27083L1.77187 10H0V8.75L5.22812 5.04167L0 1.33333V0H1.64062Z" fill="white"/>
<path d="M9.275 5.85417L14 9.16667V10L8.07187 5.85417H9.275ZM5.25 6.27083L5.38125 7L1.18125 10H0L5.25 6.27083ZM14 0V0.0625L8.55312 3.97917L8.59687 3.0625L12.9062 0H14ZM0 0L5.22812 3.66667H3.91562L0 0.875V0Z" fill="#FF0000"/>
<path d="M5.27187 0V10H8.77187V0H5.27187ZM0 3.33333V6.66667H14V3.33333H0Z" fill="white"/>
<path d="M0 4.02083V6.02083H14V4.02083H0ZM5.97187 0V10H8.07187V0H5.97187Z" fill="#FF0000"/>
<path d="M23.056 16.5293L22.1591 16.6376L22.2554 17.4918L21.6079 16.8918L20.9647 17.4959L21.0522 16.6418L20.1554 16.5418L20.9122 16.0751L20.4354 15.3459L21.2929 15.6168L21.5947 14.8043L21.9054 15.6126L22.7585 15.3334L22.2904 16.0668L23.0516 16.5293H23.056ZM22.8941 11.6459L23.0122 11.1043L22.5835 10.7293L23.161 10.6668L23.4016 10.1626L23.6422 10.6668L24.2197 10.7293L23.791 11.1043L23.9091 11.6459L23.4016 11.3709L22.8941 11.6459ZM18.3397 9.14593L17.4516 9.2376L17.5304 10.0834L16.9004 9.47926L16.2529 10.0668L16.3579 9.22093L15.4741 9.10843L16.231 8.65843L15.7716 7.92926L16.616 8.2126L16.931 7.41676L17.2241 8.22093L18.0729 7.95843L17.596 8.67926L18.3441 9.14593H18.3397ZM27.256 7.77926L26.3416 7.89176L26.4422 8.7626L25.7816 8.1501L25.1254 8.76676L25.2172 7.89176L24.3029 7.79176L25.0772 7.3126L24.5916 6.56676L25.4666 6.84593L25.7729 6.02093L26.0879 6.84593L26.9585 6.55843L26.4772 7.30843L27.256 7.77926ZM23.0516 4.3001L22.146 4.39593L22.2291 5.2626L21.586 4.64593L20.9254 5.24593L21.0304 4.38343L20.1247 4.26676L20.8991 3.80843L20.431 3.0626L21.2929 3.3501L21.6122 2.5376L21.9097 3.35843L22.776 3.0876L22.2904 3.82093L23.0516 4.3001ZM10.2372 16.0709L8.23348 16.2959L8.43473 18.2084L6.99973 16.8584L5.55598 18.2001L5.77035 16.2876L3.7666 16.0459L5.46848 15.0126L4.41848 13.3709L6.32598 13.9959L7.01723 12.1876L7.69535 14.0001L9.60723 13.3876L8.5441 15.0209L10.2416 16.0668L10.2372 16.0709Z" fill="white"/>
</g>
<defs>
<clipPath id="clip0_404_1251">
<rect width="28" height="20" fill="white"/>
</clipPath>
</defs>
</svg>
