<svg width="28" height="20" viewBox="0 0 28 20" fill="none" xmlns="http://www.w3.org/2000/svg">
<rect x="0.25" y="0.25" width="27.5" height="19.5" rx="1.75" fill="white" stroke="#D3D3D3" stroke-width="0.5"/>
<mask id="mask0_1_13409" style="mask-type:luminance" maskUnits="userSpaceOnUse" x="0" y="0" width="28" height="20">
<rect x="0.25" y="0.25" width="27.5" height="19.5" rx="1.75" fill="white" stroke="white" stroke-width="0.5"/>
</mask>
<g mask="url(#mask0_1_13409)">
<path fill-rule="evenodd" clip-rule="evenodd" d="M0 6.66667H28V0H0V6.66667Z" fill="#04AAC8"/>
<path fill-rule="evenodd" clip-rule="evenodd" d="M0 20H28V13.3333H0V20Z" fill="#23C840"/>
<path fill-rule="evenodd" clip-rule="evenodd" d="M4.6665 5.33334C5.07778 5.33334 5.46007 5.20919 5.77793 4.99634C5.7411 4.99877 5.70395 5 5.6665 5C4.74603 5 3.99984 4.25381 3.99984 3.33334C3.99984 2.41286 4.74603 1.66667 5.6665 1.66667C5.70395 1.66667 5.7411 1.6679 5.77793 1.67033C5.46007 1.45748 5.07778 1.33334 4.6665 1.33334C3.56193 1.33334 2.6665 2.22877 2.6665 3.33334C2.6665 4.43791 3.56193 5.33334 4.6665 5.33334ZM7.99984 4.66667C7.99984 5.03486 7.70136 5.33334 7.33317 5.33334C6.96498 5.33334 6.6665 5.03486 6.6665 4.66667C6.6665 4.29848 6.96498 4 7.33317 4C7.70136 4 7.99984 4.29848 7.99984 4.66667ZM9.99984 2.66667C10.368 2.66667 10.6665 2.36819 10.6665 2C10.6665 1.63181 10.368 1.33334 9.99984 1.33334C9.63165 1.33334 9.33317 1.63181 9.33317 2C9.33317 2.36819 9.63165 2.66667 9.99984 2.66667ZM13.3332 2C13.3332 2.36819 13.0347 2.66667 12.6665 2.66667C12.2983 2.66667 11.9998 2.36819 11.9998 2C11.9998 1.63181 12.2983 1.33334 12.6665 1.33334C13.0347 1.33334 13.3332 1.63181 13.3332 2ZM12.6665 5.33334C13.0347 5.33334 13.3332 5.03486 13.3332 4.66667C13.3332 4.29848 13.0347 4 12.6665 4C12.2983 4 11.9998 4.29848 11.9998 4.66667C11.9998 5.03486 12.2983 5.33334 12.6665 5.33334ZM10.6665 4.66667C10.6665 5.03486 10.368 5.33334 9.99984 5.33334C9.63165 5.33334 9.33317 5.03486 9.33317 4.66667C9.33317 4.29848 9.63165 4 9.99984 4C10.368 4 10.6665 4.29848 10.6665 4.66667Z" fill="white"/>
</g>
</svg>
