<svg width="29" height="21" viewBox="0 0 29 21" fill="none" xmlns="http://www.w3.org/2000/svg">
<g clip-path="url(#clip0_408_2111)">
<path d="M0.34668 0.0307617H28.3467V6.69743H0.34668V0.0307617Z" fill="#FF9933"/>
<path d="M0.34668 6.69727H28.3467V13.3639H0.34668V6.69727Z" fill="white"/>
<path d="M0.34668 13.3643H28.3467V20.0309H0.34668V13.3643Z" fill="#128807"/>
<path d="M14.3469 12.6976C15.8933 12.6976 17.1469 11.5037 17.1469 10.0309C17.1469 8.55817 15.8933 7.36426 14.3469 7.36426C12.8005 7.36426 11.5469 8.55817 11.5469 10.0309C11.5469 11.5037 12.8005 12.6976 14.3469 12.6976Z" fill="#000088"/>
<path d="M14.3465 12.3639C15.6996 12.3639 16.7965 11.3193 16.7965 10.0306C16.7965 8.74193 15.6996 7.69727 14.3465 7.69727C12.9934 7.69727 11.8965 8.74193 11.8965 10.0306C11.8965 11.3193 12.9934 12.3639 14.3465 12.3639Z" fill="white"/>
<path d="M14.3474 10.4973C14.618 10.4973 14.8374 10.2884 14.8374 10.0306C14.8374 9.7729 14.618 9.56396 14.3474 9.56396C14.0768 9.56396 13.8574 9.7729 13.8574 10.0306C13.8574 10.2884 14.0768 10.4973 14.3474 10.4973Z" fill="#000088"/>
<path d="M16.76 10.4548C16.829 10.4634 16.8923 10.4172 16.9014 10.3515C16.9104 10.2858 16.8619 10.2255 16.7929 10.2168C16.7239 10.2082 16.6606 10.2544 16.6515 10.3201C16.6424 10.3859 16.691 10.4461 16.76 10.4548Z" fill="#000088"/>
<path d="M14.3477 12.3635L14.4317 10.9635L14.3477 10.2969L14.2637 10.9635L14.3477 12.3635Z" fill="#000088"/>
<path d="M16.5336 11.009C16.582 11.0489 16.6557 11.0433 16.6982 10.9965C16.7406 10.9498 16.7358 10.8796 16.6873 10.8397C16.6389 10.7999 16.5652 10.8055 16.5227 10.8522C16.4802 10.899 16.4851 10.9692 16.5336 11.009Z" fill="#000088"/>
<path d="M13.6888 12.2669L14.1593 10.9756L14.3003 10.3049L14.0469 10.9L13.6888 12.2669Z" fill="#000088"/>
<path d="M16.2077 11.5428C16.2593 11.5856 16.3384 11.5795 16.3844 11.5293C16.4305 11.4791 16.426 11.4038 16.3745 11.3611C16.323 11.3183 16.2439 11.3244 16.1979 11.3746C16.1518 11.4248 16.1562 11.5001 16.2077 11.5428Z" fill="#000088"/>
<path d="M13.1198 12.0514L13.9288 10.8791L14.2118 10.2617L13.7903 10.799L13.1198 12.0514Z" fill="#000088"/>
<path d="M15.7291 11.9491C15.7666 12.005 15.8457 12.0204 15.9058 11.9834C15.9659 11.9465 15.9842 11.8711 15.9467 11.8152C15.9093 11.7592 15.8302 11.7438 15.7701 11.7808C15.71 11.8178 15.6916 11.8931 15.7291 11.9491Z" fill="#000088"/>
<path d="M12.6048 11.6724L13.7073 10.7581L14.1596 10.2273L13.6088 10.6288L12.6048 11.6724Z" fill="#000088"/>
<path d="M15.1697 12.2337C15.1977 12.2943 15.2714 12.3223 15.3343 12.2962C15.3972 12.2702 15.4255 12.2 15.3974 12.1394C15.3694 12.0789 15.2957 12.0509 15.2328 12.0769C15.1699 12.103 15.1417 12.1732 15.1697 12.2337Z" fill="#000088"/>
<path d="M12.2261 11.197L13.5407 10.5671L14.1028 10.1644L13.4542 10.4278L12.2261 11.197Z" fill="#000088"/>
<path d="M14.5412 12.3583C14.5503 12.4248 14.6136 12.4724 14.6826 12.4646C14.7515 12.4567 14.8 12.3965 14.7909 12.3299C14.7818 12.2634 14.7185 12.2158 14.6496 12.2237C14.5806 12.2315 14.5321 12.2918 14.5412 12.3583Z" fill="#000088"/>
<path d="M11.9758 10.5985L13.4191 10.3974L14.0814 10.1349L13.3852 10.1715L11.9758 10.5985Z" fill="#000088"/>
<path d="M13.8934 12.3503C13.8985 12.4212 13.9618 12.476 14.0348 12.4726C14.1078 12.4692 14.1628 12.4089 14.1577 12.3379C14.1526 12.267 14.0893 12.2122 14.0163 12.2156C13.9433 12.219 13.8883 12.2793 13.8934 12.3503Z" fill="#000088"/>
<path d="M11.9026 9.95462L13.358 10.0616L14.0602 10.1066L13.3704 10.0535L11.9026 9.95462Z" fill="#000088"/>
<path d="M13.2464 12.1679C13.2451 12.2446 13.3166 12.3148 13.4062 12.3247C13.4958 12.3346 13.5695 12.2805 13.5708 12.2038C13.5722 12.1271 13.5006 12.0569 13.411 12.047C13.3214 12.0371 13.2477 12.0912 13.2464 12.1679Z" fill="#000088"/>
<path d="M11.9754 9.78249L13.4188 9.91846L14.0813 9.60519L13.3851 9.40631L11.9754 9.78249Z" fill="#000088"/>
<path d="M12.7609 11.8031C12.7151 11.853 12.7199 11.9283 12.7716 11.9713C12.8234 12.0144 12.9025 12.0088 12.9483 11.959C12.9941 11.9091 12.9893 11.8338 12.9375 11.7907C12.8858 11.7477 12.8067 11.7532 12.7609 11.8031Z" fill="#000088"/>
<path d="M12.2264 8.86414L13.4547 9.63336L14.1033 9.89711L13.541 9.49442L12.2264 8.86414Z" fill="#000088"/>
<path d="M12.3364 11.3473C12.2753 11.3832 12.2553 11.4585 12.2918 11.5156C12.3282 11.5726 12.4073 11.5897 12.4684 11.5538C12.5295 11.5179 12.5496 11.4425 12.5131 11.3855C12.4767 11.3285 12.3976 11.3114 12.3364 11.3473Z" fill="#000088"/>
<path d="M12.6229 8.37448L13.5824 9.42325L14.1399 9.84855L13.7187 9.32283L12.6229 8.37448Z" fill="#000088"/>
<path d="M12.0529 10.7988C11.9783 10.8168 11.931 10.887 11.9473 10.9555C11.9636 11.0241 12.0373 11.065 12.1119 11.0469C12.1866 11.0288 12.2339 10.9586 12.2176 10.8901C12.2013 10.8216 12.1276 10.7807 12.0529 10.7988Z" fill="#000088"/>
<path d="M13.1495 7.99954L13.746 9.25564L14.1786 9.80996L13.9473 9.19627L13.1495 7.99954Z" fill="#000088"/>
<path d="M11.9262 10.2008C11.8532 10.2 11.79 10.2592 11.7849 10.3328C11.7798 10.4065 11.8349 10.4668 11.9079 10.4675C11.9809 10.4682 12.0442 10.409 12.0492 10.3354C12.0543 10.2617 11.9992 10.2015 11.9262 10.2008Z" fill="#000088"/>
<path d="M13.859 7.76499L13.8139 9.14212L14.1281 9.78448L14.2687 9.12394L13.859 7.76499Z" fill="#000088"/>
<path d="M11.9451 9.61185C11.882 9.60011 11.8187 9.64135 11.8037 9.70397C11.7887 9.76658 11.8276 9.82686 11.8907 9.8386C11.9538 9.85034 12.0171 9.8091 12.0321 9.74649C12.0471 9.68387 12.0081 9.62359 11.9451 9.61185Z" fill="#000088"/>
<path d="M14.426 7.72155L14.314 9.0649L14.2683 9.7401L14.3243 9.11301L14.426 7.72155Z" fill="#000088"/>
<path d="M12.1419 9.03431C12.0834 9.00452 12.0097 9.02642 11.9772 9.08322C11.9447 9.14002 11.9657 9.21022 12.0241 9.24001C12.0825 9.2698 12.1562 9.2479 12.1887 9.1911C12.2213 9.13429 12.2003 9.0641 12.1419 9.03431Z" fill="#000088"/>
<path d="M14.9913 7.77686L14.526 9.10877L14.4088 9.77337L14.6674 9.14991L14.9913 7.77686Z" fill="#000088"/>
<path d="M12.4922 8.52278C12.4431 8.4778 12.364 8.48018 12.3155 8.52812C12.267 8.57605 12.2674 8.65138 12.3165 8.69637C12.3655 8.74136 12.4446 8.73897 12.4931 8.69104C12.5417 8.6431 12.5412 8.56777 12.4922 8.52278Z" fill="#000088"/>
<path d="M15.5856 8.01754L14.7731 9.17236L14.4738 9.79236L14.8918 9.26732L15.5856 8.01754Z" fill="#000088"/>
<path d="M12.9724 8.11782C12.9388 8.05864 12.8597 8.03801 12.7958 8.07175C12.7318 8.10549 12.7072 8.18082 12.7409 8.24C12.7745 8.29919 12.8536 8.31982 12.9175 8.28608C12.9815 8.25234 13.006 8.17701 12.9724 8.11782Z" fill="#000088"/>
<path d="M16.1006 8.39993L14.9945 9.28759L14.5254 9.82245L15.0726 9.43956L16.1006 8.39993Z" fill="#000088"/>
<path d="M13.5227 7.82779C13.4947 7.76724 13.421 7.73928 13.3581 7.76532C13.2952 7.79137 13.2669 7.86157 13.295 7.92211C13.323 7.98266 13.3967 8.01062 13.4596 7.98458C13.5225 7.95853 13.5507 7.88833 13.5227 7.82779Z" fill="#000088"/>
<path d="M16.4663 8.86451L15.1517 9.49445L14.5896 9.89719L15.2382 9.63368L16.4663 8.86451Z" fill="#000088"/>
<path d="M14.1519 7.7035C14.1429 7.63683 14.0796 7.58901 14.0105 7.59669C13.9414 7.60437 13.8927 7.66465 13.9017 7.73133C13.9107 7.798 13.974 7.84582 14.0431 7.83814C14.1122 7.83046 14.1609 7.77018 14.1519 7.7035Z" fill="#000088"/>
<path d="M16.718 9.4632L15.2746 9.66278L14.6121 9.92548L15.3082 9.88994L16.718 9.4632Z" fill="#000088"/>
<path d="M14.8019 7.71534C14.7982 7.64213 14.7349 7.5837 14.6605 7.58485C14.5861 7.58599 14.5287 7.64627 14.5324 7.71948C14.5361 7.7927 14.5994 7.85112 14.6738 7.84998C14.7482 7.84884 14.8055 7.78856 14.8019 7.71534Z" fill="#000088"/>
<path d="M16.7874 10.1072L15.3399 10.0002L14.6365 9.95474L15.3208 10.0077L16.7874 10.1072Z" fill="#000088"/>
<path d="M15.4457 7.89652C15.4477 7.82172 15.3773 7.75152 15.2884 7.73973C15.1995 7.72794 15.1258 7.77902 15.1238 7.85382C15.1218 7.92862 15.1922 7.99882 15.2811 8.01061C15.37 8.0224 15.4437 7.97132 15.4457 7.89652Z" fill="#000088"/>
<path d="M16.716 10.3392L15.2734 10.0604L14.6147 10.3952L15.3116 10.6939L16.716 10.3392Z" fill="#000088"/>
<path d="M15.9492 8.24293C15.9858 8.18481 15.966 8.10948 15.905 8.07468C15.844 8.03988 15.7649 8.05879 15.7284 8.11692C15.6918 8.17505 15.7115 8.25038 15.7725 8.28517C15.8335 8.31997 15.9126 8.30106 15.9492 8.24293Z" fill="#000088"/>
<path d="M16.4818 11.1757L15.2186 10.4142L14.5752 10.1862L15.1619 10.5965L16.4818 11.1757Z" fill="#000088"/>
<path d="M16.3773 8.69758C16.4272 8.65232 16.4289 8.57699 16.3812 8.52933C16.3335 8.48166 16.2544 8.47972 16.2045 8.52498C16.1547 8.57024 16.1529 8.64557 16.2007 8.69323C16.2484 8.7409 16.3275 8.74284 16.3773 8.69758Z" fill="#000088"/>
<path d="M16.0926 11.6674L15.081 10.6256L14.5314 10.2328L14.989 10.7655L16.0926 11.6674Z" fill="#000088"/>
<path d="M16.6685 9.24195C16.7276 9.21267 16.7498 9.14247 16.718 9.08516C16.6862 9.02785 16.6125 9.00512 16.5534 9.03439C16.4942 9.06367 16.4721 9.13387 16.5038 9.19118C16.5356 9.24849 16.6093 9.27122 16.6685 9.24195Z" fill="#000088"/>
<path d="M15.5865 12.0429L14.8896 10.7933L14.4721 10.2693L14.7736 10.8895L15.5865 12.0429Z" fill="#000088"/>
<path d="M16.8015 9.8387C16.8656 9.82613 16.9061 9.76585 16.8921 9.70406C16.8781 9.64227 16.8148 9.60237 16.7508 9.61494C16.6867 9.62751 16.6461 9.68779 16.6601 9.74958C16.6742 9.81137 16.7375 9.85127 16.8015 9.8387Z" fill="#000088"/>
<path d="M14.9983 12.2782L14.6574 10.9073L14.4014 10.2937L14.5305 10.9605L14.9983 12.2782Z" fill="#000088"/>
</g>
<defs>
<clipPath id="clip0_408_2111">
<rect width="28" height="20" fill="white" transform="translate(0.34668 0.0307617)"/>
</clipPath>
</defs>
</svg>
