<svg width="101" height="101" viewBox="0 0 101 101" fill="none" xmlns="http://www.w3.org/2000/svg">
<circle cx="50.0144" cy="50.0144" r="50.0144" fill="#0052C8"/>
<circle cx="68.0198" cy="66.019" r="10.0029" stroke="#F6F8FA" stroke-width="2.00058"/>
<path d="M68.0195 62.0178V66.0197H70.0205" stroke="#F6F8FA" stroke-width="2.00058" stroke-linecap="round" stroke-linejoin="round"/>
<path d="M33.0093 39.011H67.0191" stroke="#F6F8FA" stroke-width="2.00058"/>
<path d="M33.0093 62.0177H53.015" stroke="#F6F8FA" stroke-width="2.00058" stroke-linecap="round" stroke-linejoin="round"/>
<path d="M44.4494 28.0079C43.9518 31.118 42.9565 39.9505 42.9565 50.4002C42.9565 60.8499 43.9518 69.4336 44.4494 72.4192" stroke="#F6F8FA" stroke-width="2.00058"/>
<path d="M58.7604 56.5322C58.7515 57.0846 58.2965 57.5252 57.7442 57.5163C57.1918 57.5075 56.7512 57.0525 56.76 56.5001L58.7604 56.5322ZM57.2551 27.8499C57.7617 31.0162 59.0177 40.468 58.7604 56.5322L56.76 56.5001C57.0155 40.5551 55.7683 31.2197 55.2796 28.166L57.2551 27.8499Z" fill="#F6F8FA"/>
<path fill-rule="evenodd" clip-rule="evenodd" d="M37.4243 27.0074C37.1167 27.0074 36.8263 27.1489 36.6367 27.391C34.6544 29.9225 31.0088 38.0172 31.0088 51.1429C31.0088 57.7231 31.9241 62.8223 33.085 66.5387C34.2372 70.2274 35.651 72.6146 36.7016 73.7124C36.8903 73.9095 37.1514 74.021 37.4243 74.021H49.8918H57.7688C57.2812 73.3973 56.8493 72.7279 56.4805 72.0204H49.8918H37.8778C37.1086 71.0663 35.9766 69.0861 34.9946 65.9422C33.8991 62.4352 33.0094 57.5385 33.0094 51.1429C33.0094 39.0071 36.2097 31.5377 37.933 29.008H49.8918H62.0257C63.7715 31.5322 67.0192 39.0016 67.0192 51.1429C67.0192 51.7958 67.0098 52.4331 66.9917 53.0549C67.3308 53.0284 67.6735 53.0149 68.0194 53.0149C68.347 53.0149 68.6717 53.027 68.9932 53.0508C69.0107 52.4292 69.0198 51.7933 69.0198 51.1429C69.0198 38.0143 65.3233 29.9177 63.3136 27.3858C63.1238 27.1468 62.8353 27.0074 62.5301 27.0074H49.8918H37.4243Z" fill="#F6F8FA"/>
</svg>
