<svg width="101" height="101" viewBox="0 0 101 101" fill="none" xmlns="http://www.w3.org/2000/svg">
<circle cx="50.0711" cy="50.9721" r="50.0144" fill="#F6F8FA"/>
<path fill-rule="evenodd" clip-rule="evenodd" d="M50.3482 20.9633C49.1812 21.8969 46.8472 24.5644 46.8472 27.7653C46.8472 30.9662 49.1812 33.9004 50.3482 34.9674C51.5152 33.9004 53.8492 30.9662 53.8492 27.7653C53.8492 24.5644 51.5152 21.8969 50.3482 20.9633Z" stroke="#0052C8" stroke-width="2.00058" stroke-linejoin="round"/>
<path fill-rule="evenodd" clip-rule="evenodd" d="M40.9984 32.9986C40.4859 34.3673 39.8591 37.7943 41.4518 40.5529C43.0445 43.3115 46.4584 44.712 47.9663 45.0675C48.4124 43.5839 48.9065 39.927 47.3138 37.1684C45.7211 34.4098 42.4399 33.2392 40.9984 32.9986Z" stroke="#0052C8" stroke-width="2.00058" stroke-linejoin="round"/>
<path fill-rule="evenodd" clip-rule="evenodd" d="M40.9984 45.9438C40.4859 47.3124 39.8591 50.7394 41.4518 53.498C43.0445 56.2566 46.4584 57.6572 47.9663 58.0126C48.4124 56.529 48.9065 52.8722 47.3138 50.1136C45.7211 47.355 42.4399 46.1843 40.9984 45.9438Z" stroke="#0052C8" stroke-width="2.00058" stroke-linejoin="round"/>
<path fill-rule="evenodd" clip-rule="evenodd" d="M40.9984 59.0932C40.4859 60.4618 39.8591 63.8888 41.4518 66.6474C43.0445 69.406 46.4584 70.8066 47.9663 71.162C48.4124 69.6784 48.9065 66.0216 47.3138 63.263C45.7211 60.5044 42.4399 59.3337 40.9984 59.0932Z" stroke="#0052C8" stroke-width="2.00058" stroke-linejoin="round"/>
<path fill-rule="evenodd" clip-rule="evenodd" d="M59.9206 32.9986C60.433 34.3673 61.0598 37.7943 59.4671 40.5529C57.8745 43.3115 54.4605 44.712 52.9526 45.0675C52.5065 43.5839 52.0124 39.927 53.6051 37.1684C55.1978 34.4098 58.479 33.2392 59.9206 32.9986Z" stroke="#0052C8" stroke-width="2.00058" stroke-linejoin="round"/>
<path fill-rule="evenodd" clip-rule="evenodd" d="M59.9206 45.9438C60.433 47.3124 61.0598 50.7394 59.4671 53.498C57.8745 56.2566 54.4605 57.6572 52.9526 58.0126C52.5065 56.529 52.0124 52.8722 53.6051 50.1136C55.1978 47.355 58.479 46.1843 59.9206 45.9438Z" stroke="#0052C8" stroke-width="2.00058" stroke-linejoin="round"/>
<path fill-rule="evenodd" clip-rule="evenodd" d="M59.9206 59.0932C60.433 60.4618 61.0598 63.8888 59.4671 66.6474C57.8745 69.406 54.4605 70.8066 52.9526 71.162C52.5065 69.6784 52.0124 66.0216 53.6051 63.263C55.1978 60.5044 58.479 59.3337 59.9206 59.0932Z" stroke="#0052C8" stroke-width="2.00058" stroke-linejoin="round"/>
<rect x="49.0708" y="73.9787" width="3.00087" height="8.00231" rx="1.50043" fill="#0052C8"/>
</svg>
