<svg width="101" height="101" viewBox="0 0 101 101" fill="none" xmlns="http://www.w3.org/2000/svg">
<circle cx="50.0144" cy="50.0144" r="50.0144" fill="#0052C8"/>
<path fill-rule="evenodd" clip-rule="evenodd" d="M50.2915 20.0057C49.1245 20.9393 46.7905 23.6067 46.7905 26.8076C46.7905 30.0086 49.1245 32.9427 50.2915 34.0097C51.4585 32.9427 53.7925 30.0086 53.7925 26.8076C53.7925 23.6067 51.4585 20.9393 50.2915 20.0057Z" stroke="#F6F8FA" stroke-width="2.00058" stroke-linejoin="round"/>
<path fill-rule="evenodd" clip-rule="evenodd" d="M40.9417 32.041C40.4293 33.4097 39.8025 36.8366 41.3952 39.5952C42.9878 42.3538 46.4018 43.7544 47.9097 44.1098C48.3558 42.6262 48.8499 38.9694 47.2572 36.2108C45.6645 33.4522 42.3833 32.2815 40.9417 32.041Z" stroke="#F6F8FA" stroke-width="2.00058" stroke-linejoin="round"/>
<path fill-rule="evenodd" clip-rule="evenodd" d="M40.9417 44.9861C40.4293 46.3548 39.8025 49.7818 41.3952 52.5404C42.9878 55.2989 46.4018 56.6995 47.9097 57.055C48.3558 55.5714 48.8499 51.9145 47.2572 49.1559C45.6645 46.3973 42.3833 45.2266 40.9417 44.9861Z" stroke="#F6F8FA" stroke-width="2.00058" stroke-linejoin="round"/>
<path fill-rule="evenodd" clip-rule="evenodd" d="M40.9417 58.1355C40.4293 59.5042 39.8025 62.9312 41.3952 65.6898C42.9878 68.4484 46.4018 69.8489 47.9097 70.2044C48.3558 68.7208 48.8499 65.0639 47.2572 62.3053C45.6645 59.5467 42.3833 58.3761 40.9417 58.1355Z" stroke="#F6F8FA" stroke-width="2.00058" stroke-linejoin="round"/>
<path fill-rule="evenodd" clip-rule="evenodd" d="M59.8639 32.041C60.3764 33.4097 61.0032 36.8366 59.4105 39.5952C57.8178 42.3538 54.4039 43.7544 52.896 44.1098C52.4499 42.6262 51.9558 38.9694 53.5485 36.2108C55.1412 33.4522 58.4224 32.2815 59.8639 32.041Z" stroke="#F6F8FA" stroke-width="2.00058" stroke-linejoin="round"/>
<path fill-rule="evenodd" clip-rule="evenodd" d="M59.8639 44.9861C60.3764 46.3548 61.0032 49.7818 59.4105 52.5404C57.8178 55.2989 54.4039 56.6995 52.896 57.055C52.4499 55.5714 51.9558 51.9145 53.5485 49.1559C55.1412 46.3973 58.4224 45.2266 59.8639 44.9861Z" stroke="#F6F8FA" stroke-width="2.00058" stroke-linejoin="round"/>
<path fill-rule="evenodd" clip-rule="evenodd" d="M59.8639 58.1355C60.3764 59.5042 61.0032 62.9312 59.4105 65.6898C57.8178 68.4484 54.4039 69.8489 52.896 70.2044C52.4499 68.7208 51.9558 65.0639 53.5485 62.3053C55.1412 59.5467 58.4224 58.3761 59.8639 58.1355Z" stroke="#F6F8FA" stroke-width="2.00058" stroke-linejoin="round"/>
<rect x="49.0142" y="73.0211" width="3.00087" height="8.00231" rx="1.50043" fill="#F6F8FA"/>
</svg>
