<svg width="101" height="101" viewBox="0 0 101 101" fill="none" xmlns="http://www.w3.org/2000/svg">
<circle cx="50.2478" cy="50.9721" r="50.0144" fill="#F6F8FA"/>
<path fill-rule="evenodd" clip-rule="evenodd" d="M50.2652 27.9654C46.2583 32.8432 38.2446 44.5617 38.2446 52.4138C38.2446 62.1978 45.0193 65.9527 50.2159 65.9762C50.2209 65.9763 50.226 65.9764 50.231 65.9764C50.2367 65.9764 50.2424 65.9764 50.2481 65.9763C50.2538 65.9764 50.2595 65.9764 50.2652 65.9764C50.2702 65.9764 50.2753 65.9763 50.2803 65.9762C55.4769 65.9527 62.2516 62.1978 62.2516 52.4138C62.2516 44.5617 54.272 32.8432 50.2652 27.9654Z" stroke="#0052C8" stroke-width="2.00058"/>
<path fill-rule="evenodd" clip-rule="evenodd" d="M61.688 56.365C63.4268 56.8233 65.0072 57.3803 66.39 58.0141C70.5927 59.9403 72.2545 62.1955 72.2545 63.9758C72.2545 65.7562 70.5927 68.0114 66.39 69.9376C62.3621 71.7837 56.6571 72.9784 50.2481 72.9784C43.8392 72.9784 38.1341 71.7837 34.1062 69.9376C29.9036 68.0114 28.2418 65.7562 28.2418 63.9758C28.2418 62.1955 29.9036 59.9403 34.1062 58.0141C35.4729 57.3877 37.0325 56.8363 38.7473 56.3811C38.5171 55.6872 38.3806 55.0054 38.3093 54.4276C31.098 56.3259 26.2412 59.8909 26.2412 63.9758C26.2412 70.0527 36.9895 74.979 50.2481 74.979C63.5068 74.979 74.2551 70.0527 74.2551 63.9758C74.2551 59.8329 69.2595 56.2248 61.8787 54.3478C61.8525 55.0529 61.7801 55.7423 61.688 56.365Z" fill="#0052C8"/>
</svg>
