<svg width="101" height="101" viewBox="0 0 101 101" fill="none" xmlns="http://www.w3.org/2000/svg">
<circle cx="50.0144" cy="50.0144" r="50.0144" fill="#0052C8"/>
<path fill-rule="evenodd" clip-rule="evenodd" d="M50.0318 27.0078C46.0249 31.8855 38.0112 43.6041 38.0112 51.4561C38.0112 61.2402 44.7859 64.995 49.9825 65.0186C49.9875 65.0187 49.9926 65.0187 49.9976 65.0187C50.0033 65.0187 50.009 65.0187 50.0147 65.0187C50.0204 65.0187 50.0261 65.0187 50.0318 65.0187C50.0368 65.0187 50.0419 65.0187 50.0469 65.0186C55.2435 64.995 62.0182 61.2402 62.0182 51.4561C62.0182 43.6041 54.0386 31.8855 50.0318 27.0078Z" fill="#0052C8" stroke="#F6F8FA" stroke-width="2.00058"/>
<path fill-rule="evenodd" clip-rule="evenodd" d="M61.4546 55.4074C63.1934 55.8656 64.7738 56.4226 66.1566 57.0564C70.3593 58.9826 72.0211 61.2378 72.0211 63.0182C72.0211 64.7985 70.3593 67.0537 66.1566 68.9799C62.1287 70.8261 56.4237 72.0208 50.0147 72.0208C43.6058 72.0208 37.9007 70.8261 33.8728 68.9799C29.6702 67.0537 28.0084 64.7985 28.0084 63.0182C28.0084 61.2378 29.6702 58.9826 33.8728 57.0564C35.2395 56.4301 36.7991 55.8787 38.5139 55.4235C38.2837 54.7296 38.1472 54.0478 38.0759 53.47C30.8646 55.3682 26.0078 58.9332 26.0078 63.0182C26.0078 69.0951 36.7561 74.0214 50.0147 74.0214C63.2734 74.0214 74.0217 69.0951 74.0217 63.0182C74.0217 58.8753 69.0261 55.2672 61.6453 53.3902C61.6191 54.0952 61.5467 54.7847 61.4546 55.4074Z" fill="#F6F8FA"/>
</svg>
