<svg width="101" height="101" viewBox="0 0 101 101" fill="none" xmlns="http://www.w3.org/2000/svg">
<circle cx="50.0711" cy="50.0601" r="50.0144" fill="#F6F8FA"/>
<circle cx="68.0764" cy="66.0647" r="10.0029" stroke="#0052C8" stroke-width="2.00058"/>
<path d="M68.0762 62.0635V66.0654H70.0771" stroke="#0052C8" stroke-width="2.00058" stroke-linecap="round" stroke-linejoin="round"/>
<path d="M33.0659 39.0566H67.0757" stroke="#0052C8" stroke-width="2.00058"/>
<path d="M33.0659 62.0634H53.0717" stroke="#0052C8" stroke-width="2.00058" stroke-linecap="round" stroke-linejoin="round"/>
<path d="M44.506 28.0536C44.0084 31.1636 43.0132 39.9961 43.0132 50.4458C43.0132 60.8956 44.0084 69.4792 44.506 72.4649" stroke="#0052C8" stroke-width="2.00058"/>
<path d="M58.817 56.5778C58.8081 57.1302 58.3532 57.5708 57.8008 57.562C57.2484 57.5531 56.8078 57.0982 56.8167 56.5458L58.817 56.5778ZM57.3117 27.8956C57.8183 31.0619 59.0744 40.5137 58.817 56.5778L56.8167 56.5458C57.0721 40.6007 55.8249 31.2654 55.3363 28.2116L57.3117 27.8956Z" fill="#0052C8"/>
<path fill-rule="evenodd" clip-rule="evenodd" d="M37.4809 27.0531C37.1734 27.0531 36.8829 27.1946 36.6933 27.4367C34.711 29.9682 31.0654 38.0628 31.0654 51.1886C31.0654 57.7687 31.9808 62.868 33.1416 66.5844C34.2938 70.273 35.7077 72.6603 36.7583 73.758C36.9469 73.9552 37.208 74.0667 37.4809 74.0667H49.9484H57.8254C57.3378 73.443 56.9059 72.7736 56.5371 72.0661H49.9484H37.9344C37.1652 71.1119 36.0332 69.1317 35.0512 65.9879C33.9557 62.4808 33.066 57.5842 33.066 51.1886C33.066 39.0528 36.2663 31.5833 37.9897 29.0537H49.9484H62.0823C63.8281 31.5779 67.0758 39.0473 67.0758 51.1886C67.0758 51.8415 67.0664 52.4788 67.0484 53.1006C67.3874 53.0741 67.7301 53.0605 68.076 53.0605C68.4036 53.0605 68.7284 53.0727 69.0499 53.0965C69.0673 52.4749 69.0764 51.839 69.0764 51.1886C69.0764 38.06 65.3799 29.9633 63.3702 27.4315C63.1805 27.1924 62.8919 27.0531 62.5867 27.0531H49.9484H37.4809Z" fill="#0052C8"/>
</svg>
