<svg width="239" height="108" viewBox="0 0 239 108" fill="none" xmlns="http://www.w3.org/2000/svg">
<path fill-rule="evenodd" clip-rule="evenodd" d="M8.42558 16.1976H18.9473L15.8879 4.44673H11.4826L8.42558 16.1976ZM0.605469 27.7902L7.82928 0H19.5412L26.7674 27.7902H21.924L20.0572 20.6443H7.31329L5.44893 27.7902H0.605469ZM27.0898 27.7909L32.5685 7.74288H42.0559L47.5346 27.7909H43.0903L38.7214 11.5933H35.903L31.5366 27.7909H27.0898ZM49.8303 7.74323V27.7913H54.1578V19.3335H57.6504L63.6061 27.7913H68.766L61.2234 17.0724L68.1721 7.74323H63.2094L57.334 15.483H54.1578V7.74323H49.8303ZM79.5684 24.4158C80.7586 24.4158 81.8319 24.1383 82.7836 23.5834C83.7353 23.0261 84.4849 22.2448 85.0277 21.2396C85.568 20.2344 85.8406 19.0831 85.8406 17.7859C85.8406 16.4618 85.568 15.2984 85.0277 14.2932C84.4849 13.288 83.7353 12.5067 82.7836 11.9494C81.8319 11.3945 80.7586 11.117 79.5684 11.117C78.4026 11.117 77.3438 11.3945 76.3922 11.9494C75.4381 12.5067 74.6909 13.288 74.1481 14.2932C73.6054 15.2984 73.3352 16.4618 73.3352 17.7859C73.3352 19.0831 73.6054 20.2344 74.1481 21.2396C74.6909 22.2448 75.4381 23.0261 76.3922 23.5834C77.3438 24.1383 78.4026 24.4158 79.5684 24.4158ZM79.5684 28.2687C77.5556 28.2687 75.7375 27.8111 74.1092 26.8984C72.4809 25.9857 71.2031 24.7273 70.2782 23.1258C69.3509 21.5268 68.8885 19.7452 68.8885 17.7859C68.8885 15.829 69.3509 14.0401 70.2782 12.4264C71.2031 10.8128 72.4809 9.54956 74.1092 8.63685C75.7375 7.7217 77.5556 7.26656 79.5684 7.26656C81.6056 7.26656 83.4383 7.7217 85.0666 8.63685C86.6949 9.54956 87.9702 10.8128 88.8976 12.4264C89.8224 14.0401 90.2873 15.829 90.2873 17.7859C90.2873 19.7452 89.8224 21.5268 88.8976 23.1258C87.9702 24.7273 86.6949 25.9857 85.0666 26.8984C83.4383 27.8111 81.6056 28.2687 79.5684 28.2687ZM93.7051 7.74324V27.7913H98.0325V11.5937H108.155V7.74324H93.7051ZM120.141 24.4161C121.331 24.4161 122.404 24.1386 123.356 23.5837C124.308 23.0263 125.057 22.245 125.6 21.2398C126.14 20.2346 126.413 19.0834 126.413 17.7861C126.413 16.4621 126.14 15.2987 125.6 14.2935C125.057 13.2883 124.308 12.507 123.356 11.9496C122.404 11.3947 121.331 11.1172 120.141 11.1172C118.975 11.1172 117.916 11.3947 116.965 11.9496C116.011 12.507 115.263 13.2883 114.721 14.2935C114.178 15.2987 113.908 16.4621 113.908 17.7861C113.908 19.0834 114.178 20.2346 114.721 21.2398C115.263 22.245 116.011 23.0263 116.965 23.5837C117.916 24.1386 118.975 24.4161 120.141 24.4161ZM120.141 28.2689C118.128 28.2689 116.31 27.8113 114.682 26.8986C113.053 25.9859 111.776 24.7276 110.851 23.1261C109.923 21.527 109.461 19.7454 109.461 17.7861C109.461 15.8293 109.923 14.0404 110.851 12.4267C111.776 10.813 113.053 9.54981 114.682 8.6371C116.31 7.72196 118.128 7.26682 120.141 7.26682C122.178 7.26682 124.011 7.72196 125.639 8.6371C127.267 9.54981 128.543 10.813 129.47 12.4267C130.395 14.0404 130.86 15.8293 130.86 17.7861C130.86 19.7454 130.395 21.527 129.47 23.1261C128.543 24.7276 127.267 25.9859 125.639 26.8986C124.011 27.8113 122.178 28.2689 120.141 28.2689ZM137.451 7.74301L131.972 27.791H136.419L140.786 11.5934H143.604L147.973 27.791H152.417L146.938 7.74301H137.451ZM163.934 24.0185C165.047 24.0185 165.918 23.741 166.553 23.1861C167.189 22.6287 167.507 21.9156 167.507 21.0418C167.507 20.168 167.189 19.4549 166.553 18.8976C165.918 18.3402 165.047 18.0652 163.934 18.0652H159.052V24.0185H163.934ZM154.725 27.791V7.743H159.052V14.2926H164.134C165.667 14.2926 167.03 14.5969 168.223 15.2053C169.413 15.8138 170.331 16.634 170.981 17.666C171.63 18.698 171.954 19.8249 171.954 21.0418C171.954 22.2855 171.63 23.4222 170.981 24.4566C170.331 25.4885 169.413 26.3015 168.223 26.8978C167.03 27.4916 165.667 27.791 164.134 27.791H154.725ZM174.969 7.74288V27.7909H179.296V19.4548H189.141V27.7909H193.508V7.74288H189.141V15.6019H179.296V7.74288H174.969ZM207.285 24.416C208.397 24.416 209.41 24.1459 210.322 23.6031C211.235 23.0603 211.951 22.2864 212.464 21.2787C212.98 20.2735 213.241 19.1101 213.241 17.7861C213.241 16.4377 212.98 15.2597 212.464 14.2521C211.951 13.2469 211.235 12.4729 210.322 11.9301C209.41 11.3874 208.397 11.1172 207.285 11.1172C206.199 11.1172 205.206 11.3874 204.306 11.9301C203.408 12.4729 202.699 13.2469 202.183 14.2521C201.667 15.2597 201.409 16.4377 201.409 17.7861C201.409 19.1101 201.667 20.2735 202.183 21.2787C202.699 22.2864 203.408 23.0603 204.306 23.6031C205.206 24.1459 206.199 24.416 207.285 24.416ZM206.411 28.2689C204.69 28.2689 203.108 27.8235 201.667 26.9375C200.224 26.0516 199.08 24.8079 198.233 23.2064C197.386 21.6049 196.963 19.7989 196.963 17.7861C196.963 15.7489 197.386 13.9284 198.233 12.3269C199.08 10.7254 200.224 9.48407 201.667 8.59569C203.108 7.70975 204.69 7.26679 206.411 7.26679C207.655 7.26679 208.748 7.47123 209.687 7.88256C210.627 8.29146 211.386 8.77337 211.97 9.33073C212.552 9.88566 212.934 10.3213 213.119 10.6402H213.241V7.74139H217.607V27.7918H213.241V24.8931H213.119C212.934 25.2363 212.552 25.6817 211.97 26.222C211.386 26.7647 210.627 27.2418 209.687 27.6531C208.748 28.062 207.655 28.2689 206.411 28.2689ZM234.672 11.5926V17.7868H229.751C228.558 17.7868 227.638 17.5021 226.991 16.9325C226.341 16.3654 226.017 15.589 226.017 14.6106C226.017 13.7101 226.341 12.9823 226.991 12.4274C227.638 11.87 228.558 11.5926 229.751 11.5926H234.672ZM222.663 18.3612C223.391 19.381 224.284 20.1161 225.343 20.5664L221.254 27.7902H226.136L229.471 21.518H229.909H230.225H234.672V27.7902H238.999V7.74215H229.471C227.857 7.74215 226.455 8.03908 225.263 8.63539C224.072 9.23169 223.16 10.0519 222.524 11.0961C221.889 12.1426 221.57 13.3133 221.57 14.6106C221.57 16.0928 221.935 17.3439 222.663 18.3612Z" fill="white"/>
<path fill-rule="evenodd" clip-rule="evenodd" d="M14.8882 64.695C12.0308 64.695 9.47516 64.0598 7.22624 62.7893C4.97732 61.5188 3.21031 59.7664 1.92521 57.5296C0.642549 55.2929 0 52.7835 0 50.0064C0 47.2269 0.642549 44.72 1.92521 42.4833C3.21031 40.2465 4.97732 38.4917 7.22624 37.2212C9.47516 35.9507 12.0308 35.3179 14.8882 35.3179C17.4827 35.3179 19.7389 35.7998 21.6568 36.766C23.5747 37.7323 25.1105 38.9955 26.2618 40.5581C27.413 42.1182 28.2551 43.8122 28.7833 45.6376H23.9398C23.3046 43.9996 22.2264 42.6074 20.7052 41.4708C19.1815 40.3317 17.2442 39.7622 14.8882 39.7622C12.9824 39.7622 11.2762 40.2003 9.76723 41.0716C8.25821 41.9454 7.08021 43.1502 6.23321 44.6859C5.38622 46.2217 4.96272 47.9936 4.96272 50.0064C4.96272 52.0436 5.38135 53.8301 6.21374 55.3659C7.04857 56.8992 8.21927 58.0992 9.72829 58.9583C11.2373 59.8199 12.9556 60.2483 14.8882 60.2483C17.2977 60.2483 19.2813 59.6203 20.8439 58.362C22.404 57.1061 23.5042 55.5776 24.1394 53.7766H28.9829C28.3987 55.7091 27.5079 57.5028 26.3031 59.1579C25.0984 60.8105 23.5285 62.1492 21.5984 63.1665C19.6659 64.1863 17.4291 64.695 14.8882 64.695ZM32.4746 63.9011V43.8531H36.8021V55.6842L36.6828 57.6679H36.9213L46.3697 43.8531H51.0939V63.9011H46.7665V52.0699L46.8857 50.0863H46.6472L37.1988 63.9011H32.4746ZM67.7109 59.791C66.8517 60.2826 65.8781 60.526 64.7926 60.526C63.7071 60.526 62.7408 60.2826 61.8963 59.791C61.0469 59.3017 60.38 58.6203 59.8908 57.7465C59.4015 56.8751 59.1557 55.8821 59.1557 54.7698C59.1557 53.6843 59.4015 52.7132 59.8908 51.8516C60.38 50.9924 61.0469 50.3182 61.8963 49.8266C62.7408 49.3374 63.7071 49.0915 64.7926 49.0915C65.8781 49.0915 66.8517 49.3374 67.7109 49.8266C68.57 50.3182 69.2467 50.9924 69.7359 51.8516C70.2251 52.7132 70.4709 53.6843 70.4709 54.7698C70.4709 55.8821 70.2251 56.8751 69.7359 57.7465C69.2467 58.6203 68.57 59.3017 67.7109 59.791ZM59.5524 63.0086C61.0882 63.9213 62.8333 64.3789 64.7926 64.3789C66.7787 64.3789 68.5384 63.9602 70.0717 63.1254C71.6075 62.293 72.8001 61.1491 73.6471 59.6936C74.4917 58.2381 74.9176 56.5952 74.9176 54.7698C74.9176 53.0223 74.5136 51.4354 73.7056 50.0067C72.8975 48.5756 71.7925 47.4584 70.3906 46.6503C68.9887 45.8447 67.4261 45.4407 65.7053 45.4407C64.172 45.4407 62.8406 45.7303 61.7162 46.3145C60.5917 46.8962 59.7374 47.5971 59.1557 48.4174H59.0365C59.3018 45.6378 60.1755 43.569 61.6553 42.2036C63.1376 40.8431 65.35 40.1591 68.2877 40.1591H73.2504V36.1116H67.9689C65.0847 36.1116 62.663 36.6933 60.7037 37.8591C58.7444 39.0225 57.2573 40.8358 56.2375 43.2964C55.2177 45.7571 54.709 48.909 54.709 52.7448V52.7838C54.709 55.1933 55.1325 57.2719 55.9795 59.017C56.8265 60.7645 58.0167 62.0959 59.5524 63.0086ZM78.1269 63.901V43.853H82.4544V55.6842L82.3351 57.6678H82.5737L92.0221 43.853H96.7462V63.901H92.4188V52.0698L92.538 50.0862H92.2995L82.8511 63.901H78.1269ZM114.631 59.7124C113.745 60.2552 112.747 60.5253 111.635 60.5253C110.522 60.5253 109.51 60.2552 108.597 59.7124C107.685 59.1696 106.969 58.3957 106.453 57.388C105.937 56.3828 105.679 55.2194 105.679 53.8954C105.679 52.547 105.937 51.369 106.453 50.3614C106.969 49.3562 107.685 48.5822 108.597 48.0394C109.51 47.4967 110.522 47.2265 111.635 47.2265C112.747 47.2265 113.745 47.4967 114.631 48.0394C115.519 48.5822 116.22 49.3562 116.736 50.3614C117.252 51.369 117.51 52.547 117.51 53.8954C117.51 55.2194 117.252 56.3828 116.736 57.388C116.22 58.3957 115.519 59.1696 114.631 59.7124ZM101.352 43.8507V71.4438H105.679V61.0024H105.798C106.01 61.3456 106.407 61.791 106.988 62.3313C107.573 62.874 108.325 63.3511 109.252 63.7624C110.179 64.1713 111.277 64.3782 112.547 64.3782C114.268 64.3782 115.843 63.9328 117.272 63.0468C118.7 62.1609 119.839 60.9172 120.686 59.3132C121.533 57.7142 121.957 55.9082 121.957 53.8954C121.957 51.8582 121.533 50.0377 120.686 48.4362C119.839 46.8346 118.7 45.5934 117.272 44.705C115.843 43.819 114.268 43.3761 112.547 43.3761C111.277 43.3761 110.179 43.5805 109.252 43.9919C108.325 44.4008 107.573 44.8778 106.988 45.4181C106.407 45.9633 106.01 46.4063 105.798 46.7495H105.679V43.8507H101.352ZM134.664 64.3776C132.732 64.3776 130.972 63.9152 129.385 62.9879C127.796 62.0606 126.545 60.8047 125.632 59.2153C124.719 57.6284 124.262 55.8566 124.262 53.8948C124.262 51.938 124.719 50.1588 125.632 48.5573C126.545 46.9558 127.796 45.6926 129.385 44.7653C130.972 43.8404 132.732 43.3755 134.664 43.3755C136.516 43.3755 138.13 43.726 139.508 44.427C140.883 45.1304 141.98 46.0358 142.803 47.1481C143.623 48.2579 144.217 49.4773 144.59 50.7989H140.143C139.746 49.7937 139.084 48.9467 138.157 48.2579C137.232 47.5716 136.066 47.226 134.664 47.226C133.579 47.226 132.581 47.5034 131.668 48.0608C130.753 48.6157 130.032 49.397 129.502 50.4022C128.974 51.4074 128.708 52.5732 128.708 53.8948C128.708 55.1945 128.974 56.3458 129.502 57.351C130.032 58.3562 130.753 59.1375 131.668 59.6924C132.581 60.2497 133.579 60.5248 134.664 60.5248C136.093 60.5248 137.283 60.1646 138.237 59.4344C139.189 58.7066 139.851 57.8134 140.221 56.7547H144.668C144.351 58.1055 143.774 59.3565 142.942 60.5053C142.107 61.6565 140.997 62.5912 139.607 63.3067C138.218 64.0198 136.57 64.3776 134.664 64.3776ZM147.881 43.8529V63.9009H152.208V55.4432H155.701L161.657 63.9009H166.817L159.274 53.1821L166.223 43.8529H161.26L155.385 51.5927H152.208V43.8529H147.881ZM177.338 60.5259C178.45 60.5259 179.463 60.2557 180.375 59.7129C181.288 59.1702 182.004 58.3962 182.517 57.3886C183.033 56.3834 183.294 55.22 183.294 53.8959C183.294 52.5476 183.033 51.3695 182.517 50.3619C182.004 49.3567 181.288 48.5827 180.375 48.04C179.463 47.4972 178.45 47.2271 177.338 47.2271C176.252 47.2271 175.259 47.4972 174.359 48.04C173.461 48.5827 172.752 49.3567 172.236 50.3619C171.72 51.3695 171.462 52.5476 171.462 53.8959C171.462 55.22 171.72 56.3834 172.236 57.3886C172.752 58.3962 173.461 59.1702 174.359 59.7129C175.259 60.2557 176.252 60.5259 177.338 60.5259ZM176.464 64.3787C174.743 64.3787 173.161 63.9333 171.72 63.0474C170.277 62.1614 169.133 60.9177 168.286 59.3138C167.439 57.7147 167.016 55.9088 167.016 53.8959C167.016 51.8588 167.439 50.0382 168.286 48.4367C169.133 46.8352 170.277 45.5939 171.72 44.7055C173.161 43.8196 174.743 43.3766 176.464 43.3766C177.708 43.3766 178.801 43.5811 179.74 43.9924C180.68 44.4013 181.439 44.8832 182.023 45.4406C182.605 45.9955 182.987 46.4312 183.172 46.75H183.294V43.8512H187.66V63.9017H183.294V61.0029H183.172C182.987 61.3461 182.605 61.7915 182.023 62.3318C181.439 62.8746 180.68 63.3516 179.74 63.763C178.801 64.1719 177.708 64.3787 176.464 64.3787ZM204.731 47.704V53.8958H199.809C198.617 53.8958 197.697 53.6135 197.049 53.0415C196.399 52.4744 196.076 51.7004 196.076 50.7196C196.076 49.8215 196.399 49.0913 197.049 48.5364C197.697 47.9814 198.617 47.704 199.809 47.704H204.731ZM192.722 54.4726C193.449 55.49 194.343 56.225 195.401 56.6753L191.312 63.9016H196.195L199.529 57.6294H199.967H200.284H204.731V63.9016H209.058V43.8535H199.529C197.916 43.8535 196.514 44.1505 195.321 44.7444C194.131 45.3407 193.218 46.1609 192.583 47.2075C191.948 48.254 191.629 49.4247 191.629 50.7196C191.629 52.2042 191.994 53.4528 192.722 54.4726Z" fill="white"/>
<path fill-rule="evenodd" clip-rule="evenodd" d="M1.44531 72.0872V99.8774H6.16951V76.5339H19.7872V72.0872H1.44531ZM35.84 95.6892C34.9541 96.232 33.9562 96.5021 32.8439 96.5021C31.7316 96.5021 30.7191 96.232 29.8064 95.6892C28.8937 95.1464 28.1781 94.3725 27.6621 93.3648C27.1461 92.3596 26.8881 91.1962 26.8881 89.8722C26.8881 88.5238 27.1461 87.3458 27.6621 86.3382C28.1781 85.333 28.8937 84.559 29.8064 84.0162C30.7191 83.4735 31.7316 83.2033 32.8439 83.2033C33.9562 83.2033 34.9541 83.4735 35.84 84.0162C36.7284 84.559 37.4293 85.333 37.9453 86.3382C38.4613 87.3458 38.7193 88.5238 38.7193 89.8722C38.7193 91.1962 38.4613 92.3596 37.9453 93.3648C37.4293 94.3725 36.7284 95.1464 35.84 95.6892ZM22.5607 79.8275V107.421H26.8881V96.9792H27.0074C27.2191 97.3223 27.6159 97.7677 28.1976 98.3081C28.7817 98.8508 29.5338 99.3279 30.4611 99.7392C31.3884 100.148 32.4861 100.353 33.7566 100.353C35.4774 100.353 37.0521 99.9096 38.4808 99.0236C39.9095 98.1377 41.0485 96.894 41.8955 95.2925C42.7425 93.691 43.166 91.885 43.166 89.8722C43.166 87.835 42.7425 86.0145 41.8955 84.4129C41.0485 82.8114 39.9095 81.5677 38.4808 80.6818C37.0521 79.7958 35.4774 79.3529 33.7566 79.3529C32.4861 79.3529 31.3884 79.5573 30.4611 79.9686C29.5338 80.3775 28.7817 80.8546 28.1976 81.3973C27.6159 81.9401 27.2191 82.3831 27.0074 82.7263H26.8881V79.8275H22.5607ZM51.7008 107.42L54.0033 99.8775H49.5176L44.1582 79.8295H48.7242L52.891 96.0271H55.1545L59.959 79.8295H64.4837L56.2668 107.42H51.7008ZM66.5878 79.8294V99.8774H70.9153V83.6798H80.5608V99.8774H84.9297V79.8294H66.5878ZM89.4945 99.8774V79.8294H107.836V99.8774H103.467V83.6798H93.822V99.8774H89.4945ZM124.643 95.6895C123.73 96.2322 122.718 96.5024 121.605 96.5024C120.52 96.5024 119.527 96.2322 118.626 95.6895C117.728 95.1467 117.02 94.3727 116.504 93.3651C115.988 92.3599 115.73 91.1965 115.73 89.8725C115.73 88.5241 115.988 87.3461 116.504 86.3385C117.02 85.3333 117.728 84.5593 118.626 84.0165C119.527 83.4738 120.52 83.2036 121.605 83.2036C122.718 83.2036 123.73 83.4738 124.643 84.0165C125.556 84.5593 126.271 85.3333 126.785 86.3385C127.301 87.3461 127.561 88.5241 127.561 89.8725C127.561 91.1965 127.301 92.3599 126.785 93.3651C126.271 94.3727 125.556 95.1467 124.643 95.6895ZM115.988 99.0239C117.429 99.9099 119.011 100.353 120.732 100.353C121.975 100.353 123.068 100.148 124.008 99.7395C124.947 99.3282 125.707 98.8511 126.291 98.3084C126.872 97.768 127.255 97.3226 127.44 96.9795H127.561V99.8782H131.928V79.8278H127.561V82.7266H127.44C127.255 82.4077 126.872 81.972 126.291 81.4171C125.707 80.8598 124.947 80.3778 124.008 79.9689C123.068 79.5576 121.975 79.3532 120.732 79.3532C119.011 79.3532 117.429 79.7961 115.988 80.6821C114.545 81.568 113.401 82.8117 112.554 84.4132C111.707 86.0147 111.283 87.8353 111.283 89.8725C111.283 91.8853 111.707 93.6913 112.554 95.2928C113.401 96.8943 114.545 98.138 115.988 99.0239Z" fill="white"/>
</svg>
