<svg width="38" height="45" viewBox="0 0 38 45" fill="none" xmlns="http://www.w3.org/2000/svg">
<mask id="path-1-inside-1_1_13074" fill="white">
<path fill-rule="evenodd" clip-rule="evenodd" d="M38 19C38 8.50659 29.4934 0 19 0C8.50659 0 0 8.50659 0 19C0 24.2467 2.12666 28.9967 5.565 32.4351L5.56497 32.4351L16.1716 43.0417C17.7337 44.6038 20.2663 44.6038 21.8284 43.0417L32.435 32.4351L32.435 32.4351C35.8733 28.9967 38 24.2467 38 19Z"/>
</mask>
<path d="M5.565 32.4351L6.96821 33.8602L8.40444 32.4461L6.97921 31.0208L5.565 32.4351ZM5.56497 32.4351L4.16176 31.01L2.72554 32.4241L4.15076 33.8493L5.56497 32.4351ZM16.1716 43.0417L14.7574 44.4559H14.7574L16.1716 43.0417ZM21.8284 43.0417L23.2426 44.4559L21.8284 43.0417ZM32.435 32.4351L33.8492 33.8493L35.2635 32.4351L33.8492 31.0209L32.435 32.4351ZM32.435 32.4351L31.0208 31.0208L29.6066 32.4351L31.0208 33.8493L32.435 32.4351ZM19 2C28.3888 2 36 9.61116 36 19H40C40 7.40202 30.598 -2 19 -2V2ZM2 19C2 9.61116 9.61116 2 19 2V-2C7.40202 -2 -2 7.40202 -2 19H2ZM6.97921 31.0208C3.90061 27.9423 2 23.695 2 19H-2C-2 24.7985 0.352709 30.0512 4.15079 33.8493L6.97921 31.0208ZM6.96818 33.8602L6.96821 33.8602L4.16179 31.0099L4.16176 31.01L6.96818 33.8602ZM17.5858 41.6275L6.97918 31.0209L4.15076 33.8493L14.7574 44.4559L17.5858 41.6275ZM20.4142 41.6275C19.6332 42.4085 18.3668 42.4085 17.5858 41.6275L14.7574 44.4559C17.1005 46.799 20.8995 46.799 23.2426 44.4559L20.4142 41.6275ZM31.0208 31.0209L20.4142 41.6275L23.2426 44.4559L33.8492 33.8493L31.0208 31.0209ZM31.0208 33.8493L31.0208 33.8493L33.8492 31.0209L33.8492 31.0208L31.0208 33.8493ZM36 19C36 23.695 34.0994 27.9423 31.0208 31.0208L33.8492 33.8493C37.6473 30.0512 40 24.7985 40 19H36Z" fill="white" mask="url(#path-1-inside-1_1_13074)"/>
<circle cx="19" cy="19" r="8" transform="rotate(-90 19 19)" stroke="white" stroke-width="2"/>
</svg>
