<svg width="100" height="100" viewBox="0 0 100 100" fill="none" xmlns="http://www.w3.org/2000/svg">
<circle cx="50" cy="50" r="50" fill="#F6F8FA"/>
<mask id="path-2-inside-1_270_668" fill="white">
<path fill-rule="evenodd" clip-rule="evenodd" d="M69 46C69 35.5066 60.4934 27 50 27C39.5066 27 31 35.5066 31 46C31 51.2467 33.1267 55.9967 36.565 59.4351L36.565 59.4351L47.1716 70.0417C48.7337 71.6038 51.2663 71.6038 52.8284 70.0417L63.435 59.4351L63.435 59.4351C66.8733 55.9967 69 51.2467 69 46Z"/>
</mask>
<path d="M36.565 59.4351L37.9682 60.8602L39.4044 59.4461L37.9792 58.0208L36.565 59.4351ZM36.565 59.4351L35.1618 58.01L33.7255 59.4241L35.1508 60.8493L36.565 59.4351ZM47.1716 70.0417L45.7574 71.4559L45.7574 71.4559L47.1716 70.0417ZM52.8284 70.0417L54.2426 71.4559L54.2426 71.4559L52.8284 70.0417ZM63.435 59.4351L64.8492 60.8493L66.2635 59.4351L64.8492 58.0209L63.435 59.4351ZM63.435 59.4351L62.0208 58.0208L60.6066 59.4351L62.0208 60.8493L63.435 59.4351ZM50 29C59.3888 29 67 36.6112 67 46H71C71 34.402 61.598 25 50 25V29ZM33 46C33 36.6112 40.6112 29 50 29V25C38.402 25 29 34.402 29 46H33ZM37.9792 58.0208C34.9006 54.9423 33 50.695 33 46H29C29 51.7985 31.3527 57.0512 35.1508 60.8493L37.9792 58.0208ZM37.9682 60.8602L37.9682 60.8602L35.1618 58.0099L35.1618 58.01L37.9682 60.8602ZM48.5858 68.6275L37.9792 58.0209L35.1508 60.8493L45.7574 71.4559L48.5858 68.6275ZM51.4142 68.6275C50.6332 69.4085 49.3668 69.4085 48.5858 68.6275L45.7574 71.4559C48.1005 73.799 51.8995 73.799 54.2426 71.4559L51.4142 68.6275ZM62.0208 58.0209L51.4142 68.6275L54.2426 71.4559L64.8492 60.8493L62.0208 58.0209ZM62.0208 60.8493L62.0208 60.8493L64.8492 58.0209L64.8492 58.0208L62.0208 60.8493ZM67 46C67 50.695 65.0994 54.9423 62.0208 58.0208L64.8492 60.8493C68.6473 57.0512 71 51.7985 71 46H67Z" fill="#0052C8" mask="url(#path-2-inside-1_270_668)"/>
<circle cx="50" cy="46" r="8" transform="rotate(-90 50 46)" stroke="#0052C8" stroke-width="2"/>
</svg>
