<svg width="44" height="46" viewBox="0 0 44 46" fill="none" xmlns="http://www.w3.org/2000/svg">
<path fill-rule="evenodd" clip-rule="evenodd" d="M18.8321 10.8267L19.7518 8H22H24.2482L25.1679 10.8267L27.4161 11.9783L30.1752 10.5126L33.7518 13.8628L32.0146 16.7942L33.1387 19.0975L36 20.0397V22.4477V22.5523V24.9603L33.1387 25.9025L32.0146 28.2058L33.7518 31.1372L30.1752 34.4874L27.4161 33.0217L25.1679 34.1733L24.2482 37H22H19.7518L18.8321 34.1733L16.5839 33.0217L13.8248 34.4874L10.2482 31.1372L11.9854 28.2058L10.8613 25.9025L8 24.9603V22.5523V22.4477V20.0397L10.8613 19.0975L11.9854 16.7942L10.2482 13.8628L13.8248 10.5126L16.5839 11.9783L18.8321 10.8267Z" stroke="#0052C8" stroke-width="2" stroke-linejoin="round"/>
<circle cx="22" cy="23" r="5" stroke="#0052C8" stroke-width="2"/>
<circle cx="22" cy="23" r="21" stroke="#0052C8" stroke-width="2"/>
<rect x="33.8301" y="8.21484" width="5" height="4.23466" transform="rotate(-40.3494 33.8301 8.21484)" fill="#F6F8FA"/>
<rect x="3" y="37.2373" width="5" height="3.71808" transform="rotate(-40.3494 3 37.2373)" fill="#F6F8FA"/>
<path d="M34.25 1.00207L36.0068 7.05981L30.0078 8.00683" stroke="#0052C8" stroke-width="2" stroke-linecap="round" stroke-linejoin="round"/>
<path d="M9.0216 44.2414L7.31594 38.1691L13.3226 37.2726" stroke="#0052C8" stroke-width="2" stroke-linecap="round" stroke-linejoin="round"/>
</svg>
