<svg width="900" height="327" viewBox="0 0 900 327" fill="none" xmlns="http://www.w3.org/2000/svg">
<path d="M167.58 6.48442H167.343L167.193 6.66854L0.612419 211.059L0.5 211.197V211.375V256.028V256.528H1H170.301V320.016V320.516H170.801H221.42H221.92V320.016V256.528H275.259H275.759V256.028V210.455V209.955H275.259H221.92V6.98442V6.48442H221.42H167.58ZM791.321 6.48442H791.084L790.934 6.66854L624.353 211.059L624.241 211.197V211.375V256.028V256.528H624.741H794.042V320.016V320.516H794.542H845.161H845.661V320.016V256.528H899H899.5V256.028V210.455V209.955H899H845.661V6.98442V6.48442H845.161H791.321ZM60.4932 209.955L170.301 75.1393V209.955H60.4932ZM451.233 0.5C402.551 0.5 367.311 18.2797 344.254 47.588C321.212 76.8784 310.382 117.626 310.382 163.5C310.382 209.374 321.212 250.122 344.254 279.412C367.311 308.72 402.551 326.5 451.233 326.5C499.916 326.5 535.156 308.72 558.212 279.412C581.254 250.122 592.084 209.374 592.084 163.5C592.084 117.626 581.254 76.8784 558.212 47.588C535.156 18.2797 499.916 0.5 451.233 0.5ZM451.233 49.3753C481.014 49.3753 502.709 59.7939 516.979 79.2086C531.269 98.6506 538.165 127.183 538.165 163.5C538.165 199.817 531.269 228.349 516.979 247.791C502.709 267.206 481.014 277.625 451.233 277.625C421.222 277.625 399.527 267.205 385.315 247.792C371.082 228.351 364.302 199.819 364.302 163.5C364.302 127.181 371.082 98.6493 385.315 79.2079C399.527 59.7946 421.222 49.3753 451.233 49.3753ZM684.234 209.955L794.042 75.1393V209.955H684.234Z" stroke="#0052C8"/>
</svg>
