<svg width="100" height="100" viewBox="0 0 100 100" fill="none" xmlns="http://www.w3.org/2000/svg">
<circle cx="50" cy="50" r="50" fill="#F6F8FA"/>
<path d="M32 27C32 26.4477 32.4477 26 33 26H57.1716C57.4368 26 57.6911 26.1054 57.8787 26.2929L63.2929 31.7071L67.7071 36.1213C67.8946 36.3089 68 36.5632 68 36.8284V74C68 74.5523 67.5523 75 67 75H33C32.4477 75 32 74.5523 32 74V27Z" stroke="#0052C8" stroke-width="2"/>
<path d="M39.3546 66.9775C39.3546 67.757 38.8112 68.1188 38.1842 68.1188C37.5573 68.1188 37 67.757 37 66.9775C37 66.1981 37.5573 65.8362 38.1842 65.8362C38.8112 65.8362 39.3546 66.1981 39.3546 66.9775Z" fill="#0052C8"/>
<path d="M42.4479 62.2313C42.8658 61.6328 43.6321 61.0621 44.8721 61.0621C46.9898 61.0621 48.1323 62.7741 48.1323 64.5974C48.1323 66.4208 46.9898 68.1328 44.8721 68.1328C43.8132 68.1328 43.1027 67.7013 42.6708 67.2281V71H40.7342V61.257H42.4479V62.2313ZM46.1539 64.5974C46.1539 63.5535 45.499 62.6906 44.3984 62.6906C43.5485 62.6906 42.9216 63.2195 42.6568 63.8041V65.3908C42.9216 65.9754 43.5485 66.5043 44.3984 66.5043C45.499 66.5043 46.1539 65.6413 46.1539 64.5974Z" fill="#0052C8"/>
<path d="M54.5003 58.1949H56.423V67.9379H54.7232V66.9636C54.2913 67.5621 53.525 68.1328 52.299 68.1328C50.1674 68.1328 49.0249 66.4208 49.0249 64.5974C49.0249 62.7741 50.1674 61.0621 52.299 61.0621C53.3579 61.0621 54.0684 61.4936 54.5003 61.9668V58.1949ZM54.5003 63.8041C54.2356 63.2195 53.6086 62.6906 52.7588 62.6906C51.6581 62.6906 51.0033 63.5535 51.0033 64.5974C51.0033 65.6413 51.6581 66.5043 52.7588 66.5043C53.6086 66.5043 54.2356 65.9754 54.5003 65.3908V63.8041Z" fill="#0052C8"/>
<path d="M60.6454 67.9379H58.7228V62.8854H57.5664V61.257H58.7228V60.6028C58.7228 58.5846 60.0881 58 61.356 58C61.969 58 62.5681 58.1113 63 58.2784V59.9069C62.7074 59.7398 62.2755 59.6285 61.8436 59.6285C61.2167 59.6285 60.6454 59.8512 60.6454 60.6863V61.257H62.6935V62.8854H60.6454V67.9379Z" fill="#0052C8"/>
</svg>
