<svg width="100" height="100" viewBox="0 0 100 100" fill="none" xmlns="http://www.w3.org/2000/svg">
<circle cx="50" cy="50" r="50" fill="#0052C8"/>
<path d="M67 44.118V30H74V40V49V71H58H41H25V48.8778L40 41.597V47.6128C40 48.6463 41.0815 49.3236 42.0113 48.8723L57 41.597V47.6128C57 48.6463 58.0815 49.3236 59.0113 48.8723L66.2113 45.3775C66.6937 45.1433 67 44.6542 67 44.118Z" fill="#0052C8" stroke="#F6F8FA" stroke-width="2"/>
<mask id="path-3-inside-1_270_687" fill="white">
<rect x="32" y="55" width="7" height="8" rx="1"/>
</mask>
<rect x="32" y="55" width="7" height="8" rx="1" stroke="#F6F8FA" stroke-width="4" stroke-linejoin="round" mask="url(#path-3-inside-1_270_687)"/>
<mask id="path-4-inside-2_270_687" fill="white">
<rect x="46" y="55" width="7" height="8" rx="1"/>
</mask>
<rect x="46" y="55" width="7" height="8" rx="1" stroke="#F6F8FA" stroke-width="4" stroke-linejoin="round" mask="url(#path-4-inside-2_270_687)"/>
<mask id="path-5-inside-3_270_687" fill="white">
<rect x="60" y="55" width="7" height="8" rx="1"/>
</mask>
<rect x="60" y="55" width="7" height="8" rx="1" stroke="#F6F8FA" stroke-width="4" stroke-linejoin="round" mask="url(#path-5-inside-3_270_687)"/>
</svg>
