<svg width="38" height="51" viewBox="0 0 38 51" fill="none" xmlns="http://www.w3.org/2000/svg">
<path d="M1 2C1 1.44772 1.44772 1 2 1H26.1716C26.4368 1 26.6911 1.10536 26.8787 1.29289L32.2929 6.70711L36.7071 11.1213C36.8946 11.3089 37 11.5632 37 11.8284V49C37 49.5523 36.5523 50 36 50H2C1.44772 50 1 49.5523 1 49V2Z" stroke="#0052C8" stroke-width="2"/>
<path d="M8.35456 41.9775C8.35456 42.757 7.8112 43.1188 7.18425 43.1188C6.55729 43.1188 6 42.757 6 41.9775C6 41.1981 6.55729 40.8362 7.18425 40.8362C7.8112 40.8362 8.35456 41.1981 8.35456 41.9775Z" fill="#0052C8"/>
<path d="M11.4479 37.2313C11.8658 36.6328 12.6321 36.0621 13.8721 36.0621C15.9898 36.0621 17.1323 37.7741 17.1323 39.5974C17.1323 41.4208 15.9898 43.1328 13.8721 43.1328C12.8132 43.1328 12.1027 42.7013 11.6708 42.2281V46H9.73419V36.257H11.4479V37.2313ZM15.1539 39.5974C15.1539 38.5535 14.499 37.6906 13.3984 37.6906C12.5485 37.6906 11.9216 38.2195 11.6568 38.8041V40.3908C11.9216 40.9754 12.5485 41.5043 13.3984 41.5043C14.499 41.5043 15.1539 40.6413 15.1539 39.5974Z" fill="#0052C8"/>
<path d="M23.5003 33.1949H25.423V42.9379H23.7232V41.9636C23.2913 42.5621 22.525 43.1328 21.299 43.1328C19.1674 43.1328 18.0249 41.4208 18.0249 39.5974C18.0249 37.7741 19.1674 36.0621 21.299 36.0621C22.3579 36.0621 23.0684 36.4936 23.5003 36.9668V33.1949ZM23.5003 38.8041C23.2356 38.2195 22.6086 37.6906 21.7588 37.6906C20.6581 37.6906 20.0033 38.5535 20.0033 39.5974C20.0033 40.6413 20.6581 41.5043 21.7588 41.5043C22.6086 41.5043 23.2356 40.9754 23.5003 40.3908V38.8041Z" fill="#0052C8"/>
<path d="M29.6454 42.9379H27.7228V37.8854H26.5664V36.257H27.7228V35.6028C27.7228 33.5846 29.0881 33 30.356 33C30.969 33 31.5681 33.1113 32 33.2784V34.9069C31.7074 34.7398 31.2755 34.6285 30.8436 34.6285C30.2167 34.6285 29.6454 34.8512 29.6454 35.6863V36.257H31.6935V37.8854H29.6454V42.9379Z" fill="#0052C8"/>
</svg>
