<svg width="772" height="155" viewBox="0 0 772 155" fill="none" xmlns="http://www.w3.org/2000/svg">
<path fill-rule="evenodd" clip-rule="evenodd" d="M16.9465 35.1009H39.7476L33.1177 9.63626H23.5711L16.9465 35.1009ZM0 60.2227L15.6543 0H41.0345L56.6941 60.2227H46.1981L42.1527 44.7371H14.5361L10.496 60.2227H0ZM57.3883 60.2241L69.2609 16.7792H89.8203L101.693 60.2241H92.0619L82.5945 25.1232H76.4868L67.0246 60.2241H57.3883ZM106.675 16.7797V60.2246H116.052V41.8962H123.621L136.527 60.2246H147.709L131.364 36.9964L146.422 16.7797H135.668L122.935 33.5522H116.052V16.7797H106.675ZM171.12 52.9102C173.699 52.9102 176.025 52.3089 178.088 51.1063C180.15 49.8985 181.775 48.2054 182.951 46.0271C184.122 43.8488 184.712 41.3541 184.712 38.5428C184.712 35.6736 184.122 33.1524 182.951 30.9741C181.775 28.7958 180.15 27.1027 178.088 25.8949C176.025 24.6923 173.699 24.0911 171.12 24.0911C168.594 24.0911 166.3 24.6923 164.237 25.8949C162.17 27.1027 160.551 28.7958 159.374 30.9741C158.198 33.1524 157.613 35.6736 157.613 38.5428C157.613 41.3541 158.198 43.8488 159.374 46.0271C160.551 48.2054 162.17 49.8985 164.237 51.1063C166.3 52.3089 168.594 52.9102 171.12 52.9102ZM171.12 61.2595C166.758 61.2595 162.818 60.2679 159.29 58.29C155.761 56.3121 152.992 53.5853 150.988 50.1148C148.979 46.6495 147.976 42.7887 147.976 38.5428C147.976 34.3022 148.979 30.4256 150.988 26.9287C152.992 23.4318 155.761 20.6944 159.29 18.7165C162.818 16.7333 166.758 15.747 171.12 15.747C175.535 15.747 179.507 16.7333 183.035 18.7165C186.564 20.6944 189.327 23.4318 191.337 26.9287C193.341 30.4256 194.349 34.3022 194.349 38.5428C194.349 42.7887 193.341 46.6495 191.337 50.1148C189.327 53.5853 186.564 56.3121 183.035 58.29C179.507 60.2679 175.535 61.2595 171.12 61.2595ZM201.754 16.7798V60.2247H211.132V25.1238H233.068V16.7798H201.754ZM259.039 52.9106C261.618 52.9106 263.944 52.3093 266.006 51.1067C268.068 49.8989 269.693 48.2058 270.869 46.0275C272.04 43.8492 272.631 41.3545 272.631 38.5432C272.631 35.674 272.04 33.1528 270.869 30.9745C269.693 28.7962 268.068 27.1031 266.006 25.8953C263.944 24.6927 261.618 24.0915 259.039 24.0915C256.512 24.0915 254.218 24.6927 252.156 25.8953C250.088 27.1031 248.469 28.7962 247.293 30.9745C246.116 33.1528 245.531 35.674 245.531 38.5432C245.531 41.3545 246.116 43.8492 247.293 46.0275C248.469 48.2058 250.088 49.8989 252.156 51.1067C254.218 52.3093 256.512 52.9106 259.039 52.9106ZM259.039 61.2599C254.677 61.2599 250.737 60.2683 247.208 58.2904C243.68 56.3125 240.911 53.5857 238.906 50.1152C236.897 46.6499 235.895 42.7891 235.895 38.5432C235.895 34.3026 236.897 30.426 238.906 26.9291C240.911 23.4322 243.68 20.6948 247.208 18.7169C250.737 16.7337 254.677 15.7474 259.039 15.7474C263.453 15.7474 267.425 16.7337 270.953 18.7169C274.482 20.6948 277.246 23.4322 279.255 26.9291C281.259 30.426 282.267 34.3026 282.267 38.5432C282.267 42.7891 281.259 46.6499 279.255 50.1152C277.246 53.5857 274.482 56.3125 270.953 58.2904C267.425 60.2683 263.453 61.2599 259.039 61.2599ZM296.548 16.7798L284.676 60.2247H294.312L303.774 25.1238H309.882L319.349 60.2247H328.98L317.108 16.7798H296.548ZM353.94 52.0494C356.351 52.0494 358.239 51.4481 359.615 50.2455C360.992 49.0377 361.683 47.4923 361.683 45.5988C361.683 43.7053 360.992 42.16 359.615 40.9521C358.239 39.7443 356.351 39.1483 353.94 39.1483H343.36V52.0494H353.94ZM333.982 60.2246V16.7797H343.36V30.973H354.373C357.696 30.973 360.649 31.6323 363.234 32.9509C365.813 34.2695 367.801 36.047 369.209 38.2833C370.618 40.5196 371.319 42.9617 371.319 45.5988C371.319 48.294 370.618 50.7572 369.209 52.9988C367.801 55.2351 365.813 56.9967 363.234 58.2889C360.649 59.5759 357.696 60.2246 354.373 60.2246H333.982ZM377.85 16.7792V60.2241H387.228V42.1594H408.562V60.2241H418.025V16.7792H408.562V33.8101H387.228V16.7792H377.85ZM447.885 52.9106C450.296 52.9106 452.49 52.3251 454.468 51.1489C456.446 49.9728 457.996 48.2955 459.109 46.1119C460.227 43.9336 460.792 41.4125 460.792 38.5432C460.792 35.6212 460.227 33.0684 459.109 30.8848C457.996 28.7065 456.446 27.0293 454.468 25.8531C452.49 24.6769 450.296 24.0915 447.885 24.0915C445.533 24.0915 443.381 24.6769 441.43 25.8531C439.483 27.0293 437.949 28.7065 436.83 30.8848C435.712 33.0684 435.153 35.6212 435.153 38.5432C435.153 41.4125 435.712 43.9336 436.83 46.1119C437.949 48.2955 439.483 49.9728 441.43 51.1489C443.381 52.3251 445.533 52.9106 447.885 52.9106ZM445.992 61.2599C442.263 61.2599 438.835 60.2947 435.712 58.3748C432.585 56.4549 430.106 53.7597 428.27 50.2892C426.435 46.8187 425.517 42.9051 425.517 38.5432C425.517 34.1286 426.435 30.1833 428.27 26.7128C430.106 23.2423 432.585 20.5524 435.712 18.6272C438.835 16.7074 442.263 15.7474 445.992 15.7474C448.687 15.7474 451.055 16.1905 453.091 17.0818C455.127 17.9679 456.773 19.0123 458.039 20.2201C459.299 21.4226 460.127 22.3667 460.528 23.0577H460.792V16.7759H470.254V60.2261H460.792V53.9443H460.528C460.127 54.688 459.299 55.6532 458.039 56.8241C456.773 58.0003 455.127 59.0341 453.091 59.9255C451.055 60.8116 448.687 61.2599 445.992 61.2599ZM507.236 25.1214V38.5446H496.572C493.987 38.5446 491.994 37.9275 490.591 36.6933C489.182 35.4644 488.481 33.7819 488.481 31.6616C488.481 29.7101 489.182 28.133 490.591 26.9305C491.994 25.7226 493.987 25.1214 496.572 25.1214H507.236ZM481.213 39.7894C482.79 41.9993 484.726 43.5922 487.02 44.5679L478.159 60.2222H488.739L495.965 46.6302H496.915H497.6H507.236V60.2222H516.614V16.7773H495.965C492.468 16.7773 489.43 17.4208 486.846 18.713C484.267 20.0052 482.289 21.7827 480.912 24.0454C479.536 26.3134 478.845 28.8503 478.845 31.6616C478.845 34.8737 479.636 37.5847 481.213 39.7894Z" fill="white"/>
<path fill-rule="evenodd" clip-rule="evenodd" d="M34.5836 140.197C28.3915 140.197 22.8534 138.821 17.9799 136.067C13.1064 133.314 9.27719 129.517 6.49233 124.669C3.71274 119.822 2.32031 114.384 2.32031 108.366C2.32031 102.343 3.71274 96.9105 6.49233 92.0634C9.27719 87.2162 13.1064 83.4134 17.9799 80.6602C22.8534 77.907 28.3915 76.5356 34.5836 76.5356C40.2061 76.5356 45.0954 77.58 49.2516 79.6739C53.4078 81.7678 56.7359 84.5052 59.2307 87.8913C61.7254 91.2722 63.5504 94.9432 64.6949 98.8989H54.1989C52.8223 95.3493 50.4858 92.3324 47.1893 89.8692C43.8876 87.4008 39.6892 86.1666 34.5836 86.1666C30.4538 86.1666 26.7564 87.116 23.4863 89.0042C20.2162 90.8977 17.6634 93.5085 15.828 96.8367C13.9925 100.165 13.0747 104.005 13.0747 108.366C13.0747 112.781 13.9819 116.652 15.7858 119.981C17.5949 123.303 20.1318 125.904 23.4019 127.766C26.672 129.633 30.3957 130.561 34.5836 130.561C39.8052 130.561 44.1038 129.2 47.4899 126.473C50.8708 123.752 53.2548 120.439 54.6314 116.536H65.1274C63.8616 120.724 61.9311 124.611 59.3203 128.198C56.7095 131.779 53.3076 134.68 49.125 136.885C44.9372 139.095 40.09 140.197 34.5836 140.197ZM72.6921 138.477V95.0317H82.0699V120.67L81.8114 124.969H82.3283L102.803 95.0317H113.041V138.477H103.663V112.838L103.922 108.539H103.405L82.9296 138.477H72.6921ZM149.052 129.57C147.19 130.635 145.08 131.163 142.728 131.163C140.376 131.163 138.282 130.635 136.452 129.57C134.611 128.51 133.166 127.033 132.105 125.139C131.045 123.251 130.513 121.099 130.513 118.689C130.513 116.336 131.045 114.232 132.105 112.365C133.166 110.503 134.611 109.042 136.452 107.976C138.282 106.916 140.376 106.384 142.728 106.384C145.08 106.384 147.19 106.916 149.052 107.976C150.914 109.042 152.38 110.503 153.44 112.365C154.5 114.232 155.033 116.336 155.033 118.689C155.033 121.099 154.5 123.251 153.44 125.139C152.38 127.033 150.914 128.51 149.052 129.57ZM131.372 136.542C134.7 138.52 138.482 139.512 142.728 139.512C147.032 139.512 150.845 138.605 154.168 136.796C157.496 134.992 160.081 132.513 161.916 129.359C163.746 126.205 164.669 122.644 164.669 118.689C164.669 114.902 163.794 111.463 162.043 108.367C160.292 105.265 157.897 102.845 154.859 101.093C151.821 99.3476 148.435 98.4721 144.706 98.4721C141.383 98.4721 138.498 99.0997 136.061 100.366C133.625 101.626 131.773 103.145 130.513 104.923H130.254C130.829 98.8993 132.723 94.4161 135.929 91.4572C139.141 88.5088 143.936 87.0267 150.302 87.0267H161.056V78.2554H149.611C143.361 78.2554 138.113 79.516 133.867 82.0424C129.621 84.5636 126.399 88.493 124.189 93.8254C121.979 99.1577 120.876 105.988 120.876 114.3V114.385C120.876 119.606 121.794 124.111 123.63 127.892C125.465 131.679 128.044 134.565 131.372 136.542ZM171.627 138.477V95.0317H181.005V120.67L180.746 124.969H181.263L201.738 95.0317H211.976V138.477H202.598V112.838L202.856 108.539H202.339L181.864 138.477H171.627ZM250.732 129.4C248.812 130.576 246.65 131.161 244.24 131.161C241.829 131.161 239.635 130.576 237.657 129.4C235.679 128.224 234.129 126.546 233.01 124.363C231.892 122.185 231.333 119.663 231.333 116.794C231.333 113.872 231.892 111.319 233.01 109.136C234.129 106.957 235.679 105.28 237.657 104.104C239.635 102.928 241.829 102.342 244.24 102.342C246.65 102.342 248.812 102.928 250.732 104.104C252.657 105.28 254.176 106.957 255.295 109.136C256.413 111.319 256.972 113.872 256.972 116.794C256.972 119.663 256.413 122.185 255.295 124.363C254.176 126.546 252.657 128.224 250.732 129.4ZM221.955 95.0268V154.822H231.333V132.195H231.592C232.05 132.939 232.91 133.904 234.171 135.075C235.437 136.251 237.066 137.285 239.076 138.176C241.085 139.062 243.464 139.511 246.217 139.511C249.946 139.511 253.359 138.546 256.455 136.626C259.551 134.706 262.019 132.011 263.855 128.535C265.69 125.07 266.608 121.156 266.608 116.794C266.608 112.379 265.69 108.434 263.855 104.964C262.019 101.493 259.551 98.8033 256.455 96.8781C253.359 94.9583 249.946 93.9983 246.217 93.9983C243.464 93.9983 241.085 94.4414 239.076 95.3328C237.066 96.2188 235.437 97.2526 234.171 98.4235C232.91 99.605 232.05 100.565 231.592 101.309H231.333V95.0268H221.955ZM294.142 139.51C289.954 139.51 286.141 138.507 282.702 136.498C279.258 134.488 276.547 131.767 274.569 128.323C272.591 124.884 271.6 121.044 271.6 116.793C271.6 112.552 272.591 108.697 274.569 105.226C276.547 101.756 279.258 99.0183 282.702 97.0088C286.141 95.0045 289.954 93.9971 294.142 93.9971C298.156 93.9971 301.653 94.7566 304.638 96.2756C307.618 97.7999 309.997 99.762 311.78 102.172C313.557 104.577 314.844 107.22 315.651 110.084H306.015C305.155 107.906 303.721 106.07 301.711 104.577C299.707 103.09 297.18 102.341 294.142 102.341C291.79 102.341 289.628 102.942 287.65 104.15C285.666 105.353 284.105 107.046 282.955 109.224C281.811 111.403 281.236 113.929 281.236 116.793C281.236 119.609 281.811 122.104 282.955 124.282C284.105 126.461 285.666 128.154 287.65 129.356C289.628 130.564 291.79 131.16 294.142 131.16C297.238 131.16 299.818 130.38 301.885 128.797C303.947 127.22 305.382 125.285 306.184 122.99H315.82C315.134 125.918 313.884 128.629 312.08 131.118C310.271 133.613 307.866 135.638 304.855 137.189C301.843 138.734 298.272 139.51 294.142 139.51ZM322.788 95.0313V138.476H332.166V120.148H339.734L352.641 138.476H363.822L347.477 115.248L362.535 95.0313H351.781L339.049 111.804H332.166V95.0313H322.788ZM386.617 131.162C389.028 131.162 391.222 130.577 393.2 129.401C395.178 128.224 396.728 126.547 397.841 124.364C398.959 122.185 399.524 119.664 399.524 116.795C399.524 113.873 398.959 111.32 397.841 109.136C396.728 106.958 395.178 105.281 393.2 104.105C391.222 102.929 389.028 102.343 386.617 102.343C384.265 102.343 382.113 102.929 380.161 104.105C378.215 105.281 376.68 106.958 375.562 109.136C374.444 111.32 373.885 113.873 373.885 116.795C373.885 119.664 374.444 122.185 375.562 124.364C376.68 126.547 378.215 128.224 380.161 129.401C382.113 130.577 384.265 131.162 386.617 131.162ZM384.724 139.512C380.995 139.512 377.566 138.546 374.444 136.626C371.316 134.707 368.837 132.011 367.002 128.536C365.166 125.07 364.249 121.157 364.249 116.795C364.249 112.38 365.166 108.435 367.002 104.964C368.837 101.494 371.316 98.804 374.444 96.8789C377.566 94.959 380.995 93.9991 384.724 93.9991C387.419 93.9991 389.787 94.4421 391.823 95.3335C393.859 96.2196 395.505 97.2639 396.77 98.4717C398.031 99.6743 398.859 100.618 399.26 101.309H399.524V95.0276H408.986V138.478H399.524V132.196H399.26C398.859 132.94 398.031 133.905 396.77 135.076C395.505 136.252 393.859 137.286 391.823 138.177C389.787 139.063 387.419 139.512 384.724 139.512ZM445.978 103.377V116.794H435.313C432.729 116.794 430.735 116.183 429.332 114.943C427.924 113.714 427.223 112.037 427.223 109.911C427.223 107.965 427.924 106.383 429.332 105.18C430.735 103.978 432.729 103.377 435.313 103.377H445.978ZM419.954 118.044C421.531 120.249 423.467 121.842 425.762 122.818L416.901 138.477H427.481L434.707 124.885H435.656H436.342H445.978V138.477H455.356V95.0325H434.707C431.21 95.0325 428.172 95.6759 425.587 96.9629C423.008 98.2551 421.03 100.033 419.654 102.301C418.277 104.569 417.586 107.105 417.586 109.911C417.586 113.129 418.377 115.835 419.954 118.044Z" fill="white"/>
<path fill-rule="evenodd" clip-rule="evenodd" d="M489.23 78.161V138.384H499.468V87.7973H528.978V78.161H489.23ZM563.757 129.307C561.837 130.484 559.675 131.069 557.264 131.069C554.854 131.069 552.66 130.484 550.682 129.307C548.704 128.131 547.153 126.454 546.035 124.27C544.917 122.092 544.358 119.571 544.358 116.702C544.358 113.78 544.917 111.227 546.035 109.043C547.153 106.865 548.704 105.188 550.682 104.012C552.66 102.835 554.854 102.25 557.264 102.25C559.675 102.25 561.837 102.835 563.757 104.012C565.682 105.188 567.201 106.865 568.319 109.043C569.438 111.227 569.997 113.78 569.997 116.702C569.997 119.571 569.438 122.092 568.319 124.27C567.201 126.454 565.682 128.131 563.757 129.307ZM534.98 94.9345V154.73H544.358V132.103H544.616C545.075 132.847 545.935 133.812 547.196 134.983C548.461 136.159 550.091 137.193 552.101 138.084C554.11 138.97 556.489 139.413 559.242 139.413C562.971 139.413 566.384 138.453 569.48 136.533C572.576 134.613 575.044 131.918 576.88 128.448C578.715 124.977 579.633 121.064 579.633 116.702C579.633 112.287 578.715 108.342 576.88 104.871C575.044 101.401 572.576 98.7056 569.48 96.7858C566.384 94.8659 562.971 93.906 559.242 93.906C556.489 93.906 554.11 94.349 552.101 95.2404C550.091 96.1265 548.461 97.1603 547.196 98.3364C545.935 99.5126 545.075 100.473 544.616 101.216H544.358V94.9345H534.98ZM598.133 154.729L603.123 138.384H593.402L581.788 94.939H591.683L600.712 130.04H605.618L616.029 94.939H625.834L608.028 154.729H598.133ZM630.4 94.9388V138.384H639.778V103.283H660.68V138.384H670.147V94.9388H630.4ZM680.036 138.384V94.9387H719.784V138.384H710.316V103.283H689.414V138.384H680.036ZM756.213 129.308C754.235 130.484 752.041 131.07 749.63 131.07C747.278 131.07 745.126 130.484 743.174 129.308C741.228 128.132 739.693 126.455 738.575 124.271C737.457 122.093 736.898 119.572 736.898 116.702C736.898 113.78 737.457 111.228 738.575 109.044C739.693 106.866 741.228 105.189 743.174 104.012C745.126 102.836 747.278 102.251 749.63 102.251C752.041 102.251 754.235 102.836 756.213 104.012C758.191 105.189 759.741 106.866 760.854 109.044C761.972 111.228 762.537 113.78 762.537 116.702C762.537 119.572 761.972 122.093 760.854 124.271C759.741 126.455 758.191 128.132 756.213 129.308ZM737.457 136.534C740.579 138.454 744.008 139.414 747.737 139.414C750.432 139.414 752.8 138.971 754.836 138.085C756.872 137.193 758.518 136.16 759.783 134.983C761.044 133.813 761.872 132.847 762.273 132.104H762.537V138.385H771.999V94.9352H762.537V101.217H762.273C761.872 100.526 761.044 99.5819 759.783 98.3794C758.518 97.1715 756.872 96.1272 754.836 95.2411C752.8 94.3497 750.432 93.9067 747.737 93.9067C744.008 93.9067 740.579 94.8666 737.457 96.7865C734.329 98.7064 731.85 101.402 730.015 104.872C728.179 108.343 727.262 112.288 727.262 116.702C727.262 121.064 728.179 124.978 730.015 128.448C731.85 131.919 734.329 134.614 737.457 136.534Z" fill="white"/>
</svg>
