<svg width="26" height="74" viewBox="0 0 26 74" fill="none" xmlns="http://www.w3.org/2000/svg">
<path d="M5.67196 23.0443L6.50401 23.599L6.50401 23.599L5.67196 23.0443ZM2.32345 26.9509L3.03056 27.658L3.04739 27.6412L3.06339 27.6236L2.32345 26.9509ZM1.48633 71.0396H0.486328V71.7166L1.11494 71.9681L1.48633 71.0396ZM9.56374 72.152L9.64576 71.1554L9.61136 71.1525L9.57684 71.1521L9.56374 72.152ZM9.896 72.1551L9.90145 71.155L9.89054 71.1551L9.896 72.1551ZM10.2283 72.152L10.2152 71.1521L10.1806 71.1525L10.1462 71.1554L10.2283 72.152ZM18.3057 71.0396L18.6771 71.9681L19.3057 71.7166V71.0396H18.3057ZM17.4685 26.9509L16.7286 27.6236L16.7446 27.6412L16.7614 27.658L17.4685 26.9509ZM14.12 23.0443L13.288 23.599L13.288 23.599L14.12 23.0443ZM7.34621 2H9.65536V0H7.34621V2ZM7.23004 2.11617C7.23004 2.0357 7.2457 2.01409 7.24084 2.02352C7.23639 2.03216 7.22997 2.03689 7.23291 2.03477C7.23948 2.03004 7.25796 2.01939 7.28957 2.01036C7.32257 2.00093 7.34639 2 7.34621 2V0C7.00016 0 6.50334 0.0955893 6.0643 0.411699C5.57427 0.764522 5.23004 1.34378 5.23004 2.11617H7.23004ZM7.23004 21.3701V2.11617H5.23004V21.3701H7.23004ZM6.50401 23.599C7.07627 22.7406 7.23004 21.815 7.23004 21.3701H5.23004C5.23004 21.4045 5.21866 21.5646 5.15523 21.7919C5.09388 22.0117 4.99341 22.2594 4.83991 22.4896L6.50401 23.599ZM3.06339 27.6236C3.53208 27.108 4.26271 26.2931 4.93379 25.5211C5.58333 24.7739 6.23735 23.999 6.50401 23.599L4.83991 22.4896C4.6601 22.7593 4.10494 23.4261 3.42438 24.209C2.76536 24.9671 2.04497 25.7706 1.58351 26.2782L3.06339 27.6236ZM2.48633 28.9042C2.48633 28.6616 2.56419 28.4004 2.69101 28.1518C2.81894 27.9011 2.96686 27.7217 3.03056 27.658L1.61635 26.2438C1.23808 26.6221 0.486328 27.6429 0.486328 28.9042H2.48633ZM2.48633 71.0396V28.9042H0.486328V71.0396H2.48633ZM9.57684 71.1521C5.29011 71.0959 2.59838 70.4074 1.85772 70.1111L1.11494 71.9681C2.15765 72.3851 5.1131 73.0938 9.55064 73.1519L9.57684 71.1521ZM9.48171 73.1486C9.53953 73.1534 9.59744 73.1557 9.65536 73.1557V71.1557C9.65156 71.1557 9.64839 71.1556 9.64576 71.1554L9.48171 73.1486ZM9.65536 73.1557C9.73789 73.1557 9.81992 73.1555 9.90145 73.1551L9.89054 71.1551C9.81263 71.1555 9.73423 71.1557 9.65536 71.1557V73.1557ZM10.1366 71.1557C10.0578 71.1557 9.97936 71.1555 9.90145 71.1551L9.89054 73.1551C9.97207 73.1555 10.0541 73.1557 10.1366 73.1557V71.1557ZM10.1462 71.1554C10.1436 71.1556 10.1404 71.1557 10.1366 71.1557V73.1557C10.1946 73.1557 10.2525 73.1534 10.3103 73.1486L10.1462 71.1554ZM10.2414 73.1519C14.6789 73.0938 17.6343 72.3851 18.6771 71.9681L17.9343 70.1111C17.1936 70.4074 14.5019 71.0959 10.2152 71.1521L10.2414 73.1519ZM19.3057 71.0396V28.9042H17.3057V71.0396H19.3057ZM19.3057 28.9042C19.3057 27.6429 18.5539 26.6221 18.1756 26.2438L16.7614 27.658C16.8251 27.7217 16.973 27.9011 17.101 28.1518C17.2278 28.4004 17.3057 28.6616 17.3057 28.9042H19.3057ZM18.2085 26.2782C17.747 25.7706 17.0266 24.9671 16.3676 24.209C15.6871 23.4261 15.1319 22.7593 14.9521 22.4896L13.288 23.599C13.5546 23.999 14.2087 24.7739 14.8582 25.5211C15.5293 26.2931 16.2599 27.108 16.7286 27.6236L18.2085 26.2782ZM14.9521 22.4896C14.7986 22.2594 14.6981 22.0117 14.6368 21.7919C14.5733 21.5646 14.5619 21.4045 14.5619 21.3701H12.5619C12.5619 21.815 12.7157 22.7406 13.288 23.599L14.9521 22.4896ZM14.5619 21.3701V2.11617H12.5619V21.3701H14.5619ZM14.5619 2.11617C14.5619 1.34378 14.2177 0.764522 13.7277 0.411699C13.2886 0.0955894 12.7918 0 12.4458 0V2C12.4456 2 12.4694 2.00093 12.5024 2.01036C12.534 2.01939 12.5525 2.03004 12.5591 2.03477C12.562 2.03689 12.5556 2.03216 12.5512 2.02352C12.5463 2.01409 12.5619 2.0357 12.5619 2.11617H14.5619ZM12.4458 0H10.1366V2H12.4458V0ZM10.1366 0H9.65536V2H10.1366V0Z" fill="#0052C8"/>
<path d="M1 37.7939H18.5079" stroke="#0052C8" stroke-width="2"/>
<path d="M5.86328 6.66882H13.6446" stroke="#0052C8" stroke-width="2"/>
<path d="M1 59.1925H18.5079" stroke="#0052C8" stroke-width="2"/>
<circle cx="18" cy="23" r="8" fill="#F6F8FA"/>
<circle cx="18" cy="23" r="5" stroke="#0052C8" stroke-width="2"/>
<rect x="13" y="30" width="10" height="9" fill="#F6F8FA"/>
<path d="M15.5 27.5V36L18 33.5L20.5 36V27.5" stroke="#0052C8" stroke-width="2" stroke-linejoin="round"/>
</svg>
