<svg width="100" height="100" viewBox="0 0 100 100" fill="none" xmlns="http://www.w3.org/2000/svg">
<circle cx="50" cy="50" r="50" fill="#0052C8"/>
<path d="M45.672 36.0443L46.504 36.599L46.504 36.599L45.672 36.0443ZM42.3235 39.9509L43.0306 40.658L43.0474 40.6412L43.0634 40.6236L42.3235 39.9509ZM41.4863 84.0396H40.4863V84.7166L41.1149 84.9681L41.4863 84.0396ZM49.5637 85.152L49.6458 84.1554L49.6114 84.1525L49.5768 84.1521L49.5637 85.152ZM49.896 85.1551L49.9015 84.155L49.8905 84.1551L49.896 85.1551ZM50.2283 85.152L50.2152 84.1521L50.1806 84.1525L50.1462 84.1554L50.2283 85.152ZM58.3057 84.0396L58.6771 84.9681L59.3057 84.7166V84.0396H58.3057ZM57.4685 39.9509L56.7286 40.6236L56.7446 40.6412L56.7614 40.658L57.4685 39.9509ZM54.12 36.0443L53.288 36.599L53.288 36.599L54.12 36.0443ZM47.3462 15H49.6554V13H47.3462V15ZM47.23 15.1162C47.23 15.0357 47.2457 15.0141 47.2408 15.0235C47.2364 15.0322 47.23 15.0369 47.2329 15.0348C47.2395 15.03 47.258 15.0194 47.2896 15.0104C47.3226 15.0009 47.3464 15 47.3462 15V13C47.0002 13 46.5033 13.0956 46.0643 13.4117C45.5743 13.7645 45.23 14.3438 45.23 15.1162H47.23ZM47.23 34.3701V15.1162H45.23V34.3701H47.23ZM46.504 36.599C47.0763 35.7406 47.23 34.815 47.23 34.3701H45.23C45.23 34.4045 45.2187 34.5646 45.1552 34.7919C45.0939 35.0117 44.9934 35.2594 44.8399 35.4896L46.504 36.599ZM43.0634 40.6236C43.5321 40.108 44.2627 39.2931 44.9338 38.5211C45.5833 37.7739 46.2374 36.999 46.504 36.599L44.8399 35.4896C44.6601 35.7593 44.1049 36.4261 43.4244 37.209C42.7654 37.9671 42.045 38.7706 41.5835 39.2782L43.0634 40.6236ZM42.4863 41.9042C42.4863 41.6616 42.5642 41.4004 42.691 41.1518C42.8189 40.9011 42.9669 40.7217 43.0306 40.658L41.6163 39.2438C41.2381 39.6221 40.4863 40.6429 40.4863 41.9042H42.4863ZM42.4863 84.0396V41.9042H40.4863V84.0396H42.4863ZM49.5768 84.1521C45.2901 84.0959 42.5984 83.4074 41.8577 83.1111L41.1149 84.9681C42.1577 85.3851 45.1131 86.0938 49.5506 86.1519L49.5768 84.1521ZM49.4817 86.1486C49.5395 86.1534 49.5974 86.1557 49.6554 86.1557V84.1557C49.6516 84.1557 49.6484 84.1556 49.6458 84.1554L49.4817 86.1486ZM49.6554 86.1557C49.7379 86.1557 49.8199 86.1555 49.9015 86.1551L49.8905 84.1551C49.8126 84.1555 49.7342 84.1557 49.6554 84.1557V86.1557ZM50.1366 84.1557C50.0578 84.1557 49.9794 84.1555 49.9015 84.1551L49.8905 86.1551C49.9721 86.1555 50.0541 86.1557 50.1366 86.1557V84.1557ZM50.1462 84.1554C50.1436 84.1556 50.1404 84.1557 50.1366 84.1557V86.1557C50.1946 86.1557 50.2525 86.1534 50.3103 86.1486L50.1462 84.1554ZM50.2414 86.1519C54.6789 86.0938 57.6343 85.3851 58.6771 84.9681L57.9343 83.1111C57.1936 83.4074 54.5019 84.0959 50.2152 84.1521L50.2414 86.1519ZM59.3057 84.0396V41.9042H57.3057V84.0396H59.3057ZM59.3057 41.9042C59.3057 40.6429 58.5539 39.6221 58.1756 39.2438L56.7614 40.658C56.8251 40.7217 56.973 40.9011 57.101 41.1518C57.2278 41.4004 57.3057 41.6616 57.3057 41.9042H59.3057ZM58.2085 39.2782C57.747 38.7706 57.0266 37.9671 56.3676 37.209C55.6871 36.4261 55.1319 35.7593 54.9521 35.4896L53.288 36.599C53.5546 36.999 54.2087 37.7739 54.8582 38.5211C55.5293 39.2931 56.2599 40.108 56.7286 40.6236L58.2085 39.2782ZM54.9521 35.4896C54.7986 35.2594 54.6981 35.0117 54.6368 34.7919C54.5733 34.5646 54.5619 34.4045 54.5619 34.3701H52.5619C52.5619 34.815 52.7157 35.7406 53.288 36.599L54.9521 35.4896ZM54.5619 34.3701V15.1162H52.5619V34.3701H54.5619ZM54.5619 15.1162C54.5619 14.3438 54.2177 13.7645 53.7277 13.4117C53.2886 13.0956 52.7918 13 52.4458 13V15C52.4456 15 52.4694 15.0009 52.5024 15.0104C52.534 15.0194 52.5525 15.03 52.5591 15.0348C52.562 15.0369 52.5556 15.0322 52.5512 15.0235C52.5463 15.0141 52.5619 15.0357 52.5619 15.1162H54.5619ZM52.4458 13H50.1366V15H52.4458V13ZM50.1366 13H49.6554V15H50.1366V13Z" fill="#F6F8FA"/>
<path d="M41 50.7939H58.5079" stroke="#F6F8FA" stroke-width="2"/>
<path d="M45.8633 19.6688H53.6446" stroke="#F6F8FA" stroke-width="2"/>
<path d="M41 72.1925H58.5079" stroke="#F6F8FA" stroke-width="2"/>
<circle cx="58" cy="36" r="8" fill="#0052C8"/>
<circle cx="58" cy="36" r="5" stroke="#F6F8FA" stroke-width="2"/>
<rect x="53" y="43" width="10" height="9" fill="#0052C8"/>
<path d="M55.5 40.5V49L58 46.5L60.5 49V40.5" stroke="#F6F8FA" stroke-width="2" stroke-linejoin="round"/>
</svg>
