<svg width="227" height="72" viewBox="0 0 227 72" fill="none" xmlns="http://www.w3.org/2000/svg">
<path d="M92.7129 23.2659L96.7714 7.65515H103.35L107.409 23.2659H104.687L103.637 19.2522H96.4799L95.4305 23.2659H92.7129ZM97.1033 16.7543H103.014L101.296 10.153H98.8208L97.1033 16.7543Z" />
<path d="M107.584 23.2658L110.66 12.0051H115.988L119.064 23.2658H116.567L114.113 14.1667H112.53L110.077 23.2658H107.584Z" />
<path d="M120.363 23.2658V12.0051H122.794V16.3551H124.579L127.879 12.0051H130.669L126.767 17.2476L131.005 23.2703H128.108L124.763 18.5212H122.798V23.2703H120.363V23.2658Z" />
<path d="M137.065 23.5304C135.935 23.5304 134.912 23.2748 133.997 22.7591C133.083 22.2478 132.365 21.5393 131.845 20.6424C131.325 19.741 131.064 18.7454 131.064 17.6422C131.064 16.5435 131.325 15.5389 131.845 14.6331C132.365 13.7272 133.083 13.0186 133.997 12.5029C134.912 11.9917 135.935 11.7316 137.065 11.7316C138.208 11.7316 139.24 11.9872 140.155 12.5029C141.069 13.0141 141.787 13.7272 142.307 14.6331C142.827 15.5389 143.088 16.5435 143.088 17.6422C143.088 18.7409 142.827 19.741 142.307 20.6424C141.787 21.5437 141.069 22.2478 140.155 22.7591C139.24 23.2748 138.213 23.5304 137.065 23.5304ZM137.065 21.3688C137.733 21.3688 138.334 21.2119 138.872 20.9025C139.41 20.593 139.827 20.1535 140.132 19.5885C140.437 19.0234 140.59 18.3777 140.59 17.6467C140.59 16.9022 140.437 16.2475 140.132 15.6825C139.827 15.1174 139.406 14.6779 138.872 14.3685C138.338 14.059 137.733 13.9021 137.065 13.9021C136.41 13.9021 135.818 14.059 135.28 14.3685C134.746 14.6824 134.325 15.1174 134.02 15.6825C133.715 16.2475 133.562 16.9022 133.562 17.6467C133.562 18.3732 133.715 19.0234 134.02 19.5885C134.325 20.1535 134.746 20.593 135.28 20.9025C135.818 21.2119 136.41 21.3688 137.065 21.3688Z" />
<path d="M145.008 23.2658V12.0051H153.125V14.1667H147.438V23.2658H145.008Z" />
<path d="M159.856 23.5304C158.726 23.5304 157.703 23.2748 156.788 22.7591C155.874 22.2478 155.156 21.5393 154.636 20.6424C154.116 19.741 153.855 18.7454 153.855 17.6422C153.855 16.5435 154.116 15.5389 154.636 14.6331C155.156 13.7272 155.874 13.0186 156.788 12.5029C157.703 11.9917 158.726 11.7316 159.856 11.7316C160.999 11.7316 162.031 11.9872 162.946 12.5029C163.86 13.0141 164.578 13.7272 165.098 14.6331C165.618 15.5389 165.879 16.5435 165.879 17.6422C165.879 18.7409 165.618 19.741 165.098 20.6424C164.578 21.5437 163.86 22.2478 162.946 22.7591C162.031 23.2748 161.004 23.5304 159.856 23.5304ZM159.856 21.3688C160.524 21.3688 161.125 21.2119 161.663 20.9025C162.201 20.593 162.618 20.1535 162.923 19.5885C163.228 19.0234 163.381 18.3777 163.381 17.6467C163.381 16.9022 163.228 16.2475 162.923 15.6825C162.618 15.1174 162.197 14.6779 161.663 14.3685C161.129 14.059 160.524 13.9021 159.856 13.9021C159.201 13.9021 158.609 14.059 158.071 14.3685C157.537 14.6824 157.116 15.1174 156.811 15.6825C156.506 16.2475 156.353 16.9022 156.353 17.6467C156.353 18.3732 156.506 19.0234 156.811 19.5885C157.116 20.1535 157.537 20.593 158.071 20.9025C158.609 21.2119 159.201 21.3688 159.856 21.3688Z" />
<path d="M166.502 23.2658L169.578 12.0051H174.906L177.982 23.2658H175.484L173.031 14.1667H171.448L168.995 23.2658H166.502Z" />
<path d="M179.281 23.2658V12.0051H181.712V15.6869H184.569C185.43 15.6869 186.196 15.8574 186.865 16.1982C187.533 16.539 188.049 17.0009 188.416 17.5794C188.78 18.1579 188.963 18.7902 188.963 19.4764C188.963 20.176 188.78 20.8128 188.416 21.3958C188.053 21.9788 187.537 22.4317 186.865 22.768C186.196 23.1044 185.43 23.2703 184.569 23.2703H179.281V23.2658ZM184.452 21.1446C185.075 21.1446 185.569 20.9877 185.923 20.6782C186.282 20.3643 186.457 19.9652 186.457 19.4719C186.457 18.9831 186.277 18.5795 185.923 18.2655C185.569 17.9516 185.075 17.7992 184.452 17.7992H181.707V21.1446H184.452Z" />
<path d="M190.656 23.2658V12.0051H193.087V16.4224H198.616V12.0051H201.069V23.2658H198.616V18.584H193.087V23.2658H190.656Z" />
<path d="M208.315 23.5304C207.346 23.5304 206.458 23.2793 205.651 22.7815C204.844 22.2837 204.198 21.5841 203.723 20.6872C203.247 19.7858 203.01 18.7723 203.01 17.6422C203.01 16.4986 203.247 15.4762 203.723 14.5748C204.198 13.6734 204.839 12.9783 205.651 12.4805C206.463 11.9827 207.351 11.7316 208.315 11.7316C209.015 11.7316 209.629 11.8482 210.154 12.0769C210.683 12.3056 211.109 12.5791 211.436 12.8931C211.764 13.207 211.979 13.4491 212.082 13.6285H212.149V12.0006H214.602V23.2613H212.149V21.6334H212.082C211.979 21.8263 211.764 22.0774 211.436 22.3824C211.109 22.6873 210.683 22.9564 210.154 23.1851C209.624 23.4183 209.015 23.5304 208.315 23.5304ZM208.804 21.3688C209.427 21.3688 209.997 21.2164 210.508 20.9114C211.019 20.6065 211.423 20.1715 211.714 19.6064C212.006 19.0414 212.149 18.3866 212.149 17.6422C212.149 16.8843 212.006 16.2206 211.714 15.6555C211.423 15.0905 211.024 14.6555 210.508 14.3505C209.997 14.0456 209.427 13.8931 208.804 13.8931C208.194 13.8931 207.638 14.0456 207.131 14.3505C206.624 14.6555 206.23 15.0905 205.938 15.6555C205.647 16.2206 205.503 16.8798 205.503 17.6422C205.503 18.3866 205.647 19.0414 205.938 19.6064C206.23 20.1715 206.624 20.6065 207.131 20.9114C207.638 21.2164 208.194 21.3688 208.804 21.3688Z" />
<path d="M218.952 19.2073C218.356 18.9562 217.853 18.5436 217.445 17.9696C217.037 17.3956 216.831 16.696 216.831 15.8618C216.831 15.1353 217.01 14.4761 217.365 13.8886C217.723 13.3012 218.235 12.8393 218.903 12.5074C219.571 12.1711 220.36 12.0051 221.266 12.0051H226.616V23.2658H224.186V19.741H221.688C221.643 19.741 221.585 19.741 221.508 19.741C221.432 19.741 221.351 19.741 221.262 19.741L219.387 23.2658H216.643L218.952 19.2073ZM224.195 17.6467V14.1667H221.428C220.759 14.1667 220.244 14.3236 219.876 14.6331C219.513 14.947 219.329 15.3551 219.329 15.8618C219.329 16.4134 219.513 16.8484 219.876 17.1668C220.239 17.4852 220.755 17.6467 221.428 17.6467H224.195Z" />
<path d="M101.676 43.9935C100.071 43.9935 98.6356 43.6392 97.371 42.9217C96.1064 42.2086 95.1153 41.222 94.3933 39.9664C93.6713 38.7107 93.3125 37.3025 93.3125 35.7419C93.3125 34.1813 93.6713 32.7732 94.3933 31.5175C95.1153 30.2618 96.1064 29.2752 97.371 28.5622C98.6356 27.8491 100.071 27.4904 101.676 27.4904C103.134 27.4904 104.398 27.7639 105.479 28.3021C106.555 28.8447 107.421 29.5532 108.067 30.4322C108.712 31.3112 109.183 32.2619 109.484 33.2889H106.762C106.403 32.3651 105.797 31.5848 104.945 30.948C104.089 30.3067 103.004 29.9883 101.676 29.9883C100.604 29.9883 99.6492 30.2349 98.8016 30.7237C97.954 31.2125 97.2903 31.8897 96.8149 32.7552C96.3396 33.6163 96.1019 34.6118 96.1019 35.7419C96.1019 36.8855 96.3351 37.89 96.806 38.7511C97.2723 39.6121 97.9316 40.2848 98.7792 40.7691C99.6267 41.2534 100.591 41.4956 101.676 41.4956C103.031 41.4956 104.143 41.1413 105.022 40.4372C105.901 39.7332 106.515 38.8721 106.874 37.8631H109.596C109.269 38.9484 108.766 39.9574 108.089 40.8857C107.412 41.814 106.533 42.5674 105.448 43.1369C104.362 43.7065 103.102 43.9935 101.676 43.9935Z" />
<path d="M111.553 43.5494V32.2887H113.983V38.9348L113.916 40.0514H114.051L119.356 32.2932H122.011V43.5539H119.58V36.9078L119.647 35.7911H119.513L114.203 43.5539H111.553V43.5494Z" />
<path d="M129.705 43.814C128.606 43.814 127.624 43.5583 126.763 43.0426C125.902 42.5269 125.229 41.7825 124.754 40.8004C124.279 39.8182 124.041 38.6523 124.041 37.2979V37.2755C124.041 35.1184 124.328 33.3515 124.898 31.9703C125.467 30.5891 126.306 29.5711 127.404 28.9163C128.503 28.2616 129.866 27.9342 131.485 27.9342H134.45V30.2079H131.66C130.01 30.2079 128.768 30.589 127.938 31.3559C127.104 32.1228 126.615 33.2843 126.467 34.8449H126.534C126.862 34.383 127.342 33.9883 127.974 33.661C128.606 33.3336 129.351 33.1721 130.216 33.1721C131.18 33.1721 132.059 33.4009 132.849 33.8538C133.638 34.3067 134.257 34.9346 134.71 35.7373C135.163 36.54 135.391 37.4325 135.391 38.4146C135.391 39.4415 135.154 40.3609 134.678 41.1815C134.203 41.9977 133.535 42.6435 132.669 43.1099C131.804 43.5763 130.822 43.814 129.705 43.814ZM129.705 41.6524C130.315 41.6524 130.862 41.5134 131.346 41.2398C131.831 40.9663 132.207 40.5806 132.485 40.0918C132.759 39.603 132.898 39.0424 132.898 38.4191C132.898 37.8092 132.759 37.262 132.485 36.7822C132.212 36.3024 131.831 35.9212 131.346 35.6431C130.862 35.3696 130.315 35.2306 129.705 35.2306C129.095 35.2306 128.552 35.3696 128.077 35.6431C127.602 35.9167 127.225 36.2979 126.951 36.7822C126.678 37.2665 126.539 37.8136 126.539 38.4191C126.539 39.0424 126.678 39.603 126.951 40.0918C127.225 40.5806 127.602 40.9663 128.077 41.2398C128.552 41.5179 129.095 41.6524 129.705 41.6524Z" />
<path d="M137.199 43.5494V32.2887H139.63V38.9348L139.563 40.0514H139.697L145.002 32.2932H147.657V43.5539H145.227V36.9078L145.294 35.7911H145.159L139.854 43.5539H137.199V43.5494Z" />
<path d="M150.244 47.7873V32.2887H152.675V33.9166H152.742C152.859 33.7238 153.083 33.4726 153.41 33.1677C153.738 32.8627 154.159 32.5937 154.679 32.365C155.2 32.1362 155.818 32.0197 156.531 32.0197C157.496 32.0197 158.384 32.2708 159.186 32.7686C159.989 33.2664 160.63 33.9659 161.106 34.8629C161.581 35.7642 161.819 36.7822 161.819 37.9303C161.819 39.0604 161.581 40.0739 161.106 40.9753C160.63 41.8767 159.989 42.5718 159.186 43.0696C158.384 43.5674 157.5 43.8185 156.531 43.8185C155.818 43.8185 155.2 43.7019 154.679 43.4732C154.159 43.2445 153.733 42.9754 153.41 42.6704C153.083 42.3655 152.859 42.1144 152.742 41.9215H152.675V47.7873H150.244ZM156.02 41.6525C156.644 41.6525 157.204 41.5 157.702 41.195C158.2 40.8901 158.594 40.4551 158.886 39.89C159.177 39.325 159.321 38.6702 159.321 37.9258C159.321 37.1679 159.177 36.5042 158.886 35.9391C158.594 35.3741 158.2 34.9391 157.702 34.6341C157.204 34.3292 156.644 34.1767 156.02 34.1767C155.397 34.1767 154.827 34.3292 154.316 34.6341C153.805 34.9391 153.401 35.3741 153.11 35.9391C152.818 36.5042 152.675 37.1679 152.675 37.9258C152.675 38.6702 152.818 39.325 153.11 39.89C153.401 40.4551 153.8 40.8901 154.316 41.195C154.832 41.5 155.397 41.6525 156.02 41.6525Z" />
<path d="M168.955 43.814C167.869 43.814 166.883 43.5539 165.99 43.0337C165.098 42.5135 164.394 41.8049 163.883 40.917C163.371 40.0246 163.111 39.029 163.111 37.9303C163.111 36.8316 163.367 35.8315 163.883 34.9301C164.394 34.0287 165.098 33.3202 165.99 32.8C166.883 32.2798 167.869 32.0197 168.955 32.0197C169.995 32.0197 170.901 32.217 171.677 32.6116C172.448 33.0063 173.067 33.513 173.529 34.1408C173.991 34.7642 174.323 35.4503 174.533 36.1903H172.036C171.811 35.6252 171.439 35.1499 170.919 34.7642C170.399 34.3785 169.744 34.1857 168.955 34.1857C168.345 34.1857 167.784 34.3426 167.273 34.6521C166.762 34.9615 166.354 35.401 166.058 35.966C165.762 36.5311 165.614 37.1858 165.614 37.9303C165.614 38.6568 165.762 39.307 166.058 39.8721C166.354 40.4371 166.762 40.8766 167.273 41.1861C167.784 41.5 168.345 41.6525 168.955 41.6525C169.757 41.6525 170.426 41.4462 170.959 41.0381C171.493 40.63 171.865 40.1277 172.076 39.5313H174.574C174.394 40.2892 174.072 40.9932 173.605 41.639C173.139 42.2848 172.511 42.8095 171.731 43.2131C170.95 43.6167 170.026 43.814 168.955 43.814Z" />
<path d="M176.381 43.5494V32.2887H178.811V36.6387H180.596L183.897 32.2887H186.686L182.785 37.5311L187.023 43.5539H184.126L180.78 38.8047H178.816V43.5539H176.381V43.5494Z" />
<path d="M192.436 43.814C191.467 43.814 190.579 43.5628 189.772 43.0651C188.965 42.5673 188.319 41.8677 187.844 40.9708C187.369 40.0694 187.131 39.0559 187.131 37.9258C187.131 36.7822 187.369 35.7597 187.844 34.8583C188.319 33.9569 188.961 33.2618 189.772 32.7641C190.584 32.2663 191.472 32.0151 192.436 32.0151C193.136 32.0151 193.75 32.1317 194.275 32.3605C194.804 32.5892 195.23 32.8627 195.557 33.1766C195.885 33.4906 196.1 33.7327 196.203 33.9121H196.27V32.2842H198.723V43.5449H196.27V41.917H196.203C196.1 42.1099 195.885 42.361 195.557 42.6659C195.23 42.9709 194.804 43.24 194.275 43.4687C193.746 43.6974 193.136 43.814 192.436 43.814ZM192.929 41.6524C193.553 41.6524 194.122 41.4999 194.634 41.195C195.145 40.8901 195.548 40.455 195.84 39.89C196.131 39.3249 196.275 38.6702 196.275 37.9258C196.275 37.1679 196.131 36.5042 195.84 35.9391C195.548 35.3741 195.149 34.9391 194.634 34.6341C194.122 34.3292 193.553 34.1767 192.929 34.1767C192.319 34.1767 191.763 34.3292 191.257 34.6341C190.75 34.9391 190.355 35.3741 190.064 35.9391C189.772 36.5042 189.629 37.1679 189.629 37.9258C189.629 38.6702 189.772 39.3249 190.064 39.89C190.355 40.455 190.75 40.8901 191.257 41.195C191.759 41.4999 192.319 41.6524 192.929 41.6524Z" />
<path d="M203.073 39.4909C202.477 39.2397 201.974 38.8272 201.566 38.2531C201.158 37.6791 200.952 36.9795 200.952 36.1454C200.952 35.4189 201.131 34.7597 201.486 34.1722C201.844 33.5847 202.356 33.1228 203.024 32.791C203.692 32.4546 204.481 32.2887 205.387 32.2887H210.737V43.5494H208.307V40.0245H205.809C205.764 40.0245 205.706 40.0245 205.629 40.0245C205.553 40.0245 205.472 40.0245 205.383 40.0245L203.508 43.5494H200.764L203.073 39.4909ZM208.316 37.9302V34.4503H205.549C204.88 34.4503 204.365 34.6072 203.997 34.9166C203.634 35.2306 203.45 35.6387 203.45 36.1454C203.45 36.697 203.634 37.132 203.997 37.4504C204.36 37.7688 204.876 37.9302 205.549 37.9302H208.316Z" />
<path d="M94.0488 63.833V48.2223H104.35V50.7202H96.6992V63.833H94.0488Z" />
<path d="M105.912 68.071V52.5724H108.343V54.2003H108.41C108.531 54.0075 108.751 53.7563 109.078 53.4514C109.406 53.1464 109.827 52.8774 110.347 52.6486C110.868 52.4199 111.486 52.3033 112.199 52.3033C113.164 52.3033 114.052 52.5545 114.854 53.0523C115.657 53.55 116.298 54.2496 116.774 55.1465C117.249 56.0479 117.487 57.0704 117.487 58.214C117.487 59.3441 117.249 60.3576 116.774 61.259C116.298 62.1604 115.657 62.8555 114.854 63.3533C114.052 63.851 113.168 64.1022 112.199 64.1022C111.486 64.1022 110.868 63.9856 110.347 63.7569C109.827 63.5282 109.401 63.2591 109.078 62.9541C108.751 62.6492 108.527 62.398 108.41 62.2052H108.343V68.071H105.912ZM111.688 61.9361C112.312 61.9361 112.872 61.7837 113.37 61.4787C113.868 61.1738 114.262 60.7388 114.554 60.1737C114.845 59.6087 114.989 58.9539 114.989 58.2095C114.989 57.4516 114.845 56.7879 114.554 56.2228C114.262 55.6578 113.868 55.2228 113.37 54.9178C112.872 54.6129 112.312 54.4604 111.688 54.4604C111.065 54.4604 110.495 54.6129 109.984 54.9178C109.473 55.2228 109.069 55.6578 108.778 56.2228C108.486 56.7879 108.343 57.4516 108.343 58.2095C108.343 58.9539 108.486 59.6087 108.778 60.1737C109.069 60.7388 109.468 61.1738 109.984 61.4787C110.5 61.7837 111.065 61.9361 111.688 61.9361Z" />
<path d="M122.279 68.0709L123.57 63.833H121.05L118.041 52.5723H120.606L122.947 61.6714H124.221L126.92 52.5723H129.463L124.849 68.0709H122.279Z" />
<path d="M130.645 63.833V52.5723H140.946V63.833H138.492V54.7338H133.075V63.833H130.645Z" />
<path d="M143.51 63.833V52.5723H153.811V63.833H151.358V54.7338H145.94V63.833H143.51Z" />
<path d="M161.063 64.1022C160.094 64.1022 159.206 63.851 158.399 63.3533C157.592 62.8555 156.946 62.1559 156.471 61.259C155.995 60.3576 155.758 59.3441 155.758 58.214C155.758 57.0704 155.995 56.0479 156.471 55.1465C156.946 54.2496 157.588 53.55 158.399 53.0523C159.211 52.5545 160.099 52.3033 161.063 52.3033C161.763 52.3033 162.377 52.4199 162.902 52.6486C163.431 52.8774 163.857 53.1509 164.184 53.4648C164.512 53.7788 164.727 54.0209 164.83 54.2003H164.897V52.5724H167.35V63.8331H164.897V62.2052H164.83C164.727 62.398 164.512 62.6492 164.184 62.9541C163.857 63.2591 163.431 63.5282 162.902 63.7569C162.373 63.9856 161.763 64.1022 161.063 64.1022ZM161.552 61.9361C162.175 61.9361 162.745 61.7837 163.256 61.4787C163.767 61.1738 164.171 60.7388 164.462 60.1737C164.754 59.6087 164.897 58.9539 164.897 58.2095C164.897 57.4516 164.754 56.7879 164.462 56.2228C164.171 55.6578 163.772 55.2228 163.256 54.9178C162.745 54.6129 162.175 54.4604 161.552 54.4604C160.942 54.4604 160.386 54.6129 159.879 54.9178C159.372 55.2228 158.978 55.6578 158.686 56.2228C158.395 56.7879 158.251 57.4516 158.251 58.2095C158.251 58.9539 158.395 59.6087 158.686 60.1737C158.978 60.7388 159.372 61.1738 159.879 61.4787C160.386 61.7837 160.942 61.9361 161.552 61.9361Z" />
<path d="M32.8277 30.8132C30.5899 31.2213 29.1549 32.2617 27.5853 33.4412C25.6614 34.8852 24.1456 35.9525 20.3203 36.3965C22.3384 38.4639 25.8767 38.3697 26.7377 37.7553C26.5 38.6074 27.2131 39.9796 28.4104 40.3294C28.249 38.558 28.3118 36.6387 28.8948 35.1094C29.4867 33.5623 30.5765 32.051 32.8277 30.8132Z" />
<path d="M50.5391 35.7374C50.5391 35.7374 53.7276 35.4594 56.952 36.1141C60.1764 36.7644 61.9298 37.9797 61.9298 37.9797C61.1405 35.9975 58.3108 33.4862 57.2121 33.0736C58.4677 30.4143 58.1045 26.4813 57.0506 23.1C57.2479 26.0732 56.1582 30.7999 50.5391 35.7374Z" />
<path d="M17.6423 48.9622C12.1039 44.3835 15.6915 38.2038 19.4002 36.4817C19.4002 36.4817 17.0772 35.9346 15.2251 37.0243C13.3775 38.1141 12.7855 40.1276 12.7855 40.1276C11.772 38.6477 11.6195 36.9436 11.6061 34.9659C11.6061 34.9659 10.4715 37.549 10.2876 39.5447C10.1172 41.3699 10.5522 43.3789 11.7765 44.7692C11.7765 44.7692 11.7406 44.7602 11.6823 44.7422C10.4536 44.3969 9.72258 43.7691 8.875 42.8139C9.83021 45.7782 12.781 48.5541 17.6423 48.9622Z" />
<path d="M16.6201 33.1408C14.5213 34.1274 11.7812 34.4099 11.7812 34.4099C23.3873 36.6432 31.8227 31.7416 33.1053 22.8219C33.4057 20.7455 33.3295 18.6378 32.9573 16.5614C33.2667 16.5884 34.8184 16.8799 36.3924 16.6511C37.962 16.4224 39.0204 15.6825 39.0204 15.6825C36.5673 15.1399 33.4147 13.8169 32.3922 12.2294C32.3922 12.2294 34.4103 12.1756 36.0965 10.9289C37.7871 9.68664 38.6571 7.78968 38.6571 7.78968C38.6571 7.78968 34.8408 9.4669 32.2801 8.27849C29.7194 7.0856 29.3382 5.95101 29.3382 5.95101C29.3382 5.95101 30.8899 6.22458 32.5133 5.43978C34.1367 4.65499 34.5717 2.97776 34.5717 2.97776C29.0154 4.73122 25.9659 2.69076 22.7235 0.11663C22.6787 0.0762693 22.6294 0.040393 22.58 0.0045166C22.58 0.0045166 23.6698 2.70869 22.9074 5.63261C22.145 8.55654 18.9834 11.3684 18.9834 11.3684C18.9834 11.3684 20.9746 11.18 22.5262 10.2831C24.0779 9.39066 25.3335 7.95561 25.3335 7.95561C25.0376 10.7854 23.1361 12.3953 20.5082 13.9649C20.5082 13.9649 23.4231 13.9111 25.2483 12.8303C27.0735 11.7495 27.7597 11.0186 27.7597 11.0186C27.7597 11.0186 27.6521 13.1846 26.6161 14.669C25.5802 16.1578 23.2348 17.1579 23.2348 17.1579C24.4725 17.4225 26.4457 17.2386 28.3875 16.3193C28.3875 16.3193 28.114 17.9965 26.3695 20.2433C24.625 22.4855 22.4455 23.7591 22.4455 23.7591C24.7416 24.2435 26.7776 23.5484 28.0601 22.6784C28.0601 22.6784 26.1094 25.4947 22.6742 27.1719C20.2795 28.3423 16.3017 28.8043 14.037 28.6338C13.8038 28.6159 13.6827 28.5352 13.6827 28.5352C14.8801 30.172 17.4632 31.1676 19.4453 30.7954C19.4409 30.7864 18.7188 32.1542 16.6201 33.1408Z" />
<path d="M42.2266 10.0364C42.2266 10.0364 43.5719 13.3819 46.2716 13.8035C48.9668 14.225 50.1059 13.4671 50.1059 13.4671C49.8548 15.3686 48.6395 16.6646 47.2403 17.8889C47.2403 17.8889 50.8234 17.3418 52.0432 15.5345C53.2675 13.7227 53.0971 11.3683 52.3392 9.00948C51.5813 6.65509 49.4736 0.0045166 49.4736 0.0045166C49.4736 0.0045166 49.1373 3.45312 47.3255 6.06313C45.5137 8.66865 42.2266 10.0364 42.2266 10.0364Z" />
<path d="M49.2136 27.1001C44.9129 29.7908 39.666 30.5083 39.666 30.5083C42.7155 31.755 43.9129 33.948 44.5497 37.0558C44.5497 37.0558 45.2538 35.975 45.2807 34.4592C45.3076 32.9434 44.7649 32.0779 44.7649 32.0779C46.5274 32.8851 47.2539 33.93 48.0342 35.7552C48.0342 35.7552 48.5634 34.809 48.5634 33.0511C48.5634 31.2931 48.1283 30.2348 48.1283 30.2348C49.3302 30.3379 50.1643 31.755 50.4513 33.0735C50.5455 33.504 57.0795 28.423 55.4337 18.0278C55.4337 18.0323 54.317 23.9071 49.2136 27.1001Z" />
<path d="M36.4736 1.51578C36.4736 1.51578 36.662 3.56969 35.6305 4.89712C34.5991 6.22454 33.2716 6.65506 33.2716 6.65506C33.2716 6.65506 34.6843 7.30532 36.635 6.70888C38.5903 6.11243 41.1375 3.51588 41.1375 3.51588C41.4425 4.2065 41.6129 6.27836 41.2183 7.73135C41.2183 7.73135 44.2005 6.73579 45.936 4.19305C47.6715 1.65032 48.0796 0 48.0796 0H25.4551C25.4551 0 27.953 2.16603 31.0473 2.10773C34.1372 2.0584 36.4736 1.51578 36.4736 1.51578Z" />
<path d="M44.5039 60.8149V71.8738C45.3111 71.4299 45.8268 70.9814 46.2708 70.2146C47.9839 71.7752 50.7509 72.1519 55.1637 71.9501C47.9032 71.1922 45.7013 66.8063 44.5039 60.8149Z" />
<path d="M44.4788 18.8619C44.4788 18.8619 45.0125 18.5166 45.1066 18.4448C46.1202 17.7139 47.0126 16.9963 47.7077 15.9245C47.7077 15.9245 44.2232 15.633 42.5549 13.9244C41.2455 12.588 40.806 10.4937 40.797 8.69543C39.9853 10.6462 38.2722 12.3548 36.16 12.7988C35.9761 12.8392 35.8281 12.8616 35.8281 12.8616C36.9537 13.7226 38.3978 14.1935 39.77 14.3639C39.1377 18.8619 39.3126 24.2613 40.5145 28.5351C40.5145 28.5351 46.0798 28.0866 50.3356 24.4945C54.5915 20.9024 54.6318 15.7631 54.6318 15.7631C51.1832 18.6422 48.9813 19.9427 44.4788 18.8619Z" />
<path d="M45.1731 54.9537C46.2942 54.3169 47.8503 53.8102 49.9491 53.8461C46.3435 51.9581 41.85 52.6846 38.9844 54.4739C38.9351 53.6532 38.6974 52.9312 38.2131 52.4783C37.5135 54.1959 36.2309 55.752 33.2038 56.326C33.5446 55.5457 33.3384 54.5322 33.0244 53.8774C31.1499 56.4336 29.6252 56.8686 26.6743 57.057C27.2439 56.5861 27.5937 55.7385 27.6071 54.8192C24.4276 56.7207 21.3018 57.2902 17.7949 56.2543C22.6831 59.5056 29.513 59.4876 32.558 58.9674C38.509 58.1467 42.0473 55.8641 47.0521 57.2678C46.8144 56.4381 45.9444 55.317 45.1731 54.9537Z" />
<path d="M21.7993 54.81C21.7993 54.81 20.7454 54.5364 20.2521 54.2449C19.8126 53.9804 19.548 53.7158 19.2924 53.2718C19.2924 53.2718 20.0637 53.6485 21.3329 53.9131C24.9429 54.671 27.6202 54.1508 30.7011 52.9758C31.1271 52.8144 31.3827 52.7023 31.3827 52.7023C30.4365 52.7023 29.1136 52.1507 28.3736 51.2717C28.3736 51.2717 28.5664 51.339 28.9162 51.4197C31.163 51.9534 33.3559 51.7246 35.5444 51.0744C36.9122 50.6663 37.993 50.2133 37.993 50.2133C36.7821 50.0564 35.9166 49.6842 34.9076 48.5092C34.9076 48.5092 36.2305 48.7469 37.6297 48.7334C40.2128 48.7065 42.4237 48.4016 44.7018 47.1369C44.9799 46.9845 45.3566 46.7244 45.5763 46.5405C45.5763 46.5405 44.657 46.2445 44.0875 45.5404C43.5179 44.8409 43.5179 44.1637 43.5179 44.1637C43.5179 44.1637 44.8184 45.0292 46.6571 45.2445C48.4958 45.4597 50.7739 45.1368 50.7739 45.1368C50.7739 45.1368 50.312 44.6794 49.9622 43.6794C49.6079 42.6793 49.6931 41.6837 49.6931 41.6837C52.9848 43.8543 56.2406 44.8767 60.2004 44.8184C60.2004 44.8184 59.4425 43.9798 59.0344 43.0336C58.6308 42.0873 58.4649 41.2487 58.4649 41.2487L63.0167 41.3564C63.0167 41.3564 60.7431 38.3338 53.5902 37.4683C41.2981 35.9839 32.5487 49.5765 19.9651 50.5004C15.4761 50.8322 10.7718 49.4734 8.30078 45.6212C9.8031 52.4287 14.7496 55.9267 21.7993 54.81Z" />
<path d="M63.2275 49.8009C63.5279 49.1596 63.8149 48.2224 63.8732 46.9174C64.0033 43.962 62.0121 42.6481 62.0121 42.6481C62.0121 42.6481 62.3261 44.4957 61.465 45.8725C60.3304 47.6842 57.8056 47.1371 56.097 46.9577C52.1461 46.5496 47.2042 47.4062 42.8945 50.8772C45.5225 49.9175 47.9666 50.0655 50.164 51.5275C50.0788 50.7113 49.6348 49.6529 49.0204 49.0385C51.3793 49.1148 53.2269 50.4601 54.5454 53.4289C54.9131 52.4199 55.2405 51.0431 54.505 49.0699C57.0612 49.7516 58.7115 51.9849 59.8013 55.0209C59.7744 54.6801 60.3484 52.8953 59.5412 50.5678C61.4695 51.8638 62.9001 54.7384 62.9315 58.3888C62.9315 58.3888 63.7432 57.6489 64.0167 56.0389C66.3487 61.7029 64.8195 69.7841 56.6262 71.9366C61.3305 71.5106 62.7476 71.8155 66.0976 67.7705C66.1379 70.0262 65.7612 70.8783 65.1065 71.9366C67.3712 71.1563 68.4071 69.932 69.0439 68.34C69.3623 69.7527 70.757 71.5285 72.9051 71.9321C69.9274 63.4608 68.5237 54.3168 63.2275 49.8009Z" />
<path d="M5.34109 54.9087C4.79398 61.205 4.66841 63.4248 1.2467 68.0305C3.08088 67.9363 4.76259 66.869 5.5429 64.7074C5.08099 68.9229 3.2513 70.0709 0 71.9275C3.40377 71.9544 5.7447 71.8423 7.30084 69.4879C8.52512 69.6135 10.0454 70.2727 11.014 71.932C10.736 68.4206 9.38615 65.1828 7.48022 62.3979C6.48465 60.9359 5.6595 59.4605 5.34109 54.9087Z" />
<path d="M14.2832 56.3932C10.9692 54.6038 8.82555 52.0476 7.31875 48.6528C7.31875 48.6528 6.85235 49.7605 6.57431 53.7652C6.30075 57.7699 8.50267 62.1513 8.50267 62.1513C8.90627 60.7297 9.38612 59.8014 10.2382 58.7969C10.2382 58.7969 11.3683 60.0167 11.6732 62.2051C11.9782 64.3981 11.3683 66.4789 11.3683 66.4789C13.0948 65.9542 14.0231 65.2008 14.8976 63.8285C14.8976 63.8285 14.9783 65.7434 14.3057 67.8243C13.6285 69.9051 12.032 71.9411 12.032 71.9411C14.8573 71.3895 17.5839 69.3849 18.3956 66.6583C18.3956 66.6583 18.9472 67.6942 18.992 69.1876C19.0324 70.6764 18.3731 71.9949 18.3731 71.9949C20.4046 71.394 21.5392 70.5419 22.4541 68.8019C22.4541 68.8019 23.9116 68.9633 25.5708 69.8019C27.2256 70.6406 28.4634 71.8828 28.4634 71.8828C29.2033 60.2857 22.611 60.8956 14.2832 56.3932Z" />
<path d="M55.3398 63.0796L57.0663 64.8958L56.9721 68.7077L58.0843 68.7346L58.1516 66.0349L60.1472 68.1337L60.9499 67.3668L58.9588 65.268L61.6585 65.3353L61.6854 64.2231L57.8735 64.129L56.1604 62.3262L58.5776 61.7432L61.8289 63.7343L62.4119 62.7836L60.1068 61.3754L62.9186 60.6983L62.6585 59.6175L59.8467 60.2947L61.2549 57.9896L60.3042 57.4111L58.3175 60.6624L55.8779 61.2499L56.591 58.8462L59.9364 57.0254L59.4072 56.0478L57.0349 57.3349L57.8556 54.5634L56.7883 54.2495L55.9676 57.021L54.676 54.6531L53.6984 55.1823L55.5236 58.5322L54.8196 60.9135L53.093 59.0973L53.1872 55.2854L52.075 55.2585L52.0077 57.9582L50.0435 55.8909L49.2363 56.6577L51.2005 58.7251L48.5008 58.6578L48.4739 59.77L52.2858 59.8642L54.0258 61.6983L51.5683 62.2903L48.317 60.2992L47.7385 61.2499L50.039 62.658L47.2676 63.3262L47.5277 64.407L50.2991 63.7388L48.891 66.0439L49.8417 66.6224L51.8284 63.3711L54.268 62.7836L53.5594 65.1873L50.2094 67.008L50.7431 67.9857L53.1109 66.6986L52.3037 69.4297L53.371 69.7436L54.1783 67.0125L55.4698 69.3849L56.4474 68.8512L54.6267 65.5012L55.3398 63.0796Z" />
<path d="M16.0182 24.212L17.0317 26.1673L17.8792 25.7278L16.4262 22.925L17.0496 20.9562L18.4308 22.4675L18.2873 25.6202L19.2425 25.665L19.3412 23.4631L20.9332 25.2076L21.6373 24.5618L20.0453 22.8218L22.2427 22.9205L22.2875 21.9653L19.1349 21.8262L17.7671 20.3284L19.7448 19.8889L22.4041 21.5886L22.9199 20.7858L21.0633 19.6019L23.3728 19.0907L23.1665 18.1624L20.8615 18.6691L22.0454 16.8125L21.2426 16.3013L19.543 18.9606L17.5429 19.4001L18.1618 17.4493L20.9646 15.9963L20.5251 15.1488L18.5699 16.1623L19.2829 13.911L18.3725 13.624L14.4082 26.1404L15.3186 26.4274L16.0182 24.212Z" />
<path d="M26.8801 43.7109L25.1311 43.4956L26.4182 42.4866L25.9293 41.8588L24.0145 43.3611L22.4987 43.1772L23.4135 41.9575L25.8262 41.6166L25.7141 40.8274L24.0907 41.0605L25.149 39.6479L24.5167 39.1726L23.4539 40.5807L23.2252 38.9573L22.4359 39.0694L22.7812 41.4776L21.8708 42.6884L21.2744 41.2848L22.1803 39.0246L21.4448 38.7286L20.8304 40.2488L20.1533 38.6523L19.4178 38.9663L20.0994 40.5628L18.5792 39.9484L18.2832 40.6883L20.5389 41.5942L21.1443 43.0113L19.6151 42.8275L18.1128 40.9125L17.4894 41.4014L18.4985 42.6929L16.7764 42.4821L16.6777 43.2714L18.4043 43.4822L17.1127 44.4912L17.6015 45.119L19.5209 43.6167L21.0367 43.8006L20.1174 45.0204L17.7092 45.3612L17.8168 46.1505L19.4402 45.9218L18.3998 47.3075L19.0366 47.7874L20.077 46.3971L20.3102 48.0206L21.095 47.9084L20.7542 45.5002L21.678 44.267L22.2789 45.6707L21.3686 47.9309L22.104 48.2269L22.7184 46.7066L23.409 48.33L24.14 48.0161L23.4494 46.3927L24.9697 47.0071L25.2656 46.2716L23.0099 45.3612L22.418 43.9665L23.9158 44.1504L25.4181 46.0698L26.0459 45.5765L25.0324 44.2849L26.7859 44.5002L26.8801 43.7109Z" />
</svg>
