<svg width="608" height="133" viewBox="0 0 608 133" fill="none" xmlns="http://www.w3.org/2000/svg">
<path d="M39.1456 54.9999H34.2696L22.0796 39.5439V54.9999H17.8476V39.5439L5.65764 54.9999H0.827637L13.7076 38.5319L1.28764 22.7999H6.11764L17.8476 37.5659V22.7999H22.0796V37.5659L33.8096 22.7999H38.6856L26.2196 38.5319L39.1456 54.9999Z" fill="url(#paint0_linear_310_1231)"/>
<path d="M71.9052 54.9999V30.9879L55.3452 54.9999H51.8952V22.7999H56.1732V46.8579L72.7332 22.7999H76.1832V54.9999H71.9052Z" fill="url(#paint1_linear_310_1231)"/>
<path d="M109.981 38.3019C111.453 39.0073 112.618 40.0193 113.477 41.3379C114.366 42.6566 114.811 44.1746 114.811 45.8919C114.811 48.4679 113.906 50.6299 112.097 52.3779C110.288 54.1259 108.08 54.9999 105.473 54.9999H91.581V22.7999H104.461C106.976 22.7999 109.107 23.6433 110.855 25.3299C112.603 27.0166 113.477 29.1019 113.477 31.5859C113.477 34.4379 112.312 36.6766 109.981 38.3019ZM104.461 26.8019H95.859V36.6459H104.461C105.81 36.6459 106.945 36.1706 107.865 35.2199C108.785 34.2693 109.245 33.1039 109.245 31.7239C109.245 30.3746 108.77 29.2246 107.819 28.2739C106.899 27.2926 105.78 26.8019 104.461 26.8019ZM105.473 50.9979C106.914 50.9979 108.126 50.4919 109.107 49.4799C110.088 48.4679 110.579 47.2259 110.579 45.7539C110.579 44.3126 110.073 43.0859 109.061 42.0739C108.08 41.0619 106.884 40.5559 105.473 40.5559H95.859V50.9979H105.473Z" fill="url(#paint2_linear_310_1231)"/>
<path d="M149.598 54.9999L146.976 47.7779H132.486L129.864 54.9999H125.31L137.316 22.7999H142.146L154.152 54.9999H149.598ZM133.958 43.7759H145.504L139.708 27.9059L133.958 43.7759Z" fill="url(#paint3_linear_310_1231)"/>
<path d="M188.261 22.7999V54.9999H184.029V42.6719H177.635L169.309 54.9999H164.479L173.035 42.3959C170.827 41.8746 169.002 40.7093 167.561 38.8999C166.12 37.0906 165.399 35.0513 165.399 32.7819C165.399 30.0219 166.365 27.6759 168.297 25.7439C170.26 23.7813 172.621 22.7999 175.381 22.7999H188.261ZM175.381 38.8079H184.029V26.8019H175.381C173.817 26.8019 172.468 27.3846 171.333 28.5499C170.198 29.7153 169.631 31.1259 169.631 32.7819C169.631 34.4379 170.198 35.8639 171.333 37.0599C172.468 38.2253 173.817 38.8079 175.381 38.8079Z" fill="url(#paint4_linear_310_1231)"/>
<path d="M135.146 124H130.27L118.08 108.544V124H113.848V108.544L101.658 124H96.8276L109.708 107.532L97.2876 91.7999H102.118L113.848 106.566V91.7999H118.08V106.566L129.81 91.7999H134.686L122.22 107.532L135.146 124Z" fill="url(#paint5_linear_310_1231)"/>
<path d="M167.905 124V99.9879L151.345 124H147.895V91.7999H152.173V115.858L168.733 91.7999H172.183V124H167.905Z" fill="url(#paint6_linear_310_1231)"/>
<path d="M205.981 107.302C207.453 108.007 208.618 109.019 209.477 110.338C210.366 111.657 210.811 113.175 210.811 114.892C210.811 117.468 209.906 119.63 208.097 121.378C206.288 123.126 204.08 124 201.473 124H187.581V91.7999H200.461C202.976 91.7999 205.107 92.6433 206.855 94.3299C208.603 96.0166 209.477 98.1019 209.477 100.586C209.477 103.438 208.312 105.677 205.981 107.302ZM200.461 95.8019H191.859V105.646H200.461C201.81 105.646 202.945 105.171 203.865 104.22C204.785 103.269 205.245 102.104 205.245 100.724C205.245 99.3746 204.77 98.2246 203.819 97.2739C202.899 96.2926 201.78 95.8019 200.461 95.8019ZM201.473 119.998C202.914 119.998 204.126 119.492 205.107 118.48C206.088 117.468 206.579 116.226 206.579 114.754C206.579 113.313 206.073 112.086 205.061 111.074C204.08 110.062 202.884 109.556 201.473 109.556H191.859V119.998H201.473Z" fill="url(#paint7_linear_310_1231)"/>
<path d="M245.598 124L242.976 116.778H228.486L225.864 124H221.31L233.316 91.7999H238.146L250.152 124H245.598ZM229.958 112.776H241.504L235.708 96.9059L229.958 112.776Z" fill="url(#paint8_linear_310_1231)"/>
<path d="M284.261 91.7999V124H280.029V111.672H273.635L265.309 124H260.479L269.035 111.396C266.827 110.875 265.002 109.709 263.561 107.9C262.12 106.091 261.399 104.051 261.399 101.782C261.399 99.0219 262.365 96.6759 264.297 94.7439C266.26 92.7813 268.621 91.7999 271.381 91.7999H284.261ZM271.381 107.808H280.029V95.8019H271.381C269.817 95.8019 268.468 96.3846 267.333 97.5499C266.198 98.7153 265.631 100.126 265.631 101.782C265.631 103.438 266.198 104.864 267.333 106.06C268.468 107.225 269.817 107.808 271.381 107.808Z" fill="url(#paint9_linear_310_1231)"/>
<path d="M302.959 124V120.032C306.074 120.459 308.399 119.499 309.935 117.152C311.514 114.763 312.303 110.411 312.303 104.096V79.2H341.359V124H336.879V83.424H316.783V104.224C316.783 108.277 316.463 111.669 315.823 114.4C315.183 117.131 314.223 119.221 312.943 120.672C311.706 122.08 310.277 123.04 308.655 123.552C307.077 124.021 305.178 124.171 302.959 124Z" fill="white"/>
<path d="M361.859 119.776H383.619V124H357.379V79.2H383.299V83.424H361.859V99.296H381.699V103.52H361.859V119.776Z" fill="white"/>
<path d="M422.037 79.2V83.424H401.557V124H397.077V79.2H422.037Z" fill="white"/>
<path d="M438.692 119.776H460.452V124H434.212V79.2H460.132V83.424H438.692V99.296H458.532V103.52H438.692V119.776Z" fill="white"/>
<path d="M502.709 79.2H507.189V124H502.709V103.072H478.389V124H473.909V79.2H478.389V98.848H502.709V79.2Z" fill="white"/>
<path d="M555.169 119.776H559.969V132.576H555.489V124H523.489V132.576H519.009V119.776H522.657C525.601 116.32 527.073 110.987 527.073 103.776V79.2H555.169V119.776ZM527.969 119.776H550.689V83.424H531.553V103.904C531.553 110.987 530.359 116.277 527.969 119.776Z" fill="white"/>
<path d="M602.941 124L598.781 112.992H577.533L573.373 124H568.637L585.853 79.2H590.461L607.677 124H602.941ZM579.133 108.768H597.181L588.157 84.768L579.133 108.768Z" fill="white"/>
<path d="M244.568 27.4119C247.152 28.5266 249.204 30.2239 250.724 32.5039C252.295 34.7333 253.08 37.2919 253.08 40.1799C253.08 44.2839 251.636 47.7799 248.748 50.6679C245.86 53.5559 242.364 54.9999 238.26 54.9999H215.08V1.79994H236.512C240.464 1.79994 243.833 3.2186 246.62 6.05594C249.407 8.8426 250.8 12.1866 250.8 16.0879C250.8 21.0533 248.723 24.8279 244.568 27.4119ZM236.512 6.81594H220.4V25.3599H236.512C238.995 25.3599 241.097 24.4733 242.82 22.6999C244.593 20.8759 245.48 18.6719 245.48 16.0879C245.48 13.5546 244.593 11.3759 242.82 9.55194C241.097 7.72794 238.995 6.81594 236.512 6.81594ZM238.26 49.9839C240.895 49.9839 243.124 49.0466 244.948 47.1719C246.823 45.2466 247.76 42.9159 247.76 40.1799C247.76 37.4946 246.823 35.1893 244.948 33.2639C243.124 31.3386 240.895 30.3759 238.26 30.3759H220.4V49.9839H238.26Z" fill="white"/>
<path d="M313.053 47.9319C307.733 53.2519 301.222 55.9119 293.521 55.9119C285.82 55.9119 279.309 53.2519 273.989 47.9319C268.669 42.5613 266.009 36.0506 266.009 28.3999C266.009 20.7493 268.669 14.2639 273.989 8.94394C279.309 3.57327 285.82 0.887939 293.521 0.887939C301.222 0.887939 307.733 3.57327 313.053 8.94394C318.373 14.2639 321.033 20.7493 321.033 28.3999C321.033 36.0506 318.373 42.5613 313.053 47.9319ZM277.713 44.2839C281.969 48.5906 287.238 50.7439 293.521 50.7439C299.804 50.7439 305.073 48.5906 309.329 44.2839C313.585 39.9266 315.713 34.6319 315.713 28.3999C315.713 22.1679 313.585 16.8986 309.329 12.5919C305.073 8.2346 299.804 6.05594 293.521 6.05594C287.238 6.05594 281.969 8.2346 277.713 12.5919C273.457 16.8986 271.329 22.1679 271.329 28.3999C271.329 34.6319 273.457 39.9266 277.713 44.2839Z" fill="white"/>
<path d="M372.67 49.9839H378.37V65.1839H373.05V54.9999H335.05V65.1839H329.73V49.9839H334.062C337.558 45.8799 339.306 39.5466 339.306 30.9839V1.79994H372.67V49.9839ZM340.37 49.9839H367.35V6.81594H344.626V31.1359C344.626 39.5466 343.208 45.8293 340.37 49.9839Z" fill="white"/>
<path d="M429.399 54.9999L424.459 41.9279H399.227L394.287 54.9999H388.663L409.107 1.79994H414.579L435.023 54.9999H429.399ZM401.127 36.9119H422.559L411.843 8.41194L401.127 36.9119Z" fill="white"/>
<path fill-rule="evenodd" clip-rule="evenodd" d="M455 26.7297C452.6 30.0811 448 30.5 446 30.5C448 30.5 452.6 30.9189 455 34.2703C457.4 37.6216 458.667 43.4865 459 46C459.333 43.4865 460.6 37.6216 463 34.2703C465.4 30.9189 470 30.5 472 30.5C470 30.5 465.4 30.0811 463 26.7297C460.6 23.3784 459.333 17.5135 459 15C458.667 17.5135 457.4 23.3784 455 26.7297Z" fill="#F1D291"/>
<defs>
<linearGradient id="paint0_linear_310_1231" x1="-8.12471e-07" y1="37.0362" x2="192" y2="37.0362" gradientUnits="userSpaceOnUse">
<stop stop-color="#B38962"/>
<stop offset="0.505654" stop-color="#F6D894"/>
<stop offset="1" stop-color="#B38962"/>
</linearGradient>
<linearGradient id="paint1_linear_310_1231" x1="-8.12471e-07" y1="37.0362" x2="192" y2="37.0362" gradientUnits="userSpaceOnUse">
<stop stop-color="#B38962"/>
<stop offset="0.505654" stop-color="#F6D894"/>
<stop offset="1" stop-color="#B38962"/>
</linearGradient>
<linearGradient id="paint2_linear_310_1231" x1="-8.12471e-07" y1="37.0362" x2="192" y2="37.0362" gradientUnits="userSpaceOnUse">
<stop stop-color="#B38962"/>
<stop offset="0.505654" stop-color="#F6D894"/>
<stop offset="1" stop-color="#B38962"/>
</linearGradient>
<linearGradient id="paint3_linear_310_1231" x1="-8.12471e-07" y1="37.0362" x2="192" y2="37.0362" gradientUnits="userSpaceOnUse">
<stop stop-color="#B38962"/>
<stop offset="0.505654" stop-color="#F6D894"/>
<stop offset="1" stop-color="#B38962"/>
</linearGradient>
<linearGradient id="paint4_linear_310_1231" x1="-8.12471e-07" y1="37.0362" x2="192" y2="37.0362" gradientUnits="userSpaceOnUse">
<stop stop-color="#B38962"/>
<stop offset="0.505654" stop-color="#F6D894"/>
<stop offset="1" stop-color="#B38962"/>
</linearGradient>
<linearGradient id="paint5_linear_310_1231" x1="96" y1="106.036" x2="288" y2="106.036" gradientUnits="userSpaceOnUse">
<stop stop-color="#B38962"/>
<stop offset="0.505654" stop-color="#F6D894"/>
<stop offset="1" stop-color="#B38962"/>
</linearGradient>
<linearGradient id="paint6_linear_310_1231" x1="96" y1="106.036" x2="288" y2="106.036" gradientUnits="userSpaceOnUse">
<stop stop-color="#B38962"/>
<stop offset="0.505654" stop-color="#F6D894"/>
<stop offset="1" stop-color="#B38962"/>
</linearGradient>
<linearGradient id="paint7_linear_310_1231" x1="96" y1="106.036" x2="288" y2="106.036" gradientUnits="userSpaceOnUse">
<stop stop-color="#B38962"/>
<stop offset="0.505654" stop-color="#F6D894"/>
<stop offset="1" stop-color="#B38962"/>
</linearGradient>
<linearGradient id="paint8_linear_310_1231" x1="96" y1="106.036" x2="288" y2="106.036" gradientUnits="userSpaceOnUse">
<stop stop-color="#B38962"/>
<stop offset="0.505654" stop-color="#F6D894"/>
<stop offset="1" stop-color="#B38962"/>
</linearGradient>
<linearGradient id="paint9_linear_310_1231" x1="96" y1="106.036" x2="288" y2="106.036" gradientUnits="userSpaceOnUse">
<stop stop-color="#B38962"/>
<stop offset="0.505654" stop-color="#F6D894"/>
<stop offset="1" stop-color="#B38962"/>
</linearGradient>
</defs>
</svg>
